<svg width="24" height="24" fill="none" xmlns="http://www.w3.org/2000/svg"><g clip-path="url(#clip0)" fill="#fff"><path d="M12.207 13.652h7.708a.482.482 0 000-.963h-7.708a.482.482 0 000 .963z"/><path d="M23.288 9.317V7.39c0-.466-.139-.896-.368-1.265-.006-.012-.007-.026-.014-.036L19.927 1.3A2.395 2.395 0 0017.881.163H5.571C4.73.163 3.968.59 3.525 1.3L.546 6.09c-.006.01-.006.02-.011.03-.232.37-.371.803-.371 1.27v1.928a2.4 2.4 0 00.979 1.927 2.398 2.398 0 00-.98 1.927v1.927a2.4 2.4 0 00.98 1.927 2.399 2.399 0 00-.98 1.927v1.927a2.412 2.412 0 002.41 2.409h6.316a.481.481 0 100-.964H2.572a1.447 1.447 0 01-1.445-1.445v-1.927c0-.798.648-1.446 1.445-1.446h8.06a.482.482 0 000-.963h-8.06a1.447 1.447 0 01-1.445-1.445V13.17c0-.798.648-1.446 1.445-1.446H20.88c.797 0 1.445.649 1.445 1.446v1.927c0 .212-.052.425-.152.63a.482.482 0 00.865.424c.167-.34.25-.693.25-1.054V13.17a2.4 2.4 0 00-.978-1.927c.59-.44.979-1.137.979-1.927zM4.343 1.809a1.435 1.435 0 011.227-.682h12.31c.504 0 .962.255 1.228.682l1.988 3.194c-.073-.008-.143-.022-.217-.022H2.572c-.074 0-.144.014-.216.021l1.987-3.193zm17.981 7.508c0 .796-.648 1.445-1.445 1.445H2.572a1.447 1.447 0 01-1.445-1.445V7.39c0-.798.648-1.446 1.445-1.446H20.88c.797 0 1.445.648 1.445 1.446v1.927z"/><path d="M2.09 19.915a1.446 1.446 0 002.891 0 1.446 1.446 0 00-2.89 0zm1.928 0a.482.482 0 11-.964 0 .482.482 0 01.964 0zm15.898-3.372c-.088 0-.176.005-.262.012a4.33 4.33 0 00-3.592-1.939 4.341 4.341 0 00-4.314 3.898 2.411 2.411 0 00-1.95 2.365 2.412 2.412 0 002.41 2.409h7.708a3.376 3.376 0 003.372-3.373 3.376 3.376 0 00-3.372-3.372zm0 5.781h-7.708a1.447 1.447 0 01-1.446-1.445c0-.797.649-1.446 1.446-1.446a.482.482 0 00.481-.481 3.376 3.376 0 013.373-3.373c1.204 0 2.326.664 2.927 1.733.1.178.299.272.505.238.137-.024.277-.044.422-.044a2.412 2.412 0 012.409 2.41 2.412 2.412 0 01-2.41 2.408zm-.001-15.416h-7.708a.482.482 0 000 .963h7.708a.482.482 0 000-.963zm0 1.927h-7.708a.482.482 0 000 .963h7.708a.482.482 0 000-.963zM3.536 6.908a1.446 1.446 0 000 2.89c.797 0 1.445-.648 1.445-1.445s-.648-1.445-1.445-1.445zm0 1.927a.482.482 0 110-.964.482.482 0 010 .964zM2.09 14.134a1.446 1.446 0 002.891 0 1.446 1.446 0 00-2.89 0zm1.928 0a.482.482 0 11-.964 0 .482.482 0 01.964 0z"/></g><defs><clipPath id="clip0"><path fill="#fff" transform="translate(.164 .163)" d="M0 0h23.124v23.124H0z"/></clipPath></defs></svg>