<svg width="24" height="24" viewBox="0 0 24 24" fill="none" xmlns="http://www.w3.org/2000/svg">
<g clip-path="url(#clip0)">
<path d="M12.2074 13.6525H19.9154C20.1814 13.6525 20.3972 13.4367 20.3972 13.1707C20.3972 12.9048 20.1814 12.689 19.9154 12.689H12.2074C11.9414 12.689 11.7256 12.9048 11.7256 13.1707C11.7256 13.4367 11.9414 13.6525 12.2074 13.6525Z" fill="white"/>
<path d="M23.2878 9.31667V7.38964C23.2878 6.92426 23.149 6.49358 22.9197 6.12454C22.9139 6.11297 22.913 6.09947 22.9062 6.0889L19.927 1.30025C19.4848 0.589185 18.7198 0.16333 17.8815 0.16333H5.57079C4.73159 0.16333 3.9675 0.589185 3.52525 1.30025L0.546072 6.0889C0.540291 6.09852 0.540291 6.10914 0.53451 6.11975C0.303268 6.48874 0.163574 6.92232 0.163574 7.38964V9.31667C0.163574 10.1067 0.551853 10.8043 1.14251 11.2437C0.551853 11.683 0.163574 12.3796 0.163574 13.1707V15.0977C0.163574 15.8878 0.551853 16.5854 1.14251 17.0247C0.551853 17.4641 0.163574 18.1607 0.163574 18.9517V20.8788C0.163574 22.2065 1.24463 23.2875 2.57233 23.2875H8.88907C9.15595 23.2875 9.37084 23.0717 9.37084 22.8057C9.37084 22.5398 9.155 22.324 8.88907 22.324H2.57233C1.77549 22.324 1.12707 21.6756 1.12707 20.8787V18.9517C1.12707 18.1539 1.77549 17.5065 2.57233 17.5065H10.6311C10.897 17.5065 11.1129 17.2906 11.1129 17.0247C11.1129 16.7588 10.897 16.5429 10.6311 16.5429H2.57233C1.77549 16.5429 1.12707 15.8945 1.12707 15.0977V13.1707C1.12707 12.3729 1.77549 11.7254 2.57233 11.7254H20.879C21.6758 11.7254 22.3242 12.3738 22.3242 13.1707V15.0977C22.3242 15.3097 22.2722 15.5226 22.172 15.7278C22.0554 15.9668 22.1537 16.2549 22.3926 16.3724C22.6325 16.49 22.9206 16.3917 23.0372 16.1518C23.2039 15.8127 23.2877 15.459 23.2877 15.0977V13.1707C23.2877 12.3806 22.8994 11.683 22.3088 11.2437C22.8995 10.8033 23.2878 10.1067 23.2878 9.31667ZM4.34327 1.80899C4.60825 1.38214 5.06685 1.12682 5.5698 1.12682H17.8805C18.3835 1.12682 18.8421 1.38214 19.1081 1.80899L21.0958 5.00301C21.0235 4.99529 20.9532 4.98084 20.879 4.98084H2.57233C2.49812 4.98084 2.4278 4.99529 2.35554 5.00202L4.34327 1.80899ZM22.3243 9.31667C22.3243 10.1135 21.6758 10.7619 20.879 10.7619H2.57233C1.77549 10.7619 1.12707 10.1135 1.12707 9.31667V7.38964C1.12707 6.59185 1.77549 5.94438 2.57233 5.94438H20.879C21.6758 5.94438 22.3242 6.59185 22.3242 7.38964V9.31667H22.3243Z" fill="white"/>
<path d="M2.09082 19.9152C2.09082 20.7121 2.73925 21.3605 3.53608 21.3605C4.33292 21.3605 4.98134 20.7121 4.98134 19.9152C4.98134 19.1184 4.33292 18.47 3.53608 18.47C2.73925 18.47 2.09082 19.1174 2.09082 19.9152ZM4.01781 19.9152C4.01781 20.1812 3.80196 20.397 3.53604 20.397C3.27011 20.397 3.05431 20.1812 3.05431 19.9152C3.05431 19.6493 3.27015 19.4335 3.53608 19.4335C3.80201 19.4335 4.01781 19.6493 4.01781 19.9152Z" fill="white"/>
<path d="M19.9156 16.543C19.828 16.543 19.7402 16.5478 19.6545 16.5555C18.8519 15.3511 17.504 14.616 16.0616 14.616C13.8186 14.616 11.9677 16.3281 11.748 18.5143C10.639 18.7282 9.79883 19.7072 9.79883 20.8788C9.79883 22.2065 10.8799 23.2875 12.2076 23.2875H19.9157C21.7752 23.2875 23.2879 21.7748 23.2879 19.9152C23.2879 18.0556 21.7752 16.543 19.9156 16.543ZM19.9156 22.324H12.2076C11.4107 22.324 10.7623 21.6756 10.7623 20.8788C10.7623 20.0819 11.4107 19.4335 12.2076 19.4335C12.4735 19.4335 12.6894 19.2177 12.6894 18.9518C12.6894 17.0922 14.202 15.5795 16.0616 15.5795C17.266 15.5795 18.3885 16.2433 18.9888 17.3118C19.089 17.4901 19.2875 17.5845 19.4937 17.5498C19.6315 17.5257 19.7712 17.5064 19.9157 17.5064C21.2434 17.5064 22.3245 18.5875 22.3245 19.9152C22.3245 21.2429 21.2434 22.324 19.9156 22.324Z" fill="white"/>
<path d="M19.9154 6.90796H12.2074C11.9414 6.90796 11.7256 7.1238 11.7256 7.38973C11.7256 7.65566 11.9414 7.8715 12.2074 7.8715H19.9154C20.1814 7.8715 20.3972 7.65566 20.3972 7.38973C20.3972 7.1238 20.1813 6.90796 19.9154 6.90796Z" fill="white"/>
<path d="M19.9154 8.83496H12.2074C11.9414 8.83496 11.7256 9.0508 11.7256 9.31673C11.7256 9.58266 11.9414 9.7985 12.2074 9.7985H19.9154C20.1814 9.7985 20.3972 9.58266 20.3972 9.31673C20.3972 9.0508 20.1813 8.83496 19.9154 8.83496Z" fill="white"/>
<path d="M3.53608 6.90796C2.73925 6.90796 2.09082 7.55544 2.09082 8.35322C2.09082 9.151 2.73925 9.79848 3.53608 9.79848C4.33292 9.79848 4.98134 9.15005 4.98134 8.35322C4.98134 7.55643 4.33287 6.90796 3.53608 6.90796ZM3.53608 8.83499C3.27015 8.83499 3.05431 8.61915 3.05431 8.35322C3.05431 8.08729 3.27015 7.87145 3.53608 7.87145C3.80201 7.87145 4.01785 8.08729 4.01785 8.35322C4.01785 8.61915 3.80201 8.83499 3.53608 8.83499Z" fill="white"/>
<path d="M2.09082 14.1342C2.09082 14.9311 2.73925 15.5795 3.53608 15.5795C4.33292 15.5795 4.98134 14.9311 4.98134 14.1342C4.98134 13.3374 4.33292 12.689 3.53608 12.689C2.73925 12.689 2.09082 13.3364 2.09082 14.1342ZM4.01781 14.1342C4.01781 14.4002 3.80196 14.616 3.53604 14.616C3.27011 14.616 3.05431 14.4002 3.05431 14.1342C3.05431 13.8683 3.27015 13.6525 3.53608 13.6525C3.80201 13.6525 4.01781 13.8683 4.01781 14.1342Z" fill="white"/>
</g>
<defs>
<clipPath id="clip0">
<rect width="23.1242" height="23.1242" fill="white" transform="translate(0.163574 0.16333)"/>
</clipPath>
</defs>
</svg>
