<svg xmlns="http://www.w3.org/2000/svg"><symbol fill="none" viewBox="0 0 235 37" id="promogroup" xmlns="http://www.w3.org/2000/svg"><path d="M9.401 14.498c1.525 0 2.89.331 4.093 1a7.27 7.27 0 012.827 2.785c.68 1.192 1.019 2.53 1.019 4.015 0 1.606-.333 3.02-1 4.238a7.058 7.058 0 01-2.79 2.836c-1.192.67-2.55 1-4.062 1h-3.58v6.093H0V14.498h9.401zm.89 10.133c.351-.236.629-.561.839-.969.21-.408.315-.86.315-1.357 0-.376-.105-.752-.315-1.122a2.693 2.693 0 00-.846-.918 1.956 1.956 0 00-1.13-.363H5.902v5.085h3.241a2.074 2.074 0 001.148-.356zm18.623-10.133c1.531 0 2.902.319 4.1.962a7.088 7.088 0 012.814 2.69c.68 1.153 1.019 2.472 1.019 3.957 0 1.421-.334 2.696-1 3.817a6.934 6.934 0 01-2.754 2.626l4.29 7.915h-6.746l-3.315-6.96h-1.969v6.966H19.45V14.498h9.463zm.895 9.636a2.19 2.19 0 00.84-.835 2.36 2.36 0 00.302-1.198c0-.363-.105-.72-.314-1.064a2.432 2.432 0 00-.84-.835 2.167 2.167 0 00-1.136-.313h-3.315v4.538h3.303c.42.006.802-.09 1.16-.293zm14.143 11.317a11.56 11.56 0 01-4.24-4.206c-1.044-1.771-1.563-3.702-1.563-5.793 0-2.103.519-4.027 1.562-5.792a11.605 11.605 0 014.241-4.187c1.784-1.033 3.735-1.542 5.852-1.542 2.105 0 4.056.516 5.834 1.542a11.618 11.618 0 014.247 4.187c1.049 1.765 1.574 3.69 1.574 5.793 0 2.09-.525 4.02-1.575 5.792a11.623 11.623 0 01-4.246 4.206C53.853 36.484 51.909 37 49.803 37c-2.117 0-4.068-.516-5.852-1.549zm8.772-4.767a5.47 5.47 0 002.086-2.122c.513-.91.766-1.943.766-3.09 0-1.147-.253-2.186-.766-3.091a5.512 5.512 0 00-2.086-2.122 5.781 5.781 0 00-2.92-.759 5.781 5.781 0 00-2.92.759 5.471 5.471 0 00-2.086 2.122c-.513.911-.766 1.944-.766 3.09 0 1.148.26 2.18.772 3.085a5.633 5.633 0 002.099 2.122c.883.51 1.852.765 2.901.765 1.068 0 2.037-.249 2.92-.759zm11.241-16.186h5.197l5.994 8.737 6.118-8.737h5.13v21.967H80.52V24.178l-4.648 6.947h-1.439l-4.568-7.01V36.47h-5.901V14.498zm30.747 20.953a11.56 11.56 0 01-4.24-4.206c-1.044-1.771-1.562-3.702-1.562-5.793 0-2.103.518-4.027 1.561-5.792a11.606 11.606 0 014.241-4.187c1.784-1.026 3.735-1.542 5.852-1.542 2.105 0 4.056.516 5.834 1.542a11.576 11.576 0 014.247 4.187c1.049 1.759 1.574 3.69 1.574 5.793 0 2.09-.525 4.02-1.574 5.792a11.628 11.628 0 01-4.247 4.206c-1.784 1.033-3.729 1.549-5.834 1.549-2.117 0-4.068-.516-5.852-1.549zm8.772-4.767a5.476 5.476 0 002.087-2.122c.512-.91.765-1.943.765-3.09 0-1.147-.253-2.186-.765-3.091a5.515 5.515 0 00-2.087-2.122 5.782 5.782 0 00-2.92-.759 5.78 5.78 0 00-2.92.759 5.47 5.47 0 00-2.086 2.122c-.512.911-.766 1.944-.766 3.09 0 1.148.26 2.18.772 3.085a5.588 5.588 0 002.099 2.122c.883.51 1.852.765 2.901.765 1.068 0 2.037-.249 2.92-.759zm15.674 4.761a11.602 11.602 0 01-4.136-4.206c-1.025-1.765-1.543-3.696-1.543-5.78 0-2.103.518-4.028 1.549-5.793a11.502 11.502 0 014.185-4.187c1.76-1.032 3.673-1.542 5.753-1.542 1.544 0 3.099.338 4.673 1.007a11.119 11.119 0 014.044 2.919c1.129 1.268 1.815 2.759 2.068 4.473h-6.007c-.487-.917-1.154-1.618-1.987-2.11-.834-.49-1.821-.732-2.957-.732-.994 0-1.901.236-2.722.701-.822.472-1.482 1.154-1.97 2.052-.487.899-.734 1.976-.734 3.225 0 1.293.24 2.383.728 3.282.488.892 1.142 1.567 1.963 2.02.827.452 1.735.675 2.741.675 1.086 0 2.019-.204 2.809-.612.79-.407 1.327-1.045 1.617-1.905h-4.648v-4.748h11.284c.043 2.702-.37 5.016-1.235 6.94-.864 1.925-2.135 3.384-3.802 4.385-1.667 1-3.673 1.504-6.006 1.504-2.056-.013-3.939-.53-5.667-1.568zm28.661-20.947c1.531 0 2.901.319 4.099.962a7.089 7.089 0 012.814 2.69c.679 1.153 1.019 2.472 1.019 3.957 0 1.421-.333 2.696-1 3.817a6.933 6.933 0 01-2.753 2.626l4.29 7.915h-6.747l-3.315-6.966h-1.969v6.966h-5.902V14.498h9.464zm.895 9.636c.352-.198.636-.478.839-.835.204-.357.303-.752.303-1.198 0-.363-.105-.72-.315-1.064a2.433 2.433 0 00-.84-.835 2.163 2.163 0 00-1.135-.313h-3.315v4.538h3.302c.42.006.803-.09 1.161-.293zm14.142 11.317a11.558 11.558 0 01-4.241-4.206c-1.043-1.771-1.562-3.702-1.562-5.793 0-2.103.519-4.027 1.562-5.792a11.604 11.604 0 014.241-4.187c1.784-1.033 3.734-1.542 5.852-1.542 2.105 0 4.055.516 5.833 1.542a11.614 11.614 0 014.247 4.187c1.05 1.765 1.574 3.69 1.574 5.793 0 2.09-.524 4.02-1.574 5.792a11.62 11.62 0 01-4.247 4.206c-1.784 1.033-3.728 1.549-5.833 1.549-2.118 0-4.068-.516-5.852-1.549zm8.772-4.767a5.473 5.473 0 002.086-2.122c.512-.91.766-1.943.766-3.09 0-1.147-.254-2.186-.766-3.091a5.512 5.512 0 00-2.086-2.122 5.782 5.782 0 00-2.92-.759 5.798 5.798 0 00-2.92.759 5.466 5.466 0 00-2.086 2.122c-.507.905-.766 1.944-.766 3.09 0 1.148.259 2.18.772 3.085a5.585 5.585 0 002.099 2.122 5.7 5.7 0 002.901.765c1.068 0 2.037-.249 2.92-.759zm15.624 5.22a8.345 8.345 0 01-3.445-3.142c-.833-1.364-1.253-2.95-1.253-4.76V14.498h5.883v13.051c0 1.186.321 2.135.969 2.862.648.726 1.562 1.083 2.741 1.083 1.161 0 2.062-.363 2.71-1.09.648-.726.969-1.682.969-2.867V14.498h5.902v13.504c0 1.72-.389 3.269-1.173 4.633-.784 1.37-1.902 2.434-3.346 3.205-1.451.771-3.136 1.154-5.056 1.154-1.808.006-3.438-.357-4.901-1.09zm27.322-21.406c1.524 0 2.889.331 4.092 1a7.268 7.268 0 012.827 2.785c.68 1.192 1.019 2.53 1.019 4.015 0 1.606-.333 3.02-1 4.238a7.063 7.063 0 01-2.79 2.836c-1.192.67-2.55 1-4.062 1h-3.58v6.093h-5.902V14.498h9.396zm.882 10.133c.352-.236.63-.561.84-.969.21-.408.315-.86.315-1.357 0-.376-.105-.752-.315-1.122a2.696 2.696 0 00-.846-.918 1.956 1.956 0 00-1.13-.363h-3.253v5.085h3.241a2.072 2.072 0 001.148-.356z" fill="#FCFCFC"/><g filter="url(#afilter0_d)" fill="#FCFCFC"><path d="M218.376 0h-1.882v10.47h1.882V0z"/><path d="M212.363 4.264v1.943h10.143V4.264h-10.143z"/></g><g filter="url(#afilter1_d)" fill="#FCFCFC"><path d="M234.507 13.379l-1.331-1.375-7.172 7.404 1.331 1.374 7.172-7.403z"/><path d="M227.329 12L226 13.377l7.158 7.417 1.329-1.377L227.329 12z"/></g><g filter="url(#afilter2_d)"><path d="M231.216 4.576c1.224 0 2.216-1.025 2.216-2.288 0-1.264-.992-2.288-2.216-2.288C229.992 0 229 1.024 229 2.288c0 1.263.992 2.288 2.216 2.288z" fill="#FCFCFC"/></g><defs><filter id="afilter0_d" x="208.363" y="0" width="18.142" height="18.47" filterUnits="userSpaceOnUse" color-interpolation-filters="sRGB"><feFlood flood-opacity="0" result="BackgroundImageFix"/><feColorMatrix in="SourceAlpha" values="0 0 0 0 0 0 0 0 0 0 0 0 0 0 0 0 0 0 127 0" result="hardAlpha"/><feOffset dy="4"/><feGaussianBlur stdDeviation="2"/><feComposite in2="hardAlpha" operator="out"/><feColorMatrix values="0 0 0 0 0 0 0 0 0 0 0 0 0 0 0 0 0 0 0.25 0"/><feBlend in2="BackgroundImageFix" result="effect1_dropShadow"/><feBlend in="SourceGraphic" in2="effect1_dropShadow" result="shape"/></filter><filter id="afilter1_d" x="222" y="12" width="16.507" height="16.794" filterUnits="userSpaceOnUse" color-interpolation-filters="sRGB"><feFlood flood-opacity="0" result="BackgroundImageFix"/><feColorMatrix in="SourceAlpha" values="0 0 0 0 0 0 0 0 0 0 0 0 0 0 0 0 0 0 127 0" result="hardAlpha"/><feOffset dy="4"/><feGaussianBlur stdDeviation="2"/><feComposite in2="hardAlpha" operator="out"/><feColorMatrix values="0 0 0 0 0 0 0 0 0 0 0 0 0 0 0 0 0 0 0.25 0"/><feBlend in2="BackgroundImageFix" result="effect1_dropShadow"/><feBlend in="SourceGraphic" in2="effect1_dropShadow" result="shape"/></filter><filter id="afilter2_d" x="225" y="0" width="12.432" height="12.576" filterUnits="userSpaceOnUse" color-interpolation-filters="sRGB"><feFlood flood-opacity="0" result="BackgroundImageFix"/><feColorMatrix in="SourceAlpha" values="0 0 0 0 0 0 0 0 0 0 0 0 0 0 0 0 0 0 127 0" result="hardAlpha"/><feOffset dy="4"/><feGaussianBlur stdDeviation="2"/><feComposite in2="hardAlpha" operator="out"/><feColorMatrix values="0 0 0 0 0 0 0 0 0 0 0 0 0 0 0 0 0 0 0.25 0"/><feBlend in2="BackgroundImageFix" result="effect1_dropShadow"/><feBlend in="SourceGraphic" in2="effect1_dropShadow" result="shape"/></filter></defs></symbol></svg>