<svg width="373" height="634" fill="none" xmlns="http://www.w3.org/2000/svg"><path d="M-6.84 442c-1.19 0-2.16.97-2.16 2.16 0 1.19.97 2.16 2.16 2.16 1.19 0 2.16-.97 2.16-2.16-.01-1.19-.98-2.16-2.16-2.16zm0 3.38c-.67 0-1.22-.55-1.22-1.22 0-.67.55-1.22 1.22-1.22.67 0 1.22.55 1.22 1.22 0 .67-.55 1.22-1.22 1.22zm0 192.46c-1.19 0-2.16.97-2.16 2.16 0 1.19.97 2.16 2.16 2.16 1.19 0 2.16-.97 2.16-2.16-.01-1.19-.98-2.16-2.16-2.16zm0 3.38c-.67 0-1.22-.55-1.22-1.22 0-.67.55-1.22 1.22-1.22.67 0 1.22.55 1.22 1.22 0 .67-.55 1.22-1.22 1.22zm0 192.85c-1.19 0-2.16.97-2.16 2.16 0 1.19.97 2.16 2.16 2.16 1.19 0 2.16-.97 2.16-2.16 0-1.19-.98-2.16-2.16-2.16zm0 3.38a1.225 1.225 0 010-2.45c.68 0 1.22.55 1.22 1.22 0 .67-.55 1.23-1.22 1.23zm0 94.31c-1.19 0-2.16.97-2.16 2.16 0 1.19.97 2.16 2.16 2.16 1.19 0 2.16-.97 2.16-2.16-.01-1.19-.98-2.16-2.16-2.16zm0 3.38c-.67 0-1.22-.55-1.22-1.22 0-.67.55-1.22 1.22-1.22.67 0 1.22.55 1.22 1.22 0 .67-.55 1.22-1.22 1.22zm0-199.18c-1.19 0-2.16.97-2.16 2.16 0 1.19.97 2.16 2.16 2.16 1.19 0 2.16-.97 2.16-2.16a2.17 2.17 0 00-2.16-2.16zm0 3.37c-.67 0-1.22-.55-1.22-1.22 0-.67.55-1.22 1.22-1.22.67 0 1.22.55 1.22 1.22 0 .67-.55 1.22-1.22 1.22zM91.08 442c-1.19 0-2.16.97-2.16 2.16 0 1.19.97 2.16 2.16 2.16 1.19 0 2.16-.97 2.16-2.16a2.17 2.17 0 00-2.16-2.16zm0 3.38c-.67 0-1.22-.55-1.22-1.22 0-.67.55-1.22 1.22-1.22.67 0 1.22.55 1.22 1.22 0 .67-.55 1.22-1.22 1.22zm0 192.46c-1.19 0-2.16.97-2.16 2.16 0 1.19.97 2.16 2.16 2.16 1.19 0 2.16-.97 2.16-2.16a2.17 2.17 0 00-2.16-2.16zm0 3.38c-.67 0-1.22-.55-1.22-1.22 0-.67.55-1.22 1.22-1.22.67 0 1.22.55 1.22 1.22 0 .67-.55 1.22-1.22 1.22zm0 192.85c-1.19 0-2.16.97-2.16 2.16 0 1.19.97 2.16 2.16 2.16 1.19 0 2.16-.97 2.16-2.16 0-1.19-.97-2.16-2.16-2.16zm0 3.38c-.67 0-1.22-.55-1.22-1.22 0-.67.55-1.22 1.22-1.22.67 0 1.22.55 1.22 1.22 0 .67-.55 1.22-1.22 1.22zm0 94.31c-1.19 0-2.16.97-2.16 2.16 0 1.19.97 2.16 2.16 2.16 1.19 0 2.16-.97 2.16-2.16a2.17 2.17 0 00-2.16-2.16zm0 3.38c-.67 0-1.22-.55-1.22-1.22 0-.67.55-1.22 1.22-1.22.67 0 1.22.55 1.22 1.22 0 .67-.55 1.22-1.22 1.22zm0-199.18c-1.19 0-2.16.97-2.16 2.16 0 1.19.97 2.16 2.16 2.16 1.19 0 2.16-.97 2.16-2.16-.01-1.2-.97-2.16-2.16-2.16zm0 3.37c-.67 0-1.22-.55-1.22-1.22 0-.67.55-1.22 1.22-1.22.67 0 1.22.55 1.22 1.22 0 .67-.55 1.22-1.22 1.22zM140.04 442c-1.19 0-2.16.97-2.16 2.16 0 1.19.97 2.16 2.16 2.16 1.19 0 2.16-.97 2.16-2.16a2.17 2.17 0 00-2.16-2.16zm0 3.38c-.67 0-1.22-.55-1.22-1.22 0-.67.55-1.22 1.22-1.22.67 0 1.22.55 1.22 1.22 0 .67-.55 1.22-1.22 1.22zm0 192.46c-1.19 0-2.16.97-2.16 2.16 0 1.19.97 2.16 2.16 2.16 1.19 0 2.16-.97 2.16-2.16a2.17 2.17 0 00-2.16-2.16zm0 3.38c-.67 0-1.22-.55-1.22-1.22 0-.67.55-1.22 1.22-1.22.67 0 1.22.55 1.22 1.22 0 .67-.55 1.22-1.22 1.22zm0 192.85c-1.19 0-2.16.97-2.16 2.16 0 1.19.97 2.16 2.16 2.16 1.19 0 2.16-.97 2.16-2.16 0-1.19-.97-2.16-2.16-2.16zm0 3.38c-.67 0-1.22-.55-1.22-1.22 0-.67.55-1.22 1.22-1.22.67 0 1.22.55 1.22 1.22 0 .67-.55 1.22-1.22 1.22zm0 94.31c-1.19 0-2.16.97-2.16 2.16 0 1.19.97 2.16 2.16 2.16 1.19 0 2.16-.97 2.16-2.16a2.17 2.17 0 00-2.16-2.16zm0 3.38c-.67 0-1.22-.55-1.22-1.22 0-.67.55-1.22 1.22-1.22.67 0 1.22.55 1.22 1.22 0 .67-.55 1.22-1.22 1.22zm0-199.18c-1.19 0-2.16.97-2.16 2.16 0 1.19.97 2.16 2.16 2.16 1.19 0 2.16-.97 2.16-2.16-.01-1.2-.97-2.16-2.16-2.16zm0 3.37c-.67 0-1.22-.55-1.22-1.22 0-.67.55-1.22 1.22-1.22.67 0 1.22.55 1.22 1.22 0 .67-.55 1.22-1.22 1.22zM237.96 442c-1.19 0-2.16.97-2.16 2.16 0 1.19.97 2.16 2.16 2.16 1.19 0 2.16-.97 2.16-2.16 0-1.19-.97-2.16-2.16-2.16zm0 3.38c-.67 0-1.22-.55-1.22-1.22 0-.67.55-1.22 1.22-1.22.67 0 1.22.55 1.22 1.22 0 .67-.55 1.22-1.22 1.22zm0 192.46c-1.19 0-2.16.97-2.16 2.16 0 1.19.97 2.16 2.16 2.16 1.19 0 2.16-.97 2.16-2.16 0-1.19-.97-2.16-2.16-2.16zm0 3.38c-.67 0-1.22-.55-1.22-1.22 0-.67.55-1.22 1.22-1.22.67 0 1.22.55 1.22 1.22 0 .67-.55 1.22-1.22 1.22zm0 192.85c-1.19 0-2.16.97-2.16 2.16 0 1.19.97 2.16 2.16 2.16 1.19 0 2.16-.97 2.16-2.16 0-1.19-.97-2.16-2.16-2.16zm0 3.38c-.67 0-1.22-.55-1.22-1.22 0-.67.55-1.22 1.22-1.22.67 0 1.22.55 1.22 1.22 0 .67-.55 1.22-1.22 1.22zm0 94.31c-1.19 0-2.16.97-2.16 2.16 0 1.19.97 2.16 2.16 2.16 1.19 0 2.16-.97 2.16-2.16 0-1.19-.97-2.16-2.16-2.16zm0 3.38c-.67 0-1.22-.55-1.22-1.22 0-.67.55-1.22 1.22-1.22.67 0 1.22.55 1.22 1.22 0 .67-.55 1.22-1.22 1.22zm0-199.18c-1.19 0-2.16.97-2.16 2.16 0 1.19.97 2.16 2.16 2.16 1.19 0 2.16-.97 2.16-2.16 0-1.2-.97-2.16-2.16-2.16zm0 3.37c-.67 0-1.22-.55-1.22-1.22 0-.67.55-1.22 1.22-1.22.67 0 1.22.55 1.22 1.22 0 .67-.55 1.22-1.22 1.22zM335.88 442c-1.19 0-2.16.97-2.16 2.16 0 1.19.97 2.16 2.16 2.16 1.19 0 2.16-.97 2.16-2.16 0-1.19-.97-2.16-2.16-2.16zm0 3.38c-.67 0-1.22-.55-1.22-1.22 0-.67.55-1.22 1.22-1.22.67 0 1.22.55 1.22 1.22 0 .67-.54 1.22-1.22 1.22zm0 192.46c-1.19 0-2.16.97-2.16 2.16 0 1.19.97 2.16 2.16 2.16 1.19 0 2.16-.97 2.16-2.16 0-1.19-.97-2.16-2.16-2.16zm0 3.38c-.67 0-1.22-.55-1.22-1.22 0-.67.55-1.22 1.22-1.22.67 0 1.22.55 1.22 1.22 0 .67-.54 1.22-1.22 1.22zm0 192.85c-1.19 0-2.16.97-2.16 2.16 0 1.19.97 2.16 2.16 2.16 1.19 0 2.16-.97 2.16-2.16 0-1.19-.97-2.16-2.16-2.16zm0 3.38c-.67 0-1.22-.55-1.22-1.22 0-.67.55-1.22 1.22-1.22.67 0 1.22.55 1.22 1.22 0 .67-.54 1.22-1.22 1.22zm0 94.31c-1.19 0-2.16.97-2.16 2.16 0 1.19.97 2.16 2.16 2.16 1.19 0 2.16-.97 2.16-2.16 0-1.19-.97-2.16-2.16-2.16zm0 3.38c-.67 0-1.22-.55-1.22-1.22 0-.67.55-1.22 1.22-1.22.67 0 1.22.55 1.22 1.22 0 .67-.54 1.22-1.22 1.22zm0-199.18c-1.19 0-2.16.97-2.16 2.16 0 1.19.97 2.16 2.16 2.16 1.19 0 2.16-.97 2.16-2.16 0-1.2-.97-2.16-2.16-2.16zm0 3.37c-.67 0-1.22-.55-1.22-1.22 0-.67.55-1.22 1.22-1.22.67 0 1.22.55 1.22 1.22 0 .67-.54 1.22-1.22 1.22zM433.8 442c-1.19 0-2.16.97-2.16 2.16 0 1.19.97 2.16 2.16 2.16 1.19 0 2.16-.97 2.16-2.16 0-1.19-.97-2.16-2.16-2.16zm0 3.38c-.67 0-1.22-.55-1.22-1.22 0-.67.55-1.22 1.22-1.22.67 0 1.22.55 1.22 1.22 0 .67-.54 1.22-1.22 1.22zm0 192.46c-1.19 0-2.16.97-2.16 2.16 0 1.19.97 2.16 2.16 2.16 1.19 0 2.16-.97 2.16-2.16 0-1.19-.97-2.16-2.16-2.16zm0 3.38c-.67 0-1.22-.55-1.22-1.22 0-.67.55-1.22 1.22-1.22.67 0 1.22.55 1.22 1.22 0 .67-.54 1.22-1.22 1.22zm0 192.85c-1.19 0-2.16.97-2.16 2.16 0 1.19.97 2.16 2.16 2.16 1.19 0 2.16-.97 2.16-2.16 0-1.19-.97-2.16-2.16-2.16zm0 3.38c-.67 0-1.22-.55-1.22-1.22 0-.67.55-1.22 1.22-1.22.67 0 1.22.55 1.22 1.22 0 .67-.54 1.22-1.22 1.22zm0 94.31c-1.19 0-2.16.97-2.16 2.16 0 1.19.97 2.16 2.16 2.16 1.19 0 2.16-.97 2.16-2.16 0-1.19-.97-2.16-2.16-2.16zm0 3.38c-.67 0-1.22-.55-1.22-1.22 0-.67.55-1.22 1.22-1.22.67 0 1.22.55 1.22 1.22 0 .67-.54 1.22-1.22 1.22zm0-199.18c-1.19 0-2.16.97-2.16 2.16 0 1.19.97 2.16 2.16 2.16 1.19 0 2.16-.97 2.16-2.16 0-1.2-.97-2.16-2.16-2.16zm0 3.37c-.67 0-1.22-.55-1.22-1.22 0-.67.55-1.22 1.22-1.22.67 0 1.22.55 1.22 1.22 0 .67-.54 1.22-1.22 1.22zM189 442.08c-1.19 0-2.16.97-2.16 2.16 0 1.19.97 2.16 2.16 2.16 1.19 0 2.16-.97 2.16-2.16 0-1.19-.97-2.16-2.16-2.16zm0 3.38c-.67 0-1.22-.55-1.22-1.22 0-.67.55-1.22 1.22-1.22.67 0 1.22.55 1.22 1.22 0 .67-.55 1.22-1.22 1.22zm0 192.47c-1.19 0-2.16.97-2.16 2.16 0 1.19.97 2.16 2.16 2.16 1.19 0 2.16-.97 2.16-2.16 0-1.19-.97-2.16-2.16-2.16zm0 3.38c-.67 0-1.22-.55-1.22-1.22 0-.67.55-1.22 1.22-1.22.67 0 1.22.55 1.22 1.22 0 .67-.55 1.22-1.22 1.22zm0 192.84c-1.19 0-2.16.97-2.16 2.16 0 1.19.97 2.16 2.16 2.16 1.19 0 2.16-.97 2.16-2.16 0-1.19-.97-2.16-2.16-2.16zm0 3.38c-.67 0-1.22-.55-1.22-1.22 0-.67.55-1.22 1.22-1.22.67 0 1.22.55 1.22 1.22 0 .67-.55 1.22-1.22 1.22zm0 94.31c-1.19 0-2.16.97-2.16 2.16 0 1.19.97 2.16 2.16 2.16 1.19 0 2.16-.97 2.16-2.16 0-1.19-.97-2.16-2.16-2.16zm0 3.38c-.67 0-1.22-.55-1.22-1.22 0-.67.55-1.22 1.22-1.22.67 0 1.22.55 1.22 1.22 0 .67-.55 1.22-1.22 1.22zm0-199.18c-1.19 0-2.16.97-2.16 2.16 0 1.19.97 2.16 2.16 2.16 1.19 0 2.16-.97 2.16-2.16 0-1.19-.97-2.16-2.16-2.16zm0 3.38c-.67 0-1.22-.55-1.22-1.22 0-.67.55-1.22 1.22-1.22.67 0 1.22.55 1.22 1.22 0 .67-.55 1.22-1.22 1.22zM42.12 442.08c-1.19 0-2.16.97-2.16 2.16 0 1.19.97 2.16 2.16 2.16 1.19 0 2.16-.97 2.16-2.16a2.17 2.17 0 00-2.16-2.16zm0 3.38c-.67 0-1.22-.55-1.22-1.22 0-.67.55-1.22 1.22-1.22.67 0 1.22.55 1.22 1.22 0 .67-.55 1.22-1.22 1.22zm0 192.47c-1.19 0-2.16.97-2.16 2.16 0 1.19.97 2.16 2.16 2.16 1.19 0 2.16-.97 2.16-2.16a2.17 2.17 0 00-2.16-2.16zm0 3.38c-.67 0-1.22-.55-1.22-1.22 0-.67.55-1.22 1.22-1.22.67 0 1.22.55 1.22 1.22 0 .67-.55 1.22-1.22 1.22zm0 192.84c-1.19 0-2.16.97-2.16 2.16 0 1.19.97 2.16 2.16 2.16 1.19 0 2.16-.97 2.16-2.16a2.17 2.17 0 00-2.16-2.16zm0 3.38c-.67 0-1.22-.55-1.22-1.22 0-.67.55-1.22 1.22-1.22.67 0 1.22.55 1.22 1.22 0 .67-.55 1.22-1.22 1.22zm0 94.31c-1.19 0-2.16.97-2.16 2.16 0 1.19.97 2.16 2.16 2.16 1.19 0 2.16-.97 2.16-2.16 0-1.19-.97-2.16-2.16-2.16zm0 3.38c-.67 0-1.22-.55-1.22-1.22 0-.67.55-1.22 1.22-1.22.67 0 1.22.55 1.22 1.22 0 .67-.55 1.22-1.22 1.22zm0-199.18c-1.19 0-2.16.97-2.16 2.16 0 1.19.97 2.16 2.16 2.16 1.19 0 2.16-.97 2.16-2.16 0-1.19-.97-2.16-2.16-2.16zm0 3.38c-.67 0-1.22-.55-1.22-1.22 0-.67.55-1.22 1.22-1.22.67 0 1.22.55 1.22 1.22 0 .67-.55 1.22-1.22 1.22zm244.8-297.34c-1.19 0-2.16.97-2.16 2.16 0 1.19.97 2.16 2.16 2.16 1.19 0 2.16-.97 2.16-2.16 0-1.19-.97-2.16-2.16-2.16zm0 3.38c-.67 0-1.22-.55-1.22-1.22 0-.67.55-1.22 1.22-1.22.67 0 1.22.55 1.22 1.22 0 .67-.55 1.22-1.22 1.22zm0 192.47c-1.19 0-2.16.97-2.16 2.16 0 1.19.97 2.16 2.16 2.16 1.19 0 2.16-.97 2.16-2.16 0-1.19-.97-2.16-2.16-2.16zm0 3.38c-.67 0-1.22-.55-1.22-1.22 0-.67.55-1.22 1.22-1.22.67 0 1.22.55 1.22 1.22 0 .67-.55 1.22-1.22 1.22zm0 192.84c-1.19 0-2.16.97-2.16 2.16 0 1.19.97 2.16 2.16 2.16 1.19 0 2.16-.97 2.16-2.16 0-1.19-.97-2.16-2.16-2.16zm0 3.38c-.67 0-1.22-.55-1.22-1.22 0-.67.55-1.22 1.22-1.22.67 0 1.22.55 1.22 1.22 0 .67-.55 1.22-1.22 1.22zm0 94.31c-1.19 0-2.16.97-2.16 2.16 0 1.19.97 2.16 2.16 2.16 1.19 0 2.16-.97 2.16-2.16 0-1.19-.97-2.16-2.16-2.16zm0 3.38c-.67 0-1.22-.55-1.22-1.22 0-.67.55-1.22 1.22-1.22.67 0 1.22.55 1.22 1.22 0 .67-.55 1.22-1.22 1.22zm0-199.18c-1.19 0-2.16.97-2.16 2.16 0 1.19.97 2.16 2.16 2.16 1.19 0 2.16-.97 2.16-2.16 0-1.19-.97-2.16-2.16-2.16zm0 3.38c-.67 0-1.22-.55-1.22-1.22 0-.67.55-1.22 1.22-1.22.67 0 1.22.55 1.22 1.22 0 .67-.55 1.22-1.22 1.22zm97.92-297.34c-1.19 0-2.16.97-2.16 2.16 0 1.19.97 2.16 2.16 2.16 1.19 0 2.16-.97 2.16-2.16 0-1.19-.97-2.16-2.16-2.16zm0 3.38c-.67 0-1.22-.55-1.22-1.22 0-.67.55-1.22 1.22-1.22.67 0 1.22.55 1.22 1.22 0 .67-.54 1.22-1.22 1.22zm0 192.47c-1.19 0-2.16.97-2.16 2.16 0 1.19.97 2.16 2.16 2.16 1.19 0 2.16-.97 2.16-2.16 0-1.19-.97-2.16-2.16-2.16zm0 3.38c-.67 0-1.22-.55-1.22-1.22 0-.67.55-1.22 1.22-1.22.67 0 1.22.55 1.22 1.22 0 .67-.54 1.22-1.22 1.22zm0 192.84c-1.19 0-2.16.97-2.16 2.16 0 1.19.97 2.16 2.16 2.16 1.19 0 2.16-.97 2.16-2.16 0-1.19-.97-2.16-2.16-2.16zm0 3.38c-.67 0-1.22-.55-1.22-1.22 0-.67.55-1.22 1.22-1.22.67 0 1.22.55 1.22 1.22 0 .67-.54 1.22-1.22 1.22zm0 94.31c-1.19 0-2.16.97-2.16 2.16 0 1.19.97 2.16 2.16 2.16 1.19 0 2.16-.97 2.16-2.16 0-1.19-.97-2.16-2.16-2.16zm0 3.38c-.67 0-1.22-.55-1.22-1.22 0-.67.55-1.22 1.22-1.22.67 0 1.22.55 1.22 1.22 0 .67-.54 1.22-1.22 1.22zm0-199.18c-1.19 0-2.16.97-2.16 2.16 0 1.19.97 2.16 2.16 2.16 1.19 0 2.16-.97 2.16-2.16 0-1.19-.97-2.16-2.16-2.16zm0 3.38c-.67 0-1.22-.55-1.22-1.22 0-.67.55-1.22 1.22-1.22.67 0 1.22.55 1.22 1.22 0 .67-.54 1.22-1.22 1.22zm97.93-293.11c1.19 0 2.16-.97 2.16-2.16 0-1.19-.97-2.16-2.16-2.16-1.19 0-2.16.97-2.16 2.16 0 1.19.97 2.16 2.16 2.16zm0-3.37c.67 0 1.22.55 1.22 1.22 0 .67-.55 1.22-1.22 1.22-.67 0-1.22-.55-1.22-1.22 0-.67.54-1.22 1.22-1.22zM-6.84 539.88c-1.19 0-2.16.97-2.16 2.16 0 1.19.97 2.16 2.16 2.16 1.19 0 2.16-.97 2.16-2.16-.01-1.19-.98-2.16-2.16-2.16zm0 3.38c-.67 0-1.22-.55-1.22-1.22 0-.67.55-1.22 1.22-1.22.67 0 1.22.55 1.22 1.22 0 .67-.55 1.22-1.22 1.22zm97.92-3.38c-1.19 0-2.16.97-2.16 2.16 0 1.19.97 2.16 2.16 2.16 1.19 0 2.16-.97 2.16-2.16a2.17 2.17 0 00-2.16-2.16zm0 3.38c-.67 0-1.22-.55-1.22-1.22 0-.67.55-1.22 1.22-1.22.67 0 1.22.55 1.22 1.22 0 .67-.55 1.22-1.22 1.22zm48.96-3.38c-1.19 0-2.16.97-2.16 2.16 0 1.19.97 2.16 2.16 2.16 1.19 0 2.16-.97 2.16-2.16a2.17 2.17 0 00-2.16-2.16zm0 3.38c-.67 0-1.22-.55-1.22-1.22 0-.67.55-1.22 1.22-1.22.67 0 1.22.55 1.22 1.22 0 .67-.55 1.22-1.22 1.22zm97.92-3.38c-1.19 0-2.16.97-2.16 2.16 0 1.19.97 2.16 2.16 2.16 1.19 0 2.16-.97 2.16-2.16 0-1.19-.97-2.16-2.16-2.16zm0 3.38c-.67 0-1.22-.55-1.22-1.22 0-.67.55-1.22 1.22-1.22.67 0 1.22.55 1.22 1.22 0 .67-.55 1.22-1.22 1.22zm97.92-3.38c-1.19 0-2.16.97-2.16 2.16 0 1.19.97 2.16 2.16 2.16 1.19 0 2.16-.97 2.16-2.16 0-1.19-.97-2.16-2.16-2.16zm0 3.38c-.67 0-1.22-.55-1.22-1.22 0-.67.55-1.22 1.22-1.22.67 0 1.22.55 1.22 1.22 0 .67-.54 1.22-1.22 1.22zm97.92-3.38c-1.19 0-2.16.97-2.16 2.16 0 1.19.97 2.16 2.16 2.16 1.19 0 2.16-.97 2.16-2.16 0-1.19-.97-2.16-2.16-2.16zm0 3.38c-.67 0-1.22-.55-1.22-1.22 0-.67.55-1.22 1.22-1.22.67 0 1.22.55 1.22 1.22 0 .67-.54 1.22-1.22 1.22zm-244.8-3.3c-1.19 0-2.16.97-2.16 2.16 0 1.19.97 2.16 2.16 2.16 1.19 0 2.16-.97 2.16-2.16 0-1.19-.97-2.16-2.16-2.16zm0 3.38c-.67 0-1.22-.55-1.22-1.22 0-.67.55-1.22 1.22-1.22.67 0 1.22.55 1.22 1.22 0 .67-.55 1.22-1.22 1.22zm-146.88-3.38c-1.19 0-2.16.97-2.16 2.16 0 1.19.97 2.16 2.16 2.16 1.19 0 2.16-.97 2.16-2.16 0-1.19-.97-2.16-2.16-2.16zm0 3.38c-.67 0-1.22-.55-1.22-1.22 0-.67.55-1.22 1.22-1.22.67 0 1.22.55 1.22 1.22 0 .67-.55 1.22-1.22 1.22zm244.8-3.38c-1.19 0-2.16.97-2.16 2.16 0 1.19.97 2.16 2.16 2.16 1.19 0 2.16-.97 2.16-2.16 0-1.19-.97-2.16-2.16-2.16zm0 3.38c-.67 0-1.22-.55-1.22-1.22 0-.67.55-1.22 1.22-1.22.67 0 1.22.55 1.22 1.22 0 .67-.55 1.22-1.22 1.22zm97.92-3.38c-1.19 0-2.16.97-2.16 2.16 0 1.19.97 2.16 2.16 2.16 1.19 0 2.16-.97 2.16-2.16 0-1.19-.97-2.16-2.16-2.16zm0 3.38c-.67 0-1.22-.55-1.22-1.22 0-.67.55-1.22 1.22-1.22.67 0 1.22.55 1.22 1.22 0 .67-.54 1.22-1.22 1.22zm97.93-3.46c-1.19 0-2.16.97-2.16 2.16 0 1.19.97 2.16 2.16 2.16 1.19 0 2.16-.97 2.16-2.16-.01-1.19-.98-2.16-2.16-2.16zm0 3.38c-.67 0-1.22-.55-1.22-1.22 0-.67.55-1.22 1.22-1.22.67 0 1.22.55 1.22 1.22 0 .67-.55 1.22-1.22 1.22zM-6.84 491.11c-1.19 0-2.16.97-2.16 2.16 0 1.19.97 2.16 2.16 2.16 1.19 0 2.16-.97 2.16-2.16 0-1.19-.98-2.16-2.16-2.16zm0 3.38c-.67 0-1.22-.55-1.22-1.22 0-.67.55-1.22 1.22-1.22.67 0 1.22.55 1.22 1.22 0 .67-.55 1.22-1.22 1.22zm97.92-3.38c-1.19 0-2.16.97-2.16 2.16 0 1.19.97 2.16 2.16 2.16 1.19 0 2.16-.97 2.16-2.16 0-1.19-.97-2.16-2.16-2.16zm0 3.38c-.67 0-1.22-.55-1.22-1.22 0-.67.55-1.22 1.22-1.22.67 0 1.22.55 1.22 1.22 0 .67-.55 1.22-1.22 1.22zm48.96-3.38c-1.19 0-2.16.97-2.16 2.16 0 1.19.97 2.16 2.16 2.16 1.19 0 2.16-.97 2.16-2.16 0-1.19-.97-2.16-2.16-2.16zm0 3.38c-.67 0-1.22-.55-1.22-1.22 0-.67.55-1.22 1.22-1.22.67 0 1.22.55 1.22 1.22 0 .67-.55 1.22-1.22 1.22zm97.92-3.38c-1.19 0-2.16.97-2.16 2.16 0 1.19.97 2.16 2.16 2.16 1.19 0 2.16-.97 2.16-2.16 0-1.19-.97-2.16-2.16-2.16zm0 3.38c-.67 0-1.22-.55-1.22-1.22 0-.67.55-1.22 1.22-1.22.67 0 1.22.55 1.22 1.22 0 .67-.55 1.22-1.22 1.22zm97.92-3.38c-1.19 0-2.16.97-2.16 2.16 0 1.19.97 2.16 2.16 2.16 1.19 0 2.16-.97 2.16-2.16 0-1.19-.97-2.16-2.16-2.16zm0 3.38c-.67 0-1.22-.55-1.22-1.22 0-.67.55-1.22 1.22-1.22.67 0 1.22.55 1.22 1.22 0 .67-.54 1.22-1.22 1.22zm97.92-3.38c-1.19 0-2.16.97-2.16 2.16 0 1.19.97 2.16 2.16 2.16 1.19 0 2.16-.97 2.16-2.16 0-1.19-.97-2.16-2.16-2.16zm0 3.38c-.67 0-1.22-.55-1.22-1.22 0-.67.55-1.22 1.22-1.22.67 0 1.22.55 1.22 1.22 0 .67-.54 1.22-1.22 1.22zm-244.8-3.3c-1.19 0-2.16.97-2.16 2.16 0 1.19.97 2.16 2.16 2.16 1.19 0 2.16-.97 2.16-2.16 0-1.19-.97-2.16-2.16-2.16zm0 3.38c-.67 0-1.22-.55-1.22-1.22 0-.67.55-1.22 1.22-1.22.67 0 1.22.55 1.22 1.22 0 .67-.55 1.22-1.22 1.22zm-146.88-3.38c-1.19 0-2.16.97-2.16 2.16 0 1.19.97 2.16 2.16 2.16 1.19 0 2.16-.97 2.16-2.16 0-1.19-.97-2.16-2.16-2.16zm0 3.38c-.67 0-1.22-.55-1.22-1.22 0-.67.55-1.22 1.22-1.22.67 0 1.22.55 1.22 1.22 0 .67-.55 1.22-1.22 1.22zm244.8-3.38c-1.19 0-2.16.97-2.16 2.16 0 1.19.97 2.16 2.16 2.16 1.19 0 2.16-.97 2.16-2.16 0-1.19-.97-2.16-2.16-2.16zm0 3.38c-.67 0-1.22-.55-1.22-1.22 0-.67.55-1.22 1.22-1.22.67 0 1.22.55 1.22 1.22 0 .67-.55 1.22-1.22 1.22zm97.92-3.38c-1.19 0-2.16.97-2.16 2.16 0 1.19.97 2.16 2.16 2.16 1.19 0 2.16-.97 2.16-2.16 0-1.19-.97-2.16-2.16-2.16zm0 3.38c-.67 0-1.22-.55-1.22-1.22 0-.67.55-1.22 1.22-1.22.67 0 1.22.55 1.22 1.22 0 .67-.54 1.22-1.22 1.22zm97.93-3.46c-1.19 0-2.16.97-2.16 2.16 0 1.19.97 2.16 2.16 2.16 1.19 0 2.16-.97 2.16-2.16 0-1.19-.98-2.16-2.16-2.16zm0 3.38c-.67 0-1.22-.55-1.22-1.22 0-.67.55-1.22 1.22-1.22.67 0 1.22.55 1.22 1.22 0 .67-.55 1.22-1.22 1.22zm0 143.35c-1.19 0-2.16.97-2.16 2.16 0 1.19.97 2.16 2.16 2.16 1.19 0 2.16-.97 2.16-2.16-.01-1.19-.98-2.16-2.16-2.16zm0 3.38c-.67 0-1.22-.55-1.22-1.22 0-.67.55-1.22 1.22-1.22.67 0 1.22.55 1.22 1.22 0 .67-.55 1.22-1.22 1.22zm0 192.85c-1.19 0-2.16.97-2.16 2.16 0 1.19.97 2.16 2.16 2.16 1.19 0 2.16-.97 2.16-2.16 0-1.19-.98-2.16-2.16-2.16zm0 3.38c-.67 0-1.22-.55-1.22-1.22 0-.67.55-1.22 1.22-1.22.67 0 1.22.55 1.22 1.22 0 .67-.55 1.22-1.22 1.22zm0 94.31c-1.19 0-2.16.97-2.16 2.16 0 1.19.97 2.16 2.16 2.16 1.19 0 2.16-.97 2.16-2.16-.01-1.19-.98-2.16-2.16-2.16zm0 3.38c-.67 0-1.22-.55-1.22-1.22 0-.67.55-1.22 1.22-1.22.67 0 1.22.55 1.22 1.22 0 .67-.55 1.22-1.22 1.22zm0-199.18c-1.19 0-2.16.97-2.16 2.16 0 1.19.97 2.16 2.16 2.16 1.19 0 2.16-.97 2.16-2.16a2.17 2.17 0 00-2.16-2.16zm0 3.37c-.67 0-1.22-.55-1.22-1.22 0-.67.55-1.22 1.22-1.22.67 0 1.22.55 1.22 1.22 0 .67-.55 1.22-1.22 1.22zM-6.84 588.84c-1.19 0-2.16.97-2.16 2.16 0 1.19.97 2.16 2.16 2.16 1.19 0 2.16-.97 2.16-2.16-.01-1.19-.98-2.16-2.16-2.16zm0 3.38c-.67 0-1.22-.55-1.22-1.22 0-.67.55-1.22 1.22-1.22.67 0 1.22.55 1.22 1.22 0 .67-.55 1.22-1.22 1.22zm97.92-3.38c-1.19 0-2.16.97-2.16 2.16 0 1.19.97 2.16 2.16 2.16 1.19 0 2.16-.97 2.16-2.16a2.17 2.17 0 00-2.16-2.16zm0 3.38c-.67 0-1.22-.55-1.22-1.22 0-.67.55-1.22 1.22-1.22.67 0 1.22.55 1.22 1.22 0 .67-.55 1.22-1.22 1.22zm48.96-3.38c-1.19 0-2.16.97-2.16 2.16 0 1.19.97 2.16 2.16 2.16 1.19 0 2.16-.97 2.16-2.16a2.17 2.17 0 00-2.16-2.16zm0 3.38c-.67 0-1.22-.55-1.22-1.22 0-.67.55-1.22 1.22-1.22.67 0 1.22.55 1.22 1.22 0 .67-.55 1.22-1.22 1.22zm97.92-3.38c-1.19 0-2.16.97-2.16 2.16 0 1.19.97 2.16 2.16 2.16 1.19 0 2.16-.97 2.16-2.16 0-1.19-.97-2.16-2.16-2.16zm0 3.38c-.67 0-1.22-.55-1.22-1.22 0-.67.55-1.22 1.22-1.22.67 0 1.22.55 1.22 1.22 0 .67-.55 1.22-1.22 1.22zm97.92-3.38c-1.19 0-2.16.97-2.16 2.16 0 1.19.97 2.16 2.16 2.16 1.19 0 2.16-.97 2.16-2.16 0-1.19-.97-2.16-2.16-2.16zm0 3.38c-.67 0-1.22-.55-1.22-1.22 0-.67.55-1.22 1.22-1.22.67 0 1.22.55 1.22 1.22 0 .67-.54 1.22-1.22 1.22zm97.92-3.38c-1.19 0-2.16.97-2.16 2.16 0 1.19.97 2.16 2.16 2.16 1.19 0 2.16-.97 2.16-2.16 0-1.19-.97-2.16-2.16-2.16zm0 3.38c-.67 0-1.22-.55-1.22-1.22 0-.67.55-1.22 1.22-1.22.67 0 1.22.55 1.22 1.22 0 .67-.54 1.22-1.22 1.22zm-244.8-3.3c-1.19 0-2.16.97-2.16 2.16 0 1.19.97 2.16 2.16 2.16 1.19 0 2.16-.97 2.16-2.16 0-1.19-.97-2.16-2.16-2.16zm0 3.38c-.67 0-1.22-.55-1.22-1.22 0-.67.55-1.22 1.22-1.22.67 0 1.22.55 1.22 1.22 0 .67-.55 1.22-1.22 1.22zm-146.88-3.38c-1.19 0-2.16.97-2.16 2.16 0 1.19.97 2.16 2.16 2.16 1.19 0 2.16-.97 2.16-2.16 0-1.19-.97-2.16-2.16-2.16zm0 3.38c-.67 0-1.22-.55-1.22-1.22 0-.67.55-1.22 1.22-1.22.67 0 1.22.55 1.22 1.22 0 .67-.55 1.22-1.22 1.22zm244.8-3.38c-1.19 0-2.16.97-2.16 2.16 0 1.19.97 2.16 2.16 2.16 1.19 0 2.16-.97 2.16-2.16 0-1.19-.97-2.16-2.16-2.16zm0 3.38c-.67 0-1.22-.55-1.22-1.22 0-.67.55-1.22 1.22-1.22.67 0 1.22.55 1.22 1.22 0 .67-.55 1.22-1.22 1.22zm97.92-3.38c-1.19 0-2.16.97-2.16 2.16 0 1.19.97 2.16 2.16 2.16 1.19 0 2.16-.97 2.16-2.16 0-1.19-.97-2.16-2.16-2.16zm0 3.38c-.67 0-1.22-.55-1.22-1.22 0-.67.55-1.22 1.22-1.22.67 0 1.22.55 1.22 1.22 0 .67-.54 1.22-1.22 1.22zm97.93-3.46c-1.19 0-2.16.97-2.16 2.16 0 1.19.97 2.16 2.16 2.16 1.19 0 2.16-.97 2.16-2.16-.01-1.19-.98-2.16-2.16-2.16zm0 3.38c-.67 0-1.22-.55-1.22-1.22 0-.67.55-1.22 1.22-1.22.67 0 1.22.55 1.22 1.22 0 .67-.55 1.22-1.22 1.22zM-6.84 686.57c-1.19 0-2.16.97-2.16 2.16 0 1.19.97 2.16 2.16 2.16 1.19 0 2.16-.97 2.16-2.16-.01-1.19-.98-2.16-2.16-2.16zm0 3.38c-.67 0-1.22-.55-1.22-1.22 0-.67.55-1.22 1.22-1.22.67 0 1.22.55 1.22 1.22 0 .67-.55 1.22-1.22 1.22zm97.92-3.38c-1.19 0-2.16.97-2.16 2.16 0 1.19.97 2.16 2.16 2.16 1.19 0 2.16-.97 2.16-2.16a2.17 2.17 0 00-2.16-2.16zm0 3.38c-.67 0-1.22-.55-1.22-1.22 0-.67.55-1.22 1.22-1.22.67 0 1.22.55 1.22 1.22 0 .67-.55 1.22-1.22 1.22zm48.96-3.38c-1.19 0-2.16.97-2.16 2.16 0 1.19.97 2.16 2.16 2.16 1.19 0 2.16-.97 2.16-2.16a2.17 2.17 0 00-2.16-2.16zm0 3.38c-.67 0-1.22-.55-1.22-1.22 0-.67.55-1.22 1.22-1.22.67 0 1.22.55 1.22 1.22 0 .67-.55 1.22-1.22 1.22zm97.92-3.38c-1.19 0-2.16.97-2.16 2.16 0 1.19.97 2.16 2.16 2.16 1.19 0 2.16-.97 2.16-2.16 0-1.19-.97-2.16-2.16-2.16zm0 3.38c-.67 0-1.22-.55-1.22-1.22 0-.67.55-1.22 1.22-1.22.67 0 1.22.55 1.22 1.22 0 .67-.55 1.22-1.22 1.22zm97.92-3.38c-1.19 0-2.16.97-2.16 2.16 0 1.19.97 2.16 2.16 2.16 1.19 0 2.16-.97 2.16-2.16 0-1.19-.97-2.16-2.16-2.16zm0 3.38c-.67 0-1.22-.55-1.22-1.22 0-.67.55-1.22 1.22-1.22.67 0 1.22.55 1.22 1.22 0 .67-.54 1.22-1.22 1.22zm97.92-3.38c-1.19 0-2.16.97-2.16 2.16 0 1.19.97 2.16 2.16 2.16 1.19 0 2.16-.97 2.16-2.16 0-1.19-.97-2.16-2.16-2.16zm0 3.38c-.67 0-1.22-.55-1.22-1.22 0-.67.55-1.22 1.22-1.22.67 0 1.22.55 1.22 1.22 0 .67-.54 1.22-1.22 1.22zM189 686.66c-1.19 0-2.16.97-2.16 2.16 0 1.19.97 2.16 2.16 2.16 1.19 0 2.16-.97 2.16-2.16 0-1.19-.97-2.16-2.16-2.16zm0 3.37c-.67 0-1.22-.55-1.22-1.22 0-.67.55-1.22 1.22-1.22.67 0 1.22.55 1.22 1.22 0 .67-.55 1.22-1.22 1.22zm-146.88-3.37c-1.19 0-2.16.97-2.16 2.16 0 1.19.97 2.16 2.16 2.16 1.19 0 2.16-.97 2.16-2.16 0-1.19-.97-2.16-2.16-2.16zm0 3.37c-.67 0-1.22-.55-1.22-1.22 0-.67.55-1.22 1.22-1.22.67 0 1.22.55 1.22 1.22 0 .67-.55 1.22-1.22 1.22zm244.8-3.37c-1.19 0-2.16.97-2.16 2.16 0 1.19.97 2.16 2.16 2.16 1.19 0 2.16-.97 2.16-2.16 0-1.19-.97-2.16-2.16-2.16zm0 3.37c-.67 0-1.22-.55-1.22-1.22 0-.67.55-1.22 1.22-1.22.67 0 1.22.55 1.22 1.22 0 .67-.55 1.22-1.22 1.22zm97.92-3.37c-1.19 0-2.16.97-2.16 2.16 0 1.19.97 2.16 2.16 2.16 1.19 0 2.16-.97 2.16-2.16 0-1.19-.97-2.16-2.16-2.16zm0 3.37c-.67 0-1.22-.55-1.22-1.22 0-.67.55-1.22 1.22-1.22.67 0 1.22.55 1.22 1.22 0 .67-.54 1.22-1.22 1.22zm97.93-3.46c-1.19 0-2.16.97-2.16 2.16 0 1.19.97 2.16 2.16 2.16 1.19 0 2.16-.97 2.16-2.16-.01-1.19-.98-2.16-2.16-2.16zm0 3.38c-.67 0-1.22-.55-1.22-1.22 0-.67.55-1.22 1.22-1.22.67 0 1.22.55 1.22 1.22 0 .67-.55 1.22-1.22 1.22zM-6.84 784.92c-1.19 0-2.16.97-2.16 2.16 0 1.19.97 2.16 2.16 2.16 1.19 0 2.16-.97 2.16-2.16a2.17 2.17 0 00-2.16-2.16zm0 3.38c-.67 0-1.22-.55-1.22-1.22 0-.67.55-1.22 1.22-1.22.67 0 1.22.55 1.22 1.22 0 .67-.55 1.22-1.22 1.22zm97.92-3.38c-1.19 0-2.16.97-2.16 2.16 0 1.19.97 2.16 2.16 2.16 1.19 0 2.16-.97 2.16-2.16-.01-1.2-.97-2.16-2.16-2.16zm0 3.38c-.67 0-1.22-.55-1.22-1.22 0-.67.55-1.22 1.22-1.22.67 0 1.22.55 1.22 1.22 0 .67-.55 1.22-1.22 1.22zm48.96-3.38c-1.19 0-2.16.97-2.16 2.16 0 1.19.97 2.16 2.16 2.16 1.19 0 2.16-.97 2.16-2.16-.01-1.2-.97-2.16-2.16-2.16zm0 3.38c-.67 0-1.22-.55-1.22-1.22 0-.67.55-1.22 1.22-1.22.67 0 1.22.55 1.22 1.22 0 .67-.55 1.22-1.22 1.22zm97.92-3.38c-1.19 0-2.16.97-2.16 2.16 0 1.19.97 2.16 2.16 2.16 1.19 0 2.16-.97 2.16-2.16 0-1.2-.97-2.16-2.16-2.16zm0 3.38c-.67 0-1.22-.55-1.22-1.22 0-.67.55-1.22 1.22-1.22.67 0 1.22.55 1.22 1.22 0 .67-.55 1.22-1.22 1.22zm97.92-3.38c-1.19 0-2.16.97-2.16 2.16 0 1.19.97 2.16 2.16 2.16 1.19 0 2.16-.97 2.16-2.16 0-1.2-.97-2.16-2.16-2.16zm0 3.38c-.67 0-1.22-.55-1.22-1.22 0-.67.55-1.22 1.22-1.22.67 0 1.22.55 1.22 1.22 0 .67-.54 1.22-1.22 1.22zm97.92-3.38c-1.19 0-2.16.97-2.16 2.16 0 1.19.97 2.16 2.16 2.16 1.19 0 2.16-.97 2.16-2.16 0-1.2-.97-2.16-2.16-2.16zm0 3.38c-.67 0-1.22-.55-1.22-1.22 0-.67.55-1.22 1.22-1.22.67 0 1.22.55 1.22 1.22 0 .67-.54 1.22-1.22 1.22zM189 785c-1.19 0-2.16.97-2.16 2.16 0 1.19.97 2.16 2.16 2.16 1.19 0 2.16-.97 2.16-2.16 0-1.19-.97-2.16-2.16-2.16zm0 3.38c-.67 0-1.22-.55-1.22-1.22 0-.67.55-1.22 1.22-1.22.67 0 1.22.55 1.22 1.22 0 .67-.55 1.22-1.22 1.22zM42.12 785c-1.19 0-2.16.97-2.16 2.16 0 1.19.97 2.16 2.16 2.16 1.19 0 2.16-.97 2.16-2.16a2.17 2.17 0 00-2.16-2.16zm0 3.38c-.67 0-1.22-.55-1.22-1.22 0-.67.55-1.22 1.22-1.22.67 0 1.22.55 1.22 1.22 0 .67-.55 1.22-1.22 1.22zm244.8-3.38c-1.19 0-2.16.97-2.16 2.16 0 1.19.97 2.16 2.16 2.16 1.19 0 2.16-.97 2.16-2.16 0-1.19-.97-2.16-2.16-2.16zm0 3.38c-.67 0-1.22-.55-1.22-1.22 0-.67.55-1.22 1.22-1.22.67 0 1.22.55 1.22 1.22 0 .67-.55 1.22-1.22 1.22zm97.92-3.38c-1.19 0-2.16.97-2.16 2.16 0 1.19.97 2.16 2.16 2.16 1.19 0 2.16-.97 2.16-2.16 0-1.19-.97-2.16-2.16-2.16zm0 3.38c-.67 0-1.22-.55-1.22-1.22 0-.67.55-1.22 1.22-1.22.67 0 1.22.55 1.22 1.22 0 .67-.54 1.22-1.22 1.22zm97.93-3.46c-1.19 0-2.16.97-2.16 2.16 0 1.19.97 2.16 2.16 2.16 1.19 0 2.16-.97 2.16-2.16a2.17 2.17 0 00-2.16-2.16zm0 3.38c-.67 0-1.22-.55-1.22-1.22 0-.67.55-1.22 1.22-1.22.67 0 1.22.55 1.22 1.22 0 .67-.55 1.22-1.22 1.22zM-6.84 883.26c-1.19 0-2.16.97-2.16 2.16 0 1.19.97 2.16 2.16 2.16 1.19 0 2.16-.97 2.16-2.16-.01-1.19-.98-2.16-2.16-2.16zm0 3.38c-.67 0-1.22-.55-1.22-1.22 0-.67.55-1.22 1.22-1.22.67 0 1.22.55 1.22 1.22 0 .67-.55 1.22-1.22 1.22zm97.92-3.38c-1.19 0-2.16.97-2.16 2.16 0 1.19.97 2.16 2.16 2.16 1.19 0 2.16-.97 2.16-2.16a2.17 2.17 0 00-2.16-2.16zm0 3.38c-.67 0-1.22-.55-1.22-1.22 0-.67.55-1.22 1.22-1.22.67 0 1.22.55 1.22 1.22 0 .67-.55 1.22-1.22 1.22zm48.96-3.38c-1.19 0-2.16.97-2.16 2.16 0 1.19.97 2.16 2.16 2.16 1.19 0 2.16-.97 2.16-2.16a2.17 2.17 0 00-2.16-2.16zm0 3.38c-.67 0-1.22-.55-1.22-1.22 0-.67.55-1.22 1.22-1.22.67 0 1.22.55 1.22 1.22 0 .67-.55 1.22-1.22 1.22zm97.92-3.38c-1.19 0-2.16.97-2.16 2.16 0 1.19.97 2.16 2.16 2.16 1.19 0 2.16-.97 2.16-2.16 0-1.19-.97-2.16-2.16-2.16zm0 3.38c-.67 0-1.22-.55-1.22-1.22 0-.67.55-1.22 1.22-1.22.67 0 1.22.55 1.22 1.22 0 .67-.55 1.22-1.22 1.22zm97.92-3.38c-1.19 0-2.16.97-2.16 2.16 0 1.19.97 2.16 2.16 2.16 1.19 0 2.16-.97 2.16-2.16 0-1.19-.97-2.16-2.16-2.16zm0 3.38c-.67 0-1.22-.55-1.22-1.22 0-.67.55-1.22 1.22-1.22.67 0 1.22.55 1.22 1.22 0 .67-.54 1.22-1.22 1.22zm97.92-3.38c-1.19 0-2.16.97-2.16 2.16 0 1.19.97 2.16 2.16 2.16 1.19 0 2.16-.97 2.16-2.16 0-1.19-.97-2.16-2.16-2.16zm0 3.38c-.67 0-1.22-.55-1.22-1.22 0-.67.55-1.22 1.22-1.22.67 0 1.22.55 1.22 1.22 0 .67-.54 1.22-1.22 1.22zM189 883.35c-1.19 0-2.16.97-2.16 2.16 0 1.19.97 2.16 2.16 2.16 1.19 0 2.16-.97 2.16-2.16 0-1.19-.97-2.16-2.16-2.16zm0 3.38c-.67 0-1.22-.55-1.22-1.22 0-.67.55-1.22 1.22-1.22.67 0 1.22.55 1.22 1.22 0 .67-.55 1.22-1.22 1.22zm-146.88-3.38c-1.19 0-2.16.97-2.16 2.16 0 1.19.97 2.16 2.16 2.16 1.19 0 2.16-.97 2.16-2.16 0-1.19-.97-2.16-2.16-2.16zm0 3.38c-.67 0-1.22-.55-1.22-1.22 0-.67.55-1.22 1.22-1.22.67 0 1.22.55 1.22 1.22 0 .67-.55 1.22-1.22 1.22zm244.8-3.38c-1.19 0-2.16.97-2.16 2.16 0 1.19.97 2.16 2.16 2.16 1.19 0 2.16-.97 2.16-2.16 0-1.19-.97-2.16-2.16-2.16zm0 3.38c-.67 0-1.22-.55-1.22-1.22 0-.67.55-1.22 1.22-1.22.67 0 1.22.55 1.22 1.22 0 .67-.55 1.22-1.22 1.22zm97.92-3.38c-1.19 0-2.16.97-2.16 2.16 0 1.19.97 2.16 2.16 2.16 1.19 0 2.16-.97 2.16-2.16 0-1.19-.97-2.16-2.16-2.16zm0 3.38c-.67 0-1.22-.55-1.22-1.22 0-.67.55-1.22 1.22-1.22.67 0 1.22.55 1.22 1.22 0 .67-.54 1.22-1.22 1.22zm97.93-3.47c-1.19 0-2.16.97-2.16 2.16 0 1.19.97 2.16 2.16 2.16 1.19 0 2.16-.97 2.16-2.16-.01-1.19-.98-2.16-2.16-2.16zm0 3.38c-.67 0-1.22-.55-1.22-1.22 0-.67.55-1.22 1.22-1.22.67 0 1.22.55 1.22 1.22 0 .67-.55 1.22-1.22 1.22z" fill="url(#paint0_linear)"/><path d="M-6.84 1C-8.03 1-9 1.97-9 3.16c0 1.19.97 2.16 2.16 2.16 1.19 0 2.16-.97 2.16-2.16C-4.69 1.97-5.66 1-6.84 1zm0 3.38c-.67 0-1.22-.55-1.22-1.22 0-.67.55-1.22 1.22-1.22.67 0 1.22.55 1.22 1.22 0 .67-.55 1.22-1.22 1.22zm0 192.46c-1.19 0-2.16.97-2.16 2.16 0 1.19.97 2.16 2.16 2.16 1.19 0 2.16-.97 2.16-2.16-.01-1.19-.98-2.16-2.16-2.16zm0 3.38c-.67 0-1.22-.55-1.22-1.22 0-.67.55-1.22 1.22-1.22.67 0 1.22.55 1.22 1.22 0 .67-.55 1.22-1.22 1.22zm0 192.85c-1.19 0-2.16.97-2.16 2.16 0 1.19.97 2.16 2.16 2.16 1.19 0 2.16-.97 2.16-2.16 0-1.19-.98-2.16-2.16-2.16zm0 3.38a1.225 1.225 0 010-2.45c.68 0 1.22.55 1.22 1.22 0 .67-.55 1.23-1.22 1.23zm0 94.31c-1.19 0-2.16.97-2.16 2.16 0 1.19.97 2.16 2.16 2.16 1.19 0 2.16-.97 2.16-2.16-.01-1.19-.98-2.16-2.16-2.16zm0 3.38c-.67 0-1.22-.55-1.22-1.22 0-.67.55-1.22 1.22-1.22.67 0 1.22.55 1.22 1.22 0 .67-.55 1.22-1.22 1.22zm0-199.18c-1.19 0-2.16.97-2.16 2.16 0 1.19.97 2.16 2.16 2.16 1.19 0 2.16-.97 2.16-2.16a2.17 2.17 0 00-2.16-2.16zm0 3.37c-.67 0-1.22-.55-1.22-1.22 0-.67.55-1.22 1.22-1.22.67 0 1.22.55 1.22 1.22 0 .67-.55 1.22-1.22 1.22zM91.08 1c-1.19 0-2.16.97-2.16 2.16 0 1.19.97 2.16 2.16 2.16 1.19 0 2.16-.97 2.16-2.16A2.17 2.17 0 0091.08 1zm0 3.38c-.67 0-1.22-.55-1.22-1.22 0-.67.55-1.22 1.22-1.22.67 0 1.22.55 1.22 1.22 0 .67-.55 1.22-1.22 1.22zm0 192.46c-1.19 0-2.16.97-2.16 2.16 0 1.19.97 2.16 2.16 2.16 1.19 0 2.16-.97 2.16-2.16a2.17 2.17 0 00-2.16-2.16zm0 3.38c-.67 0-1.22-.55-1.22-1.22 0-.67.55-1.22 1.22-1.22.67 0 1.22.55 1.22 1.22 0 .67-.55 1.22-1.22 1.22zm0 192.85c-1.19 0-2.16.97-2.16 2.16 0 1.19.97 2.16 2.16 2.16 1.19 0 2.16-.97 2.16-2.16 0-1.19-.97-2.16-2.16-2.16zm0 3.38c-.67 0-1.22-.55-1.22-1.22 0-.67.55-1.22 1.22-1.22.67 0 1.22.55 1.22 1.22 0 .67-.55 1.22-1.22 1.22zm0 94.31c-1.19 0-2.16.97-2.16 2.16 0 1.19.97 2.16 2.16 2.16 1.19 0 2.16-.97 2.16-2.16a2.17 2.17 0 00-2.16-2.16zm0 3.38c-.67 0-1.22-.55-1.22-1.22 0-.67.55-1.22 1.22-1.22.67 0 1.22.55 1.22 1.22 0 .67-.55 1.22-1.22 1.22zm0-199.18c-1.19 0-2.16.97-2.16 2.16 0 1.19.97 2.16 2.16 2.16 1.19 0 2.16-.97 2.16-2.16-.01-1.2-.97-2.16-2.16-2.16zm0 3.37c-.67 0-1.22-.55-1.22-1.22 0-.67.55-1.22 1.22-1.22.67 0 1.22.55 1.22 1.22 0 .67-.55 1.22-1.22 1.22zM140.04 1c-1.19 0-2.16.97-2.16 2.16 0 1.19.97 2.16 2.16 2.16 1.19 0 2.16-.97 2.16-2.16A2.17 2.17 0 00140.04 1zm0 3.38c-.67 0-1.22-.55-1.22-1.22 0-.67.55-1.22 1.22-1.22.67 0 1.22.55 1.22 1.22 0 .67-.55 1.22-1.22 1.22zm0 192.46c-1.19 0-2.16.97-2.16 2.16 0 1.19.97 2.16 2.16 2.16 1.19 0 2.16-.97 2.16-2.16a2.17 2.17 0 00-2.16-2.16zm0 3.38c-.67 0-1.22-.55-1.22-1.22 0-.67.55-1.22 1.22-1.22.67 0 1.22.55 1.22 1.22 0 .67-.55 1.22-1.22 1.22zm0 192.85c-1.19 0-2.16.97-2.16 2.16 0 1.19.97 2.16 2.16 2.16 1.19 0 2.16-.97 2.16-2.16 0-1.19-.97-2.16-2.16-2.16zm0 3.38c-.67 0-1.22-.55-1.22-1.22 0-.67.55-1.22 1.22-1.22.67 0 1.22.55 1.22 1.22 0 .67-.55 1.22-1.22 1.22zm0 94.31c-1.19 0-2.16.97-2.16 2.16 0 1.19.97 2.16 2.16 2.16 1.19 0 2.16-.97 2.16-2.16a2.17 2.17 0 00-2.16-2.16zm0 3.38c-.67 0-1.22-.55-1.22-1.22 0-.67.55-1.22 1.22-1.22.67 0 1.22.55 1.22 1.22 0 .67-.55 1.22-1.22 1.22zm0-199.18c-1.19 0-2.16.97-2.16 2.16 0 1.19.97 2.16 2.16 2.16 1.19 0 2.16-.97 2.16-2.16-.01-1.2-.97-2.16-2.16-2.16zm0 3.37c-.67 0-1.22-.55-1.22-1.22 0-.67.55-1.22 1.22-1.22.67 0 1.22.55 1.22 1.22 0 .67-.55 1.22-1.22 1.22zM237.96 1c-1.19 0-2.16.97-2.16 2.16 0 1.19.97 2.16 2.16 2.16 1.19 0 2.16-.97 2.16-2.16 0-1.19-.97-2.16-2.16-2.16zm0 3.38c-.67 0-1.22-.55-1.22-1.22 0-.67.55-1.22 1.22-1.22.67 0 1.22.55 1.22 1.22 0 .67-.55 1.22-1.22 1.22zm0 192.46c-1.19 0-2.16.97-2.16 2.16 0 1.19.97 2.16 2.16 2.16 1.19 0 2.16-.97 2.16-2.16 0-1.19-.97-2.16-2.16-2.16zm0 3.38c-.67 0-1.22-.55-1.22-1.22 0-.67.55-1.22 1.22-1.22.67 0 1.22.55 1.22 1.22 0 .67-.55 1.22-1.22 1.22zm0 192.85c-1.19 0-2.16.97-2.16 2.16 0 1.19.97 2.16 2.16 2.16 1.19 0 2.16-.97 2.16-2.16 0-1.19-.97-2.16-2.16-2.16zm0 3.38c-.67 0-1.22-.55-1.22-1.22 0-.67.55-1.22 1.22-1.22.67 0 1.22.55 1.22 1.22 0 .67-.55 1.22-1.22 1.22zm0 94.31c-1.19 0-2.16.97-2.16 2.16 0 1.19.97 2.16 2.16 2.16 1.19 0 2.16-.97 2.16-2.16 0-1.19-.97-2.16-2.16-2.16zm0 3.38c-.67 0-1.22-.55-1.22-1.22 0-.67.55-1.22 1.22-1.22.67 0 1.22.55 1.22 1.22 0 .67-.55 1.22-1.22 1.22zm0-199.18c-1.19 0-2.16.97-2.16 2.16 0 1.19.97 2.16 2.16 2.16 1.19 0 2.16-.97 2.16-2.16 0-1.2-.97-2.16-2.16-2.16zm0 3.37c-.67 0-1.22-.55-1.22-1.22 0-.67.55-1.22 1.22-1.22.67 0 1.22.55 1.22 1.22 0 .67-.55 1.22-1.22 1.22zM335.88 1c-1.19 0-2.16.97-2.16 2.16 0 1.19.97 2.16 2.16 2.16 1.19 0 2.16-.97 2.16-2.16 0-1.19-.97-2.16-2.16-2.16zm0 3.38c-.67 0-1.22-.55-1.22-1.22 0-.67.55-1.22 1.22-1.22.67 0 1.22.55 1.22 1.22 0 .67-.54 1.22-1.22 1.22zm0 192.46c-1.19 0-2.16.97-2.16 2.16 0 1.19.97 2.16 2.16 2.16 1.19 0 2.16-.97 2.16-2.16 0-1.19-.97-2.16-2.16-2.16zm0 3.38c-.67 0-1.22-.55-1.22-1.22 0-.67.55-1.22 1.22-1.22.67 0 1.22.55 1.22 1.22 0 .67-.54 1.22-1.22 1.22zm0 192.85c-1.19 0-2.16.97-2.16 2.16 0 1.19.97 2.16 2.16 2.16 1.19 0 2.16-.97 2.16-2.16 0-1.19-.97-2.16-2.16-2.16zm0 3.38c-.67 0-1.22-.55-1.22-1.22 0-.67.55-1.22 1.22-1.22.67 0 1.22.55 1.22 1.22 0 .67-.54 1.22-1.22 1.22zm0 94.31c-1.19 0-2.16.97-2.16 2.16 0 1.19.97 2.16 2.16 2.16 1.19 0 2.16-.97 2.16-2.16 0-1.19-.97-2.16-2.16-2.16zm0 3.38c-.67 0-1.22-.55-1.22-1.22 0-.67.55-1.22 1.22-1.22.67 0 1.22.55 1.22 1.22 0 .67-.54 1.22-1.22 1.22zm0-199.18c-1.19 0-2.16.97-2.16 2.16 0 1.19.97 2.16 2.16 2.16 1.19 0 2.16-.97 2.16-2.16 0-1.2-.97-2.16-2.16-2.16zm0 3.37c-.67 0-1.22-.55-1.22-1.22 0-.67.55-1.22 1.22-1.22.67 0 1.22.55 1.22 1.22 0 .67-.54 1.22-1.22 1.22zM433.8 1c-1.19 0-2.16.97-2.16 2.16 0 1.19.97 2.16 2.16 2.16 1.19 0 2.16-.97 2.16-2.16 0-1.19-.97-2.16-2.16-2.16zm0 3.38c-.67 0-1.22-.55-1.22-1.22 0-.67.55-1.22 1.22-1.22.67 0 1.22.55 1.22 1.22 0 .67-.54 1.22-1.22 1.22zm0 192.46c-1.19 0-2.16.97-2.16 2.16 0 1.19.97 2.16 2.16 2.16 1.19 0 2.16-.97 2.16-2.16 0-1.19-.97-2.16-2.16-2.16zm0 3.38c-.67 0-1.22-.55-1.22-1.22 0-.67.55-1.22 1.22-1.22.67 0 1.22.55 1.22 1.22 0 .67-.54 1.22-1.22 1.22zm0 192.85c-1.19 0-2.16.97-2.16 2.16 0 1.19.97 2.16 2.16 2.16 1.19 0 2.16-.97 2.16-2.16 0-1.19-.97-2.16-2.16-2.16zm0 3.38c-.67 0-1.22-.55-1.22-1.22 0-.67.55-1.22 1.22-1.22.67 0 1.22.55 1.22 1.22 0 .67-.54 1.22-1.22 1.22zm0 94.31c-1.19 0-2.16.97-2.16 2.16 0 1.19.97 2.16 2.16 2.16 1.19 0 2.16-.97 2.16-2.16 0-1.19-.97-2.16-2.16-2.16zm0 3.38c-.67 0-1.22-.55-1.22-1.22 0-.67.55-1.22 1.22-1.22.67 0 1.22.55 1.22 1.22 0 .67-.54 1.22-1.22 1.22zm0-199.18c-1.19 0-2.16.97-2.16 2.16 0 1.19.97 2.16 2.16 2.16 1.19 0 2.16-.97 2.16-2.16 0-1.2-.97-2.16-2.16-2.16zm0 3.37c-.67 0-1.22-.55-1.22-1.22 0-.67.55-1.22 1.22-1.22.67 0 1.22.55 1.22 1.22 0 .67-.54 1.22-1.22 1.22zM189 1.08c-1.19 0-2.16.97-2.16 2.16 0 1.19.97 2.16 2.16 2.16 1.19 0 2.16-.97 2.16-2.16 0-1.19-.97-2.16-2.16-2.16zm0 3.38c-.67 0-1.22-.55-1.22-1.22 0-.67.55-1.22 1.22-1.22.67 0 1.22.55 1.22 1.22 0 .67-.55 1.22-1.22 1.22zm0 192.47c-1.19 0-2.16.97-2.16 2.16 0 1.19.97 2.16 2.16 2.16 1.19 0 2.16-.97 2.16-2.16 0-1.19-.97-2.16-2.16-2.16zm0 3.38c-.67 0-1.22-.55-1.22-1.22 0-.67.55-1.22 1.22-1.22.67 0 1.22.55 1.22 1.22 0 .67-.55 1.22-1.22 1.22zm0 192.84c-1.19 0-2.16.97-2.16 2.16 0 1.19.97 2.16 2.16 2.16 1.19 0 2.16-.97 2.16-2.16 0-1.19-.97-2.16-2.16-2.16zm0 3.38c-.67 0-1.22-.55-1.22-1.22 0-.67.55-1.22 1.22-1.22.67 0 1.22.55 1.22 1.22 0 .67-.55 1.22-1.22 1.22zm0 94.31c-1.19 0-2.16.97-2.16 2.16 0 1.19.97 2.16 2.16 2.16 1.19 0 2.16-.97 2.16-2.16 0-1.19-.97-2.16-2.16-2.16zm0 3.38c-.67 0-1.22-.55-1.22-1.22 0-.67.55-1.22 1.22-1.22.67 0 1.22.55 1.22 1.22 0 .67-.55 1.22-1.22 1.22zm0-199.18c-1.19 0-2.16.97-2.16 2.16 0 1.19.97 2.16 2.16 2.16 1.19 0 2.16-.97 2.16-2.16 0-1.19-.97-2.16-2.16-2.16zm0 3.38c-.67 0-1.22-.55-1.22-1.22 0-.67.55-1.22 1.22-1.22.67 0 1.22.55 1.22 1.22 0 .67-.55 1.22-1.22 1.22zM42.12 1.08c-1.19 0-2.16.97-2.16 2.16 0 1.19.97 2.16 2.16 2.16 1.19 0 2.16-.97 2.16-2.16a2.17 2.17 0 00-2.16-2.16zm0 3.38c-.67 0-1.22-.55-1.22-1.22 0-.67.55-1.22 1.22-1.22.67 0 1.22.55 1.22 1.22 0 .67-.55 1.22-1.22 1.22zm0 192.47c-1.19 0-2.16.97-2.16 2.16 0 1.19.97 2.16 2.16 2.16 1.19 0 2.16-.97 2.16-2.16a2.17 2.17 0 00-2.16-2.16zm0 3.38c-.67 0-1.22-.55-1.22-1.22 0-.67.55-1.22 1.22-1.22.67 0 1.22.55 1.22 1.22 0 .67-.55 1.22-1.22 1.22zm0 192.84c-1.19 0-2.16.97-2.16 2.16 0 1.19.97 2.16 2.16 2.16 1.19 0 2.16-.97 2.16-2.16a2.17 2.17 0 00-2.16-2.16zm0 3.38c-.67 0-1.22-.55-1.22-1.22 0-.67.55-1.22 1.22-1.22.67 0 1.22.55 1.22 1.22 0 .67-.55 1.22-1.22 1.22zm0 94.31c-1.19 0-2.16.97-2.16 2.16 0 1.19.97 2.16 2.16 2.16 1.19 0 2.16-.97 2.16-2.16 0-1.19-.97-2.16-2.16-2.16zm0 3.38c-.67 0-1.22-.55-1.22-1.22 0-.67.55-1.22 1.22-1.22.67 0 1.22.55 1.22 1.22 0 .67-.55 1.22-1.22 1.22zm0-199.18c-1.19 0-2.16.97-2.16 2.16 0 1.19.97 2.16 2.16 2.16 1.19 0 2.16-.97 2.16-2.16 0-1.19-.97-2.16-2.16-2.16zm0 3.38c-.67 0-1.22-.55-1.22-1.22 0-.67.55-1.22 1.22-1.22.67 0 1.22.55 1.22 1.22 0 .67-.55 1.22-1.22 1.22zM286.92 1.08c-1.19 0-2.16.97-2.16 2.16 0 1.19.97 2.16 2.16 2.16 1.19 0 2.16-.97 2.16-2.16 0-1.19-.97-2.16-2.16-2.16zm0 3.38c-.67 0-1.22-.55-1.22-1.22 0-.67.55-1.22 1.22-1.22.67 0 1.22.55 1.22 1.22 0 .67-.55 1.22-1.22 1.22zm0 192.47c-1.19 0-2.16.97-2.16 2.16 0 1.19.97 2.16 2.16 2.16 1.19 0 2.16-.97 2.16-2.16 0-1.19-.97-2.16-2.16-2.16zm0 3.38c-.67 0-1.22-.55-1.22-1.22 0-.67.55-1.22 1.22-1.22.67 0 1.22.55 1.22 1.22 0 .67-.55 1.22-1.22 1.22zm0 192.84c-1.19 0-2.16.97-2.16 2.16 0 1.19.97 2.16 2.16 2.16 1.19 0 2.16-.97 2.16-2.16 0-1.19-.97-2.16-2.16-2.16zm0 3.38c-.67 0-1.22-.55-1.22-1.22 0-.67.55-1.22 1.22-1.22.67 0 1.22.55 1.22 1.22 0 .67-.55 1.22-1.22 1.22zm0 94.31c-1.19 0-2.16.97-2.16 2.16 0 1.19.97 2.16 2.16 2.16 1.19 0 2.16-.97 2.16-2.16 0-1.19-.97-2.16-2.16-2.16zm0 3.38c-.67 0-1.22-.55-1.22-1.22 0-.67.55-1.22 1.22-1.22.67 0 1.22.55 1.22 1.22 0 .67-.55 1.22-1.22 1.22zm0-199.18c-1.19 0-2.16.97-2.16 2.16 0 1.19.97 2.16 2.16 2.16 1.19 0 2.16-.97 2.16-2.16 0-1.19-.97-2.16-2.16-2.16zm0 3.38c-.67 0-1.22-.55-1.22-1.22 0-.67.55-1.22 1.22-1.22.67 0 1.22.55 1.22 1.22 0 .67-.55 1.22-1.22 1.22zM384.84 1.08c-1.19 0-2.16.97-2.16 2.16 0 1.19.97 2.16 2.16 2.16 1.19 0 2.16-.97 2.16-2.16 0-1.19-.97-2.16-2.16-2.16zm0 3.38c-.67 0-1.22-.55-1.22-1.22 0-.67.55-1.22 1.22-1.22.67 0 1.22.55 1.22 1.22 0 .67-.54 1.22-1.22 1.22zm0 192.47c-1.19 0-2.16.97-2.16 2.16 0 1.19.97 2.16 2.16 2.16 1.19 0 2.16-.97 2.16-2.16 0-1.19-.97-2.16-2.16-2.16zm0 3.38c-.67 0-1.22-.55-1.22-1.22 0-.67.55-1.22 1.22-1.22.67 0 1.22.55 1.22 1.22 0 .67-.54 1.22-1.22 1.22zm0 192.84c-1.19 0-2.16.97-2.16 2.16 0 1.19.97 2.16 2.16 2.16 1.19 0 2.16-.97 2.16-2.16 0-1.19-.97-2.16-2.16-2.16zm0 3.38c-.67 0-1.22-.55-1.22-1.22 0-.67.55-1.22 1.22-1.22.67 0 1.22.55 1.22 1.22 0 .67-.54 1.22-1.22 1.22zm0 94.31c-1.19 0-2.16.97-2.16 2.16 0 1.19.97 2.16 2.16 2.16 1.19 0 2.16-.97 2.16-2.16 0-1.19-.97-2.16-2.16-2.16zm0 3.38c-.67 0-1.22-.55-1.22-1.22 0-.67.55-1.22 1.22-1.22.67 0 1.22.55 1.22 1.22 0 .67-.54 1.22-1.22 1.22zm0-199.18c-1.19 0-2.16.97-2.16 2.16 0 1.19.97 2.16 2.16 2.16 1.19 0 2.16-.97 2.16-2.16 0-1.19-.97-2.16-2.16-2.16zm0 3.38c-.67 0-1.22-.55-1.22-1.22 0-.67.55-1.22 1.22-1.22.67 0 1.22.55 1.22 1.22 0 .67-.54 1.22-1.22 1.22zM482.77 5.31c1.19 0 2.16-.97 2.16-2.16 0-1.19-.97-2.16-2.16-2.16-1.19 0-2.16.97-2.16 2.16 0 1.19.97 2.16 2.16 2.16zm0-3.37c.67 0 1.22.55 1.22 1.22 0 .67-.55 1.22-1.22 1.22-.67 0-1.22-.55-1.22-1.22 0-.67.54-1.22 1.22-1.22zM-6.84 98.88c-1.19 0-2.16.97-2.16 2.16 0 1.19.97 2.16 2.16 2.16 1.19 0 2.16-.97 2.16-2.16-.01-1.19-.98-2.16-2.16-2.16zm0 3.38c-.67 0-1.22-.55-1.22-1.22 0-.67.55-1.22 1.22-1.22.67 0 1.22.55 1.22 1.22 0 .67-.55 1.22-1.22 1.22zm97.92-3.38c-1.19 0-2.16.97-2.16 2.16 0 1.19.97 2.16 2.16 2.16 1.19 0 2.16-.97 2.16-2.16a2.17 2.17 0 00-2.16-2.16zm0 3.38c-.67 0-1.22-.55-1.22-1.22 0-.67.55-1.22 1.22-1.22.67 0 1.22.55 1.22 1.22 0 .67-.55 1.22-1.22 1.22zm48.96-3.38c-1.19 0-2.16.97-2.16 2.16 0 1.19.97 2.16 2.16 2.16 1.19 0 2.16-.97 2.16-2.16a2.17 2.17 0 00-2.16-2.16zm0 3.38c-.67 0-1.22-.55-1.22-1.22 0-.67.55-1.22 1.22-1.22.67 0 1.22.55 1.22 1.22 0 .67-.55 1.22-1.22 1.22zm97.92-3.38c-1.19 0-2.16.97-2.16 2.16 0 1.19.97 2.16 2.16 2.16 1.19 0 2.16-.97 2.16-2.16 0-1.19-.97-2.16-2.16-2.16zm0 3.38c-.67 0-1.22-.55-1.22-1.22 0-.67.55-1.22 1.22-1.22.67 0 1.22.55 1.22 1.22 0 .67-.55 1.22-1.22 1.22zm97.92-3.38c-1.19 0-2.16.97-2.16 2.16 0 1.19.97 2.16 2.16 2.16 1.19 0 2.16-.97 2.16-2.16 0-1.19-.97-2.16-2.16-2.16zm0 3.38c-.67 0-1.22-.55-1.22-1.22 0-.67.55-1.22 1.22-1.22.67 0 1.22.55 1.22 1.22 0 .67-.54 1.22-1.22 1.22zm97.92-3.38c-1.19 0-2.16.97-2.16 2.16 0 1.19.97 2.16 2.16 2.16 1.19 0 2.16-.97 2.16-2.16 0-1.19-.97-2.16-2.16-2.16zm0 3.38c-.67 0-1.22-.55-1.22-1.22 0-.67.55-1.22 1.22-1.22.67 0 1.22.55 1.22 1.22 0 .67-.54 1.22-1.22 1.22zM189 98.96c-1.19 0-2.16.97-2.16 2.16 0 1.19.97 2.16 2.16 2.16 1.19 0 2.16-.97 2.16-2.16 0-1.19-.97-2.16-2.16-2.16zm0 3.38c-.67 0-1.22-.55-1.22-1.22 0-.67.55-1.22 1.22-1.22.67 0 1.22.55 1.22 1.22 0 .67-.55 1.22-1.22 1.22zM42.12 98.96c-1.19 0-2.16.97-2.16 2.16 0 1.19.97 2.16 2.16 2.16 1.19 0 2.16-.97 2.16-2.16 0-1.19-.97-2.16-2.16-2.16zm0 3.38c-.67 0-1.22-.55-1.22-1.22 0-.67.55-1.22 1.22-1.22.67 0 1.22.55 1.22 1.22 0 .67-.55 1.22-1.22 1.22zm244.8-3.38c-1.19 0-2.16.97-2.16 2.16 0 1.19.97 2.16 2.16 2.16 1.19 0 2.16-.97 2.16-2.16 0-1.19-.97-2.16-2.16-2.16zm0 3.38c-.67 0-1.22-.55-1.22-1.22 0-.67.55-1.22 1.22-1.22.67 0 1.22.55 1.22 1.22 0 .67-.55 1.22-1.22 1.22zm97.92-3.38c-1.19 0-2.16.97-2.16 2.16 0 1.19.97 2.16 2.16 2.16 1.19 0 2.16-.97 2.16-2.16 0-1.19-.97-2.16-2.16-2.16zm0 3.38c-.67 0-1.22-.55-1.22-1.22 0-.67.55-1.22 1.22-1.22.67 0 1.22.55 1.22 1.22 0 .67-.54 1.22-1.22 1.22zm97.93-3.46c-1.19 0-2.16.97-2.16 2.16 0 1.19.97 2.16 2.16 2.16 1.19 0 2.16-.97 2.16-2.16-.01-1.19-.98-2.16-2.16-2.16zm0 3.38c-.67 0-1.22-.55-1.22-1.22 0-.67.55-1.22 1.22-1.22.67 0 1.22.55 1.22 1.22 0 .67-.55 1.22-1.22 1.22zM-6.84 50.11c-1.19 0-2.16.97-2.16 2.16 0 1.19.97 2.16 2.16 2.16 1.19 0 2.16-.97 2.16-2.16 0-1.19-.98-2.16-2.16-2.16zm0 3.38c-.67 0-1.22-.55-1.22-1.22 0-.67.55-1.22 1.22-1.22.67 0 1.22.55 1.22 1.22 0 .67-.55 1.22-1.22 1.22zm97.92-3.38c-1.19 0-2.16.97-2.16 2.16 0 1.19.97 2.16 2.16 2.16 1.19 0 2.16-.97 2.16-2.16 0-1.19-.97-2.16-2.16-2.16zm0 3.38c-.67 0-1.22-.55-1.22-1.22 0-.67.55-1.22 1.22-1.22.67 0 1.22.55 1.22 1.22 0 .67-.55 1.22-1.22 1.22zm48.96-3.38c-1.19 0-2.16.97-2.16 2.16 0 1.19.97 2.16 2.16 2.16 1.19 0 2.16-.97 2.16-2.16 0-1.19-.97-2.16-2.16-2.16zm0 3.38c-.67 0-1.22-.55-1.22-1.22 0-.67.55-1.22 1.22-1.22.67 0 1.22.55 1.22 1.22 0 .67-.55 1.22-1.22 1.22zm97.92-3.38c-1.19 0-2.16.97-2.16 2.16 0 1.19.97 2.16 2.16 2.16 1.19 0 2.16-.97 2.16-2.16 0-1.19-.97-2.16-2.16-2.16zm0 3.38c-.67 0-1.22-.55-1.22-1.22 0-.67.55-1.22 1.22-1.22.67 0 1.22.55 1.22 1.22 0 .67-.55 1.22-1.22 1.22zm97.92-3.38c-1.19 0-2.16.97-2.16 2.16 0 1.19.97 2.16 2.16 2.16 1.19 0 2.16-.97 2.16-2.16 0-1.19-.97-2.16-2.16-2.16zm0 3.38c-.67 0-1.22-.55-1.22-1.22 0-.67.55-1.22 1.22-1.22.67 0 1.22.55 1.22 1.22 0 .67-.54 1.22-1.22 1.22zm97.92-3.38c-1.19 0-2.16.97-2.16 2.16 0 1.19.97 2.16 2.16 2.16 1.19 0 2.16-.97 2.16-2.16 0-1.19-.97-2.16-2.16-2.16zm0 3.38c-.67 0-1.22-.55-1.22-1.22 0-.67.55-1.22 1.22-1.22.67 0 1.22.55 1.22 1.22 0 .67-.54 1.22-1.22 1.22zM189 50.19c-1.19 0-2.16.97-2.16 2.16 0 1.19.97 2.16 2.16 2.16 1.19 0 2.16-.97 2.16-2.16 0-1.19-.97-2.16-2.16-2.16zm0 3.38c-.67 0-1.22-.55-1.22-1.22 0-.67.55-1.22 1.22-1.22.67 0 1.22.55 1.22 1.22 0 .67-.55 1.22-1.22 1.22zM42.12 50.19c-1.19 0-2.16.97-2.16 2.16 0 1.19.97 2.16 2.16 2.16 1.19 0 2.16-.97 2.16-2.16 0-1.19-.97-2.16-2.16-2.16zm0 3.38c-.67 0-1.22-.55-1.22-1.22 0-.67.55-1.22 1.22-1.22.67 0 1.22.55 1.22 1.22 0 .67-.55 1.22-1.22 1.22zm244.8-3.38c-1.19 0-2.16.97-2.16 2.16 0 1.19.97 2.16 2.16 2.16 1.19 0 2.16-.97 2.16-2.16 0-1.19-.97-2.16-2.16-2.16zm0 3.38c-.67 0-1.22-.55-1.22-1.22 0-.67.55-1.22 1.22-1.22.67 0 1.22.55 1.22 1.22 0 .67-.55 1.22-1.22 1.22zm97.92-3.38c-1.19 0-2.16.97-2.16 2.16 0 1.19.97 2.16 2.16 2.16 1.19 0 2.16-.97 2.16-2.16 0-1.19-.97-2.16-2.16-2.16zm0 3.38c-.67 0-1.22-.55-1.22-1.22 0-.67.55-1.22 1.22-1.22.67 0 1.22.55 1.22 1.22 0 .67-.54 1.22-1.22 1.22zm97.93-3.46c-1.19 0-2.16.97-2.16 2.16 0 1.19.97 2.16 2.16 2.16 1.19 0 2.16-.97 2.16-2.16 0-1.19-.98-2.16-2.16-2.16zm0 3.38c-.67 0-1.22-.55-1.22-1.22 0-.67.55-1.22 1.22-1.22.67 0 1.22.55 1.22 1.22 0 .67-.55 1.22-1.22 1.22zm0 143.35c-1.19 0-2.16.97-2.16 2.16 0 1.19.97 2.16 2.16 2.16 1.19 0 2.16-.97 2.16-2.16-.01-1.19-.98-2.16-2.16-2.16zm0 3.38c-.67 0-1.22-.55-1.22-1.22 0-.67.55-1.22 1.22-1.22.67 0 1.22.55 1.22 1.22 0 .67-.55 1.22-1.22 1.22zm0 192.85c-1.19 0-2.16.97-2.16 2.16 0 1.19.97 2.16 2.16 2.16 1.19 0 2.16-.97 2.16-2.16 0-1.19-.98-2.16-2.16-2.16zm0 3.38c-.67 0-1.22-.55-1.22-1.22 0-.67.55-1.22 1.22-1.22.67 0 1.22.55 1.22 1.22 0 .67-.55 1.22-1.22 1.22zm0 94.31c-1.19 0-2.16.97-2.16 2.16 0 1.19.97 2.16 2.16 2.16 1.19 0 2.16-.97 2.16-2.16-.01-1.19-.98-2.16-2.16-2.16zm0 3.38c-.67 0-1.22-.55-1.22-1.22 0-.67.55-1.22 1.22-1.22.67 0 1.22.55 1.22 1.22 0 .67-.55 1.22-1.22 1.22zm0-199.18c-1.19 0-2.16.97-2.16 2.16 0 1.19.97 2.16 2.16 2.16 1.19 0 2.16-.97 2.16-2.16a2.17 2.17 0 00-2.16-2.16zm0 3.37c-.67 0-1.22-.55-1.22-1.22 0-.67.55-1.22 1.22-1.22.67 0 1.22.55 1.22 1.22 0 .67-.55 1.22-1.22 1.22zM-6.84 147.84c-1.19 0-2.16.97-2.16 2.16 0 1.19.97 2.16 2.16 2.16 1.19 0 2.16-.97 2.16-2.16-.01-1.19-.98-2.16-2.16-2.16zm0 3.38c-.67 0-1.22-.55-1.22-1.22 0-.67.55-1.22 1.22-1.22.67 0 1.22.55 1.22 1.22 0 .67-.55 1.22-1.22 1.22zm97.92-3.38c-1.19 0-2.16.97-2.16 2.16 0 1.19.97 2.16 2.16 2.16 1.19 0 2.16-.97 2.16-2.16a2.17 2.17 0 00-2.16-2.16zm0 3.38c-.67 0-1.22-.55-1.22-1.22 0-.67.55-1.22 1.22-1.22.67 0 1.22.55 1.22 1.22 0 .67-.55 1.22-1.22 1.22zm48.96-3.38c-1.19 0-2.16.97-2.16 2.16 0 1.19.97 2.16 2.16 2.16 1.19 0 2.16-.97 2.16-2.16a2.17 2.17 0 00-2.16-2.16zm0 3.38c-.67 0-1.22-.55-1.22-1.22 0-.67.55-1.22 1.22-1.22.67 0 1.22.55 1.22 1.22 0 .67-.55 1.22-1.22 1.22zm97.92-3.38c-1.19 0-2.16.97-2.16 2.16 0 1.19.97 2.16 2.16 2.16 1.19 0 2.16-.97 2.16-2.16 0-1.19-.97-2.16-2.16-2.16zm0 3.38c-.67 0-1.22-.55-1.22-1.22 0-.67.55-1.22 1.22-1.22.67 0 1.22.55 1.22 1.22 0 .67-.55 1.22-1.22 1.22zm97.92-3.38c-1.19 0-2.16.97-2.16 2.16 0 1.19.97 2.16 2.16 2.16 1.19 0 2.16-.97 2.16-2.16 0-1.19-.97-2.16-2.16-2.16zm0 3.38c-.67 0-1.22-.55-1.22-1.22 0-.67.55-1.22 1.22-1.22.67 0 1.22.55 1.22 1.22 0 .67-.54 1.22-1.22 1.22zm97.92-3.38c-1.19 0-2.16.97-2.16 2.16 0 1.19.97 2.16 2.16 2.16 1.19 0 2.16-.97 2.16-2.16 0-1.19-.97-2.16-2.16-2.16zm0 3.38c-.67 0-1.22-.55-1.22-1.22 0-.67.55-1.22 1.22-1.22.67 0 1.22.55 1.22 1.22 0 .67-.54 1.22-1.22 1.22zm-244.8-3.3c-1.19 0-2.16.97-2.16 2.16 0 1.19.97 2.16 2.16 2.16 1.19 0 2.16-.97 2.16-2.16 0-1.19-.97-2.16-2.16-2.16zm0 3.38c-.67 0-1.22-.55-1.22-1.22 0-.67.55-1.22 1.22-1.22.67 0 1.22.55 1.22 1.22 0 .67-.55 1.22-1.22 1.22zm-146.88-3.38c-1.19 0-2.16.97-2.16 2.16 0 1.19.97 2.16 2.16 2.16 1.19 0 2.16-.97 2.16-2.16 0-1.19-.97-2.16-2.16-2.16zm0 3.38c-.67 0-1.22-.55-1.22-1.22 0-.67.55-1.22 1.22-1.22.67 0 1.22.55 1.22 1.22 0 .67-.55 1.22-1.22 1.22zm244.8-3.38c-1.19 0-2.16.97-2.16 2.16 0 1.19.97 2.16 2.16 2.16 1.19 0 2.16-.97 2.16-2.16 0-1.19-.97-2.16-2.16-2.16zm0 3.38c-.67 0-1.22-.55-1.22-1.22 0-.67.55-1.22 1.22-1.22.67 0 1.22.55 1.22 1.22 0 .67-.55 1.22-1.22 1.22zm97.92-3.38c-1.19 0-2.16.97-2.16 2.16 0 1.19.97 2.16 2.16 2.16 1.19 0 2.16-.97 2.16-2.16 0-1.19-.97-2.16-2.16-2.16zm0 3.38c-.67 0-1.22-.55-1.22-1.22 0-.67.55-1.22 1.22-1.22.67 0 1.22.55 1.22 1.22 0 .67-.54 1.22-1.22 1.22zm97.93-3.46c-1.19 0-2.16.97-2.16 2.16 0 1.19.97 2.16 2.16 2.16 1.19 0 2.16-.97 2.16-2.16-.01-1.19-.98-2.16-2.16-2.16zm0 3.38c-.67 0-1.22-.55-1.22-1.22 0-.67.55-1.22 1.22-1.22.67 0 1.22.55 1.22 1.22 0 .67-.55 1.22-1.22 1.22zM-6.84 245.57c-1.19 0-2.16.97-2.16 2.16 0 1.19.97 2.16 2.16 2.16 1.19 0 2.16-.97 2.16-2.16-.01-1.19-.98-2.16-2.16-2.16zm0 3.38c-.67 0-1.22-.55-1.22-1.22 0-.67.55-1.22 1.22-1.22.67 0 1.22.55 1.22 1.22 0 .67-.55 1.22-1.22 1.22zm97.92-3.38c-1.19 0-2.16.97-2.16 2.16 0 1.19.97 2.16 2.16 2.16 1.19 0 2.16-.97 2.16-2.16a2.17 2.17 0 00-2.16-2.16zm0 3.38c-.67 0-1.22-.55-1.22-1.22 0-.67.55-1.22 1.22-1.22.67 0 1.22.55 1.22 1.22 0 .67-.55 1.22-1.22 1.22zm48.96-3.38c-1.19 0-2.16.97-2.16 2.16 0 1.19.97 2.16 2.16 2.16 1.19 0 2.16-.97 2.16-2.16a2.17 2.17 0 00-2.16-2.16zm0 3.38c-.67 0-1.22-.55-1.22-1.22 0-.67.55-1.22 1.22-1.22.67 0 1.22.55 1.22 1.22 0 .67-.55 1.22-1.22 1.22zm97.92-3.38c-1.19 0-2.16.97-2.16 2.16 0 1.19.97 2.16 2.16 2.16 1.19 0 2.16-.97 2.16-2.16 0-1.19-.97-2.16-2.16-2.16zm0 3.38c-.67 0-1.22-.55-1.22-1.22 0-.67.55-1.22 1.22-1.22.67 0 1.22.55 1.22 1.22 0 .67-.55 1.22-1.22 1.22zm97.92-3.38c-1.19 0-2.16.97-2.16 2.16 0 1.19.97 2.16 2.16 2.16 1.19 0 2.16-.97 2.16-2.16 0-1.19-.97-2.16-2.16-2.16zm0 3.38c-.67 0-1.22-.55-1.22-1.22 0-.67.55-1.22 1.22-1.22.67 0 1.22.55 1.22 1.22 0 .67-.54 1.22-1.22 1.22zm97.92-3.38c-1.19 0-2.16.97-2.16 2.16 0 1.19.97 2.16 2.16 2.16 1.19 0 2.16-.97 2.16-2.16 0-1.19-.97-2.16-2.16-2.16zm0 3.38c-.67 0-1.22-.55-1.22-1.22 0-.67.55-1.22 1.22-1.22.67 0 1.22.55 1.22 1.22 0 .67-.54 1.22-1.22 1.22zM189 245.66c-1.19 0-2.16.97-2.16 2.16 0 1.19.97 2.16 2.16 2.16 1.19 0 2.16-.97 2.16-2.16 0-1.19-.97-2.16-2.16-2.16zm0 3.37c-.67 0-1.22-.55-1.22-1.22 0-.67.55-1.22 1.22-1.22.67 0 1.22.55 1.22 1.22 0 .67-.55 1.22-1.22 1.22zm-146.88-3.37c-1.19 0-2.16.97-2.16 2.16 0 1.19.97 2.16 2.16 2.16 1.19 0 2.16-.97 2.16-2.16 0-1.19-.97-2.16-2.16-2.16zm0 3.37c-.67 0-1.22-.55-1.22-1.22 0-.67.55-1.22 1.22-1.22.67 0 1.22.55 1.22 1.22 0 .67-.55 1.22-1.22 1.22zm244.8-3.37c-1.19 0-2.16.97-2.16 2.16 0 1.19.97 2.16 2.16 2.16 1.19 0 2.16-.97 2.16-2.16 0-1.19-.97-2.16-2.16-2.16zm0 3.37c-.67 0-1.22-.55-1.22-1.22 0-.67.55-1.22 1.22-1.22.67 0 1.22.55 1.22 1.22 0 .67-.55 1.22-1.22 1.22zm97.92-3.37c-1.19 0-2.16.97-2.16 2.16 0 1.19.97 2.16 2.16 2.16 1.19 0 2.16-.97 2.16-2.16 0-1.19-.97-2.16-2.16-2.16zm0 3.37c-.67 0-1.22-.55-1.22-1.22 0-.67.55-1.22 1.22-1.22.67 0 1.22.55 1.22 1.22 0 .67-.54 1.22-1.22 1.22zm97.93-3.46c-1.19 0-2.16.97-2.16 2.16 0 1.19.97 2.16 2.16 2.16 1.19 0 2.16-.97 2.16-2.16-.01-1.19-.98-2.16-2.16-2.16zm0 3.38c-.67 0-1.22-.55-1.22-1.22 0-.67.55-1.22 1.22-1.22.67 0 1.22.55 1.22 1.22 0 .67-.55 1.22-1.22 1.22zM-6.84 343.92c-1.19 0-2.16.97-2.16 2.16 0 1.19.97 2.16 2.16 2.16 1.19 0 2.16-.97 2.16-2.16a2.17 2.17 0 00-2.16-2.16zm0 3.38c-.67 0-1.22-.55-1.22-1.22 0-.67.55-1.22 1.22-1.22.67 0 1.22.55 1.22 1.22 0 .67-.55 1.22-1.22 1.22zm97.92-3.38c-1.19 0-2.16.97-2.16 2.16 0 1.19.97 2.16 2.16 2.16 1.19 0 2.16-.97 2.16-2.16-.01-1.2-.97-2.16-2.16-2.16zm0 3.38c-.67 0-1.22-.55-1.22-1.22 0-.67.55-1.22 1.22-1.22.67 0 1.22.55 1.22 1.22 0 .67-.55 1.22-1.22 1.22zm48.96-3.38c-1.19 0-2.16.97-2.16 2.16 0 1.19.97 2.16 2.16 2.16 1.19 0 2.16-.97 2.16-2.16-.01-1.2-.97-2.16-2.16-2.16zm0 3.38c-.67 0-1.22-.55-1.22-1.22 0-.67.55-1.22 1.22-1.22.67 0 1.22.55 1.22 1.22 0 .67-.55 1.22-1.22 1.22zm97.92-3.38c-1.19 0-2.16.97-2.16 2.16 0 1.19.97 2.16 2.16 2.16 1.19 0 2.16-.97 2.16-2.16 0-1.2-.97-2.16-2.16-2.16zm0 3.38c-.67 0-1.22-.55-1.22-1.22 0-.67.55-1.22 1.22-1.22.67 0 1.22.55 1.22 1.22 0 .67-.55 1.22-1.22 1.22zm97.92-3.38c-1.19 0-2.16.97-2.16 2.16 0 1.19.97 2.16 2.16 2.16 1.19 0 2.16-.97 2.16-2.16 0-1.2-.97-2.16-2.16-2.16zm0 3.38c-.67 0-1.22-.55-1.22-1.22 0-.67.55-1.22 1.22-1.22.67 0 1.22.55 1.22 1.22 0 .67-.54 1.22-1.22 1.22zm97.92-3.38c-1.19 0-2.16.97-2.16 2.16 0 1.19.97 2.16 2.16 2.16 1.19 0 2.16-.97 2.16-2.16 0-1.2-.97-2.16-2.16-2.16zm0 3.38c-.67 0-1.22-.55-1.22-1.22 0-.67.55-1.22 1.22-1.22.67 0 1.22.55 1.22 1.22 0 .67-.54 1.22-1.22 1.22zM189 344c-1.19 0-2.16.97-2.16 2.16 0 1.19.97 2.16 2.16 2.16 1.19 0 2.16-.97 2.16-2.16 0-1.19-.97-2.16-2.16-2.16zm0 3.38c-.67 0-1.22-.55-1.22-1.22 0-.67.55-1.22 1.22-1.22.67 0 1.22.55 1.22 1.22 0 .67-.55 1.22-1.22 1.22zM42.12 344c-1.19 0-2.16.97-2.16 2.16 0 1.19.97 2.16 2.16 2.16 1.19 0 2.16-.97 2.16-2.16a2.17 2.17 0 00-2.16-2.16zm0 3.38c-.67 0-1.22-.55-1.22-1.22 0-.67.55-1.22 1.22-1.22.67 0 1.22.55 1.22 1.22 0 .67-.55 1.22-1.22 1.22zm244.8-3.38c-1.19 0-2.16.97-2.16 2.16 0 1.19.97 2.16 2.16 2.16 1.19 0 2.16-.97 2.16-2.16 0-1.19-.97-2.16-2.16-2.16zm0 3.38c-.67 0-1.22-.55-1.22-1.22 0-.67.55-1.22 1.22-1.22.67 0 1.22.55 1.22 1.22 0 .67-.55 1.22-1.22 1.22zm97.92-3.38c-1.19 0-2.16.97-2.16 2.16 0 1.19.97 2.16 2.16 2.16 1.19 0 2.16-.97 2.16-2.16 0-1.19-.97-2.16-2.16-2.16zm0 3.38c-.67 0-1.22-.55-1.22-1.22 0-.67.55-1.22 1.22-1.22.67 0 1.22.55 1.22 1.22 0 .67-.54 1.22-1.22 1.22zm97.93-3.46c-1.19 0-2.16.97-2.16 2.16 0 1.19.97 2.16 2.16 2.16 1.19 0 2.16-.97 2.16-2.16a2.17 2.17 0 00-2.16-2.16zm0 3.38c-.67 0-1.22-.55-1.22-1.22 0-.67.55-1.22 1.22-1.22.67 0 1.22.55 1.22 1.22 0 .67-.55 1.22-1.22 1.22zM-6.84 442.26c-1.19 0-2.16.97-2.16 2.16 0 1.19.97 2.16 2.16 2.16 1.19 0 2.16-.97 2.16-2.16-.01-1.19-.98-2.16-2.16-2.16zm0 3.38c-.67 0-1.22-.55-1.22-1.22 0-.67.55-1.22 1.22-1.22.67 0 1.22.55 1.22 1.22 0 .67-.55 1.22-1.22 1.22zm97.92-3.38c-1.19 0-2.16.97-2.16 2.16 0 1.19.97 2.16 2.16 2.16 1.19 0 2.16-.97 2.16-2.16a2.17 2.17 0 00-2.16-2.16zm0 3.38c-.67 0-1.22-.55-1.22-1.22 0-.67.55-1.22 1.22-1.22.67 0 1.22.55 1.22 1.22 0 .67-.55 1.22-1.22 1.22zm48.96-3.38c-1.19 0-2.16.97-2.16 2.16 0 1.19.97 2.16 2.16 2.16 1.19 0 2.16-.97 2.16-2.16a2.17 2.17 0 00-2.16-2.16zm0 3.38c-.67 0-1.22-.55-1.22-1.22 0-.67.55-1.22 1.22-1.22.67 0 1.22.55 1.22 1.22 0 .67-.55 1.22-1.22 1.22zm97.92-3.38c-1.19 0-2.16.97-2.16 2.16 0 1.19.97 2.16 2.16 2.16 1.19 0 2.16-.97 2.16-2.16 0-1.19-.97-2.16-2.16-2.16zm0 3.38c-.67 0-1.22-.55-1.22-1.22 0-.67.55-1.22 1.22-1.22.67 0 1.22.55 1.22 1.22 0 .67-.55 1.22-1.22 1.22zm97.92-3.38c-1.19 0-2.16.97-2.16 2.16 0 1.19.97 2.16 2.16 2.16 1.19 0 2.16-.97 2.16-2.16 0-1.19-.97-2.16-2.16-2.16zm0 3.38c-.67 0-1.22-.55-1.22-1.22 0-.67.55-1.22 1.22-1.22.67 0 1.22.55 1.22 1.22 0 .67-.54 1.22-1.22 1.22zm97.92-3.38c-1.19 0-2.16.97-2.16 2.16 0 1.19.97 2.16 2.16 2.16 1.19 0 2.16-.97 2.16-2.16 0-1.19-.97-2.16-2.16-2.16zm0 3.38c-.67 0-1.22-.55-1.22-1.22 0-.67.55-1.22 1.22-1.22.67 0 1.22.55 1.22 1.22 0 .67-.54 1.22-1.22 1.22zM189 442.35c-1.19 0-2.16.97-2.16 2.16 0 1.19.97 2.16 2.16 2.16 1.19 0 2.16-.97 2.16-2.16 0-1.19-.97-2.16-2.16-2.16zm0 3.38c-.67 0-1.22-.55-1.22-1.22 0-.67.55-1.22 1.22-1.22.67 0 1.22.55 1.22 1.22 0 .67-.55 1.22-1.22 1.22zm-146.88-3.38c-1.19 0-2.16.97-2.16 2.16 0 1.19.97 2.16 2.16 2.16 1.19 0 2.16-.97 2.16-2.16 0-1.19-.97-2.16-2.16-2.16zm0 3.38c-.67 0-1.22-.55-1.22-1.22 0-.67.55-1.22 1.22-1.22.67 0 1.22.55 1.22 1.22 0 .67-.55 1.22-1.22 1.22zm244.8-3.38c-1.19 0-2.16.97-2.16 2.16 0 1.19.97 2.16 2.16 2.16 1.19 0 2.16-.97 2.16-2.16 0-1.19-.97-2.16-2.16-2.16zm0 3.38c-.67 0-1.22-.55-1.22-1.22 0-.67.55-1.22 1.22-1.22.67 0 1.22.55 1.22 1.22 0 .67-.55 1.22-1.22 1.22zm97.92-3.38c-1.19 0-2.16.97-2.16 2.16 0 1.19.97 2.16 2.16 2.16 1.19 0 2.16-.97 2.16-2.16 0-1.19-.97-2.16-2.16-2.16zm0 3.38c-.67 0-1.22-.55-1.22-1.22 0-.67.55-1.22 1.22-1.22.67 0 1.22.55 1.22 1.22 0 .67-.54 1.22-1.22 1.22zm97.93-3.47c-1.19 0-2.16.97-2.16 2.16 0 1.19.97 2.16 2.16 2.16 1.19 0 2.16-.97 2.16-2.16-.01-1.19-.98-2.16-2.16-2.16zm0 3.38c-.67 0-1.22-.55-1.22-1.22 0-.67.55-1.22 1.22-1.22.67 0 1.22.55 1.22 1.22 0 .67-.55 1.22-1.22 1.22z" fill="url(#paint1_linear)"/><defs><linearGradient id="paint0_linear" x1="398" y1="679.5" x2="99.5" y2="18.5" gradientUnits="userSpaceOnUse"><stop stop-color="#fff" stop-opacity=".7"/><stop offset="1" stop-color="#fff" stop-opacity=".22"/></linearGradient><linearGradient id="paint1_linear" x1="398" y1="679.5" x2="99.5" y2="18.5" gradientUnits="userSpaceOnUse"><stop stop-color="#fff" stop-opacity=".7"/><stop offset="1" stop-color="#fff" stop-opacity=".22"/></linearGradient></defs></svg>