<svg width="235" height="37" viewBox="0 0 235 37" fill="none" xmlns="http://www.w3.org/2000/svg">
<path d="M9.40148 14.498C10.9262 14.498 12.2904 14.8294 13.4942 15.4986C14.6979 16.1677 15.6424 17.0981 16.3214 18.2834C17.0004 19.4751 17.34 20.8134 17.34 22.2983C17.34 23.9042 17.0066 25.3189 16.3399 26.5361C15.6733 27.7597 14.7411 28.7028 13.5497 29.372C12.3583 30.0411 11.0003 30.3725 9.4879 30.3725H5.90756V36.4648H0V14.498H9.40148ZM10.2904 24.6307C10.6423 24.3949 10.92 24.0699 11.1299 23.662C11.3398 23.2542 11.4447 22.8017 11.4447 22.3046C11.4447 21.9286 11.3398 21.5526 11.1299 21.183C10.92 20.8134 10.6423 20.5075 10.2842 20.2654C9.93236 20.0232 9.55581 19.9021 9.15456 19.9021H5.90139V24.9875H9.14222C9.55581 24.9812 9.93853 24.8665 10.2904 24.6307Z" fill="#FCFCFC"/>
<path d="M28.9144 14.498C30.4453 14.498 31.8157 14.8167 33.0133 15.4603C34.2108 16.104 35.1491 16.9962 35.8281 18.1496C36.5072 19.3031 36.8467 20.6222 36.8467 22.1071C36.8467 23.5282 36.5134 24.8027 35.8467 25.9243C35.18 27.0523 34.2602 27.9254 33.0935 28.5499L37.3837 36.4648H30.6367L27.3217 29.5058H26.26H25.3526V36.4712H19.4512V14.498H28.9144ZM29.8095 24.1336C30.1613 23.936 30.4453 23.6556 30.649 23.2988C30.8527 22.9419 30.9515 22.5468 30.9515 22.1007C30.9515 21.7375 30.8465 21.3806 30.6367 21.0365C30.4268 20.6923 30.149 20.4119 29.7971 20.2016C29.4453 19.9913 29.0687 19.8894 28.6613 19.8894H25.3464V24.4267H28.6489C29.0687 24.4331 29.4514 24.3375 29.8095 24.1336Z" fill="#FCFCFC"/>
<path d="M43.952 35.4513C42.168 34.4189 40.7544 33.0169 39.7112 31.2453C38.6679 29.4737 38.1494 27.5428 38.1494 25.4525C38.1494 23.3495 38.6679 21.425 39.7112 19.6597C40.7544 17.9009 42.168 16.5052 43.952 15.4729C45.736 14.4405 47.6867 13.9307 49.804 13.9307C51.909 13.9307 53.8597 14.4469 55.6375 15.4729C57.4153 16.4989 58.8351 17.8945 59.8845 19.6597C60.934 21.425 61.4587 23.3495 61.4587 25.4525C61.4587 27.5428 60.934 29.4737 59.8845 31.2453C58.8351 33.0169 57.4215 34.4189 55.6375 35.4513C53.8535 36.4837 51.909 36.9999 49.804 36.9999C47.6867 36.9999 45.736 36.4837 43.952 35.4513ZM52.7239 30.6845C53.6066 30.1811 54.3042 29.4673 54.8103 28.5624C55.3227 27.6511 55.5758 26.6187 55.5758 25.4717C55.5758 24.3246 55.3227 23.2858 54.8103 22.3809C54.298 21.4696 53.6004 20.7622 52.7239 20.2588C51.8411 19.7553 50.872 19.5004 49.804 19.5004C48.7361 19.5004 47.7669 19.7553 46.8842 20.2588C46.0015 20.7622 45.3039 21.476 44.7977 22.3809C44.2854 23.2922 44.0323 24.3246 44.0323 25.4717C44.0323 26.6187 44.2916 27.6511 44.8039 28.556C45.3224 29.461 46.02 30.1683 46.9027 30.6782C47.7855 31.188 48.7546 31.4429 49.804 31.4429C50.872 31.4429 51.8411 31.1944 52.7239 30.6845Z" fill="#FCFCFC"/>
<path d="M63.9648 14.498H69.1625L75.1565 23.235L81.2739 14.498H86.4037V36.4648H80.5208V24.1782L75.8726 31.1245H74.4343L69.8662 24.1145V36.4712H63.9648V14.498Z" fill="#FCFCFC"/>
<path d="M94.7123 35.4513C92.9283 34.4189 91.5147 33.0169 90.4714 31.2453C89.4282 29.4737 88.9097 27.5428 88.9097 25.4525C88.9097 23.3495 89.4282 21.425 90.4714 19.6597C91.5147 17.9009 92.9283 16.5052 94.7123 15.4729C96.4963 14.4469 98.447 13.9307 100.564 13.9307C102.669 13.9307 104.62 14.4469 106.398 15.4729C108.182 16.4989 109.595 17.8945 110.645 19.6597C111.694 21.4186 112.219 23.3495 112.219 25.4525C112.219 27.5428 111.694 29.4737 110.645 31.2453C109.595 33.0169 108.182 34.4189 106.398 35.4513C104.614 36.4837 102.669 36.9999 100.564 36.9999C98.447 36.9999 96.4963 36.4837 94.7123 35.4513ZM103.484 30.6845C104.367 30.1811 105.064 29.4673 105.571 28.5624C106.083 27.6511 106.336 26.6187 106.336 25.4717C106.336 24.3246 106.083 23.2858 105.571 22.3809C105.058 21.4696 104.361 20.7622 103.484 20.2588C102.601 19.7553 101.632 19.5004 100.564 19.5004C99.4964 19.5004 98.5272 19.7553 97.6445 20.2588C96.7617 20.7622 96.0642 21.476 95.558 22.3809C95.0456 23.2922 94.7925 24.3246 94.7925 25.4717C94.7925 26.6187 95.0518 27.6511 95.5642 28.556C96.0765 29.461 96.7803 30.1683 97.663 30.6782C98.5457 31.188 99.5149 31.4429 100.564 31.4429C101.632 31.4429 102.601 31.1944 103.484 30.6845Z" fill="#FCFCFC"/>
<path d="M119.158 35.4449C117.423 34.4062 116.046 33.0042 115.022 31.2389C113.997 29.4737 113.479 27.5428 113.479 25.4589C113.479 23.3559 113.997 21.4313 115.028 19.6661C116.059 17.9008 117.454 16.5116 119.213 15.4792C120.973 14.4468 122.886 13.937 124.966 13.937C126.51 13.937 128.065 14.2748 129.639 14.9439C131.214 15.613 132.559 16.5881 133.683 17.8626C134.812 19.1308 135.498 20.622 135.751 22.3363H129.744C129.257 21.4186 128.59 20.7176 127.757 20.2269C126.923 19.7362 125.936 19.494 124.8 19.494C123.806 19.494 122.899 19.7298 122.078 20.195C121.256 20.6666 120.596 21.3485 120.108 22.247C119.621 23.1456 119.374 24.2226 119.374 25.4716C119.374 26.7653 119.614 27.855 120.102 28.7536C120.59 29.6458 121.244 30.3213 122.065 30.7737C122.892 31.2262 123.8 31.4492 124.806 31.4492C125.892 31.4492 126.825 31.2453 127.615 30.8375C128.405 30.4296 128.942 29.7923 129.232 28.932H124.584V24.1843H135.868C135.911 26.8864 135.498 29.1997 134.633 31.1242C133.769 33.0488 132.498 34.5081 130.831 35.5087C129.164 36.5092 127.158 37.0126 124.825 37.0126C122.769 36.9999 120.886 36.4837 119.158 35.4449Z" fill="#FCFCFC"/>
<path d="M147.819 14.498C149.35 14.498 150.72 14.8167 151.918 15.4603C153.115 16.104 154.053 16.9962 154.732 18.1496C155.411 19.3031 155.751 20.6222 155.751 22.1071C155.751 23.5282 155.418 24.8027 154.751 25.9243C154.084 27.0523 153.165 27.9254 151.998 28.5499L156.288 36.4648H149.541L146.226 29.4994H145.164H144.257V36.4648H138.355V14.498H147.819ZM148.714 24.1336C149.066 23.936 149.35 23.6556 149.553 23.2988C149.757 22.9419 149.856 22.5468 149.856 22.1007C149.856 21.7375 149.751 21.3806 149.541 21.0365C149.331 20.6923 149.053 20.4119 148.701 20.2016C148.35 19.9913 147.973 19.8894 147.566 19.8894H144.251V24.4267H147.553C147.973 24.4331 148.356 24.3375 148.714 24.1336Z" fill="#FCFCFC"/>
<path d="M162.856 35.4513C161.072 34.4189 159.658 33.0169 158.615 31.2453C157.572 29.4737 157.053 27.5428 157.053 25.4525C157.053 23.3495 157.572 21.425 158.615 19.6597C159.658 17.9009 161.072 16.5052 162.856 15.4729C164.64 14.4405 166.59 13.9307 168.708 13.9307C170.813 13.9307 172.763 14.4469 174.541 15.4729C176.319 16.4989 177.739 17.8945 178.788 19.6597C179.838 21.425 180.362 23.3495 180.362 25.4525C180.362 27.5428 179.838 29.4737 178.788 31.2453C177.739 33.0169 176.325 34.4189 174.541 35.4513C172.757 36.4837 170.813 36.9999 168.708 36.9999C166.59 36.9999 164.64 36.4837 162.856 35.4513ZM171.628 30.6845C172.51 30.1811 173.208 29.4673 173.714 28.5624C174.226 27.6511 174.48 26.6187 174.48 25.4717C174.48 24.3246 174.226 23.2858 173.714 22.3809C173.202 21.4696 172.504 20.7622 171.628 20.2588C170.745 19.7553 169.776 19.5004 168.708 19.5004C167.646 19.5004 166.671 19.7553 165.788 20.2588C164.905 20.7622 164.208 21.476 163.702 22.3809C163.195 23.2858 162.936 24.3246 162.936 25.4717C162.936 26.6187 163.195 27.6511 163.708 28.556C164.22 29.461 164.924 30.1683 165.807 30.6782C166.689 31.188 167.658 31.4429 168.708 31.4429C169.776 31.4429 170.745 31.1944 171.628 30.6845Z" fill="#FCFCFC"/>
<path d="M187.252 35.904C185.789 35.1711 184.647 34.126 183.807 32.7623C182.974 31.3985 182.554 29.8117 182.554 28.0018V14.498H188.437V27.5494C188.437 28.7347 188.758 29.6842 189.406 30.4107C190.054 31.1372 190.968 31.4941 192.147 31.4941C193.308 31.4941 194.209 31.1308 194.857 30.4043C195.505 29.6779 195.826 28.722 195.826 27.5366V14.498H201.728V28.0018C201.728 29.7225 201.339 31.271 200.555 32.6348C199.771 34.0049 198.653 35.0692 197.209 35.8403C195.758 36.6114 194.073 36.9937 192.153 36.9937C190.345 37.0001 188.715 36.6369 187.252 35.904Z" fill="#FCFCFC"/>
<path d="M214.574 14.498C216.098 14.498 217.463 14.8294 218.666 15.4986C219.87 16.1677 220.814 17.0981 221.493 18.2834C222.173 19.4751 222.512 20.8134 222.512 22.2983C222.512 23.9042 222.179 25.3189 221.512 26.5361C220.845 27.7597 219.913 28.7028 218.722 29.372C217.53 30.0411 216.172 30.3725 214.66 30.3725H211.08V36.4648H205.178V14.498H214.574ZM215.456 24.6307C215.808 24.3949 216.086 24.0699 216.296 23.662C216.506 23.2542 216.611 22.8017 216.611 22.3046C216.611 21.9286 216.506 21.5526 216.296 21.183C216.086 20.8134 215.808 20.5075 215.45 20.2654C215.098 20.0232 214.722 19.9021 214.32 19.9021H211.067V24.9875H214.308C214.722 24.9812 215.104 24.8665 215.456 24.6307Z" fill="#FCFCFC"/>
<g filter="url(#filter0_d)">
<path d="M218.376 0H216.494V10.4704H218.376V0Z" fill="#FCFCFC"/>
<path d="M212.363 4.26358V6.20728L222.506 6.20728V4.26358L212.363 4.26358Z" fill="#FCFCFC"/>
</g>
<g filter="url(#filter1_d)">
<path d="M234.507 13.3788L233.176 12.0044L226.004 19.408L227.335 20.7824L234.507 13.3788Z" fill="#FCFCFC"/>
<path d="M227.329 12L226 13.377L233.158 20.7944L234.487 19.4174L227.329 12Z" fill="#FCFCFC"/>
</g>
<g filter="url(#filter2_d)">
<path d="M231.216 4.57561C232.44 4.57561 233.432 3.55133 233.432 2.28781C233.432 1.02429 232.44 0 231.216 0C229.992 0 229 1.02429 229 2.28781C229 3.55133 229.992 4.57561 231.216 4.57561Z" fill="#FCFCFC"/>
</g>
<defs>
<filter id="filter0_d" x="208.363" y="0" width="18.1423" height="18.4704" filterUnits="userSpaceOnUse" color-interpolation-filters="sRGB">
<feFlood flood-opacity="0" result="BackgroundImageFix"/>
<feColorMatrix in="SourceAlpha" type="matrix" values="0 0 0 0 0 0 0 0 0 0 0 0 0 0 0 0 0 0 127 0" result="hardAlpha"/>
<feOffset dy="4"/>
<feGaussianBlur stdDeviation="2"/>
<feComposite in2="hardAlpha" operator="out"/>
<feColorMatrix type="matrix" values="0 0 0 0 0 0 0 0 0 0 0 0 0 0 0 0 0 0 0.25 0"/>
<feBlend mode="normal" in2="BackgroundImageFix" result="effect1_dropShadow"/>
<feBlend mode="normal" in="SourceGraphic" in2="effect1_dropShadow" result="shape"/>
</filter>
<filter id="filter1_d" x="222" y="12" width="16.5073" height="16.7944" filterUnits="userSpaceOnUse" color-interpolation-filters="sRGB">
<feFlood flood-opacity="0" result="BackgroundImageFix"/>
<feColorMatrix in="SourceAlpha" type="matrix" values="0 0 0 0 0 0 0 0 0 0 0 0 0 0 0 0 0 0 127 0" result="hardAlpha"/>
<feOffset dy="4"/>
<feGaussianBlur stdDeviation="2"/>
<feComposite in2="hardAlpha" operator="out"/>
<feColorMatrix type="matrix" values="0 0 0 0 0 0 0 0 0 0 0 0 0 0 0 0 0 0 0.25 0"/>
<feBlend mode="normal" in2="BackgroundImageFix" result="effect1_dropShadow"/>
<feBlend mode="normal" in="SourceGraphic" in2="effect1_dropShadow" result="shape"/>
</filter>
<filter id="filter2_d" x="225" y="0" width="12.4323" height="12.5756" filterUnits="userSpaceOnUse" color-interpolation-filters="sRGB">
<feFlood flood-opacity="0" result="BackgroundImageFix"/>
<feColorMatrix in="SourceAlpha" type="matrix" values="0 0 0 0 0 0 0 0 0 0 0 0 0 0 0 0 0 0 127 0" result="hardAlpha"/>
<feOffset dy="4"/>
<feGaussianBlur stdDeviation="2"/>
<feComposite in2="hardAlpha" operator="out"/>
<feColorMatrix type="matrix" values="0 0 0 0 0 0 0 0 0 0 0 0 0 0 0 0 0 0 0.25 0"/>
<feBlend mode="normal" in2="BackgroundImageFix" result="effect1_dropShadow"/>
<feBlend mode="normal" in="SourceGraphic" in2="effect1_dropShadow" result="shape"/>
</filter>
</defs>
</svg>
