<svg width="373" height="634" viewBox="0 0 373 634" fill="none" xmlns="http://www.w3.org/2000/svg">
<path d="M-6.84 442C-8.03 442 -9 442.97 -9 444.16C-9 445.35 -8.03 446.32 -6.84 446.32C-5.65 446.32 -4.68 445.35 -4.68 444.16C-4.69 442.97 -5.66 442 -6.84 442ZM-6.84 445.38C-7.51 445.38 -8.06 444.83 -8.06 444.16C-8.06 443.49 -7.51 442.94 -6.84 442.94C-6.17 442.94 -5.62 443.49 -5.62 444.16C-5.62 444.83 -6.17 445.38 -6.84 445.38ZM-6.84 637.84C-8.03 637.84 -9 638.81 -9 640C-9 641.19 -8.03 642.16 -6.84 642.16C-5.65 642.16 -4.68 641.19 -4.68 640C-4.69 638.81 -5.66 637.84 -6.84 637.84ZM-6.84 641.22C-7.51 641.22 -8.06 640.67 -8.06 640C-8.06 639.33 -7.51 638.78 -6.84 638.78C-6.17 638.78 -5.62 639.33 -5.62 640C-5.62 640.67 -6.17 641.22 -6.84 641.22ZM-6.84 834.07C-8.03 834.07 -9 835.04 -9 836.23C-9 837.42 -8.03 838.39 -6.84 838.39C-5.65 838.39 -4.68 837.42 -4.68 836.23C-4.68 835.04 -5.66 834.07 -6.84 834.07ZM-6.84 837.45C-7.51 837.45 -8.06 836.9 -8.06 836.23C-8.06 835.56 -7.52 835 -6.84 835C-6.16 835 -5.62 835.55 -5.62 836.22C-5.62 836.89 -6.17 837.45 -6.84 837.45ZM-6.84 931.76C-8.03 931.76 -9 932.73 -9 933.92C-9 935.11 -8.03 936.08 -6.84 936.08C-5.65 936.08 -4.68 935.11 -4.68 933.92C-4.69 932.73 -5.66 931.76 -6.84 931.76ZM-6.84 935.14C-7.51 935.14 -8.06 934.59 -8.06 933.92C-8.06 933.25 -7.51 932.7 -6.84 932.7C-6.17 932.7 -5.62 933.25 -5.62 933.92C-5.62 934.59 -6.17 935.14 -6.84 935.14ZM-6.84 735.96C-8.03 735.96 -9 736.93 -9 738.12C-9 739.31 -8.03 740.28 -6.84 740.28C-5.65 740.28 -4.68 739.31 -4.68 738.12C-4.69 736.92 -5.66 735.96 -6.84 735.96ZM-6.84 739.33C-7.51 739.33 -8.06 738.78 -8.06 738.11C-8.06 737.44 -7.51 736.89 -6.84 736.89C-6.17 736.89 -5.62 737.44 -5.62 738.11C-5.62 738.78 -6.17 739.33 -6.84 739.33ZM91.08 442C89.89 442 88.92 442.97 88.92 444.16C88.92 445.35 89.89 446.32 91.08 446.32C92.27 446.32 93.24 445.35 93.24 444.16C93.23 442.97 92.27 442 91.08 442ZM91.08 445.38C90.41 445.38 89.86 444.83 89.86 444.16C89.86 443.49 90.41 442.94 91.08 442.94C91.75 442.94 92.3 443.49 92.3 444.16C92.3 444.83 91.75 445.38 91.08 445.38ZM91.08 637.84C89.89 637.84 88.92 638.81 88.92 640C88.92 641.19 89.89 642.16 91.08 642.16C92.27 642.16 93.24 641.19 93.24 640C93.23 638.81 92.27 637.84 91.08 637.84ZM91.08 641.22C90.41 641.22 89.86 640.67 89.86 640C89.86 639.33 90.41 638.78 91.08 638.78C91.75 638.78 92.3 639.33 92.3 640C92.3 640.67 91.75 641.22 91.08 641.22ZM91.08 834.07C89.89 834.07 88.92 835.04 88.92 836.23C88.92 837.42 89.89 838.39 91.08 838.39C92.27 838.39 93.24 837.42 93.24 836.23C93.24 835.04 92.27 834.07 91.08 834.07ZM91.08 837.45C90.41 837.45 89.86 836.9 89.86 836.23C89.86 835.56 90.41 835.01 91.08 835.01C91.75 835.01 92.3 835.56 92.3 836.23C92.3 836.9 91.75 837.45 91.08 837.45ZM91.08 931.76C89.89 931.76 88.92 932.73 88.92 933.92C88.92 935.11 89.89 936.08 91.08 936.08C92.27 936.08 93.24 935.11 93.24 933.92C93.23 932.73 92.27 931.76 91.08 931.76ZM91.08 935.14C90.41 935.14 89.86 934.59 89.86 933.92C89.86 933.25 90.41 932.7 91.08 932.7C91.75 932.7 92.3 933.25 92.3 933.92C92.3 934.59 91.75 935.14 91.08 935.14ZM91.08 735.96C89.89 735.96 88.92 736.93 88.92 738.12C88.92 739.31 89.89 740.28 91.08 740.28C92.27 740.28 93.24 739.31 93.24 738.12C93.23 736.92 92.27 735.96 91.08 735.96ZM91.08 739.33C90.41 739.33 89.86 738.78 89.86 738.11C89.86 737.44 90.41 736.89 91.08 736.89C91.75 736.89 92.3 737.44 92.3 738.11C92.3 738.78 91.75 739.33 91.08 739.33ZM140.04 442C138.85 442 137.88 442.97 137.88 444.16C137.88 445.35 138.85 446.32 140.04 446.32C141.23 446.32 142.2 445.35 142.2 444.16C142.19 442.97 141.23 442 140.04 442ZM140.04 445.38C139.37 445.38 138.82 444.83 138.82 444.16C138.82 443.49 139.37 442.94 140.04 442.94C140.71 442.94 141.26 443.49 141.26 444.16C141.26 444.83 140.71 445.38 140.04 445.38ZM140.04 637.84C138.85 637.84 137.88 638.81 137.88 640C137.88 641.19 138.85 642.16 140.04 642.16C141.23 642.16 142.2 641.19 142.2 640C142.19 638.81 141.23 637.84 140.04 637.84ZM140.04 641.22C139.37 641.22 138.82 640.67 138.82 640C138.82 639.33 139.37 638.78 140.04 638.78C140.71 638.78 141.26 639.33 141.26 640C141.26 640.67 140.71 641.22 140.04 641.22ZM140.04 834.07C138.85 834.07 137.88 835.04 137.88 836.23C137.88 837.42 138.85 838.39 140.04 838.39C141.23 838.39 142.2 837.42 142.2 836.23C142.2 835.04 141.23 834.07 140.04 834.07ZM140.04 837.45C139.37 837.45 138.82 836.9 138.82 836.23C138.82 835.56 139.37 835.01 140.04 835.01C140.71 835.01 141.26 835.56 141.26 836.23C141.26 836.9 140.71 837.45 140.04 837.45ZM140.04 931.76C138.85 931.76 137.88 932.73 137.88 933.92C137.88 935.11 138.85 936.08 140.04 936.08C141.23 936.08 142.2 935.11 142.2 933.92C142.19 932.73 141.23 931.76 140.04 931.76ZM140.04 935.14C139.37 935.14 138.82 934.59 138.82 933.92C138.82 933.25 139.37 932.7 140.04 932.7C140.71 932.7 141.26 933.25 141.26 933.92C141.26 934.59 140.71 935.14 140.04 935.14ZM140.04 735.96C138.85 735.96 137.88 736.93 137.88 738.12C137.88 739.31 138.85 740.28 140.04 740.28C141.23 740.28 142.2 739.31 142.2 738.12C142.19 736.92 141.23 735.96 140.04 735.96ZM140.04 739.33C139.37 739.33 138.82 738.78 138.82 738.11C138.82 737.44 139.37 736.89 140.04 736.89C140.71 736.89 141.26 737.44 141.26 738.11C141.26 738.78 140.71 739.33 140.04 739.33ZM237.96 442C236.77 442 235.8 442.97 235.8 444.16C235.8 445.35 236.77 446.32 237.96 446.32C239.15 446.32 240.12 445.35 240.12 444.16C240.12 442.97 239.15 442 237.96 442ZM237.96 445.38C237.29 445.38 236.74 444.83 236.74 444.16C236.74 443.49 237.29 442.94 237.96 442.94C238.63 442.94 239.18 443.49 239.18 444.16C239.18 444.83 238.63 445.38 237.96 445.38ZM237.96 637.84C236.77 637.84 235.8 638.81 235.8 640C235.8 641.19 236.77 642.16 237.96 642.16C239.15 642.16 240.12 641.19 240.12 640C240.12 638.81 239.15 637.84 237.96 637.84ZM237.96 641.22C237.29 641.22 236.74 640.67 236.74 640C236.74 639.33 237.29 638.78 237.96 638.78C238.63 638.78 239.18 639.33 239.18 640C239.18 640.67 238.63 641.22 237.96 641.22ZM237.96 834.07C236.77 834.07 235.8 835.04 235.8 836.23C235.8 837.42 236.77 838.39 237.96 838.39C239.15 838.39 240.12 837.42 240.12 836.23C240.12 835.04 239.15 834.07 237.96 834.07ZM237.96 837.45C237.29 837.45 236.74 836.9 236.74 836.23C236.74 835.56 237.29 835.01 237.96 835.01C238.63 835.01 239.18 835.56 239.18 836.23C239.18 836.9 238.63 837.45 237.96 837.45ZM237.96 931.76C236.77 931.76 235.8 932.73 235.8 933.92C235.8 935.11 236.77 936.08 237.96 936.08C239.15 936.08 240.12 935.11 240.12 933.92C240.12 932.73 239.15 931.76 237.96 931.76ZM237.96 935.14C237.29 935.14 236.74 934.59 236.74 933.92C236.74 933.25 237.29 932.7 237.96 932.7C238.63 932.7 239.18 933.25 239.18 933.92C239.18 934.59 238.63 935.14 237.96 935.14ZM237.96 735.96C236.77 735.96 235.8 736.93 235.8 738.12C235.8 739.31 236.77 740.28 237.96 740.28C239.15 740.28 240.12 739.31 240.12 738.12C240.12 736.92 239.15 735.96 237.96 735.96ZM237.96 739.33C237.29 739.33 236.74 738.78 236.74 738.11C236.74 737.44 237.29 736.89 237.96 736.89C238.63 736.89 239.18 737.44 239.18 738.11C239.18 738.78 238.63 739.33 237.96 739.33ZM335.88 442C334.69 442 333.72 442.97 333.72 444.16C333.72 445.35 334.69 446.32 335.88 446.32C337.07 446.32 338.04 445.35 338.04 444.16C338.04 442.97 337.07 442 335.88 442ZM335.88 445.38C335.21 445.38 334.66 444.83 334.66 444.16C334.66 443.49 335.21 442.94 335.88 442.94C336.55 442.94 337.1 443.49 337.1 444.16C337.1 444.83 336.56 445.38 335.88 445.38ZM335.88 637.84C334.69 637.84 333.72 638.81 333.72 640C333.72 641.19 334.69 642.16 335.88 642.16C337.07 642.16 338.04 641.19 338.04 640C338.04 638.81 337.07 637.84 335.88 637.84ZM335.88 641.22C335.21 641.22 334.66 640.67 334.66 640C334.66 639.33 335.21 638.78 335.88 638.78C336.55 638.78 337.1 639.33 337.1 640C337.1 640.67 336.56 641.22 335.88 641.22ZM335.88 834.07C334.69 834.07 333.72 835.04 333.72 836.23C333.72 837.42 334.69 838.39 335.88 838.39C337.07 838.39 338.04 837.42 338.04 836.23C338.04 835.04 337.07 834.07 335.88 834.07ZM335.88 837.45C335.21 837.45 334.66 836.9 334.66 836.23C334.66 835.56 335.21 835.01 335.88 835.01C336.55 835.01 337.1 835.56 337.1 836.23C337.1 836.9 336.56 837.45 335.88 837.45ZM335.88 931.76C334.69 931.76 333.72 932.73 333.72 933.92C333.72 935.11 334.69 936.08 335.88 936.08C337.07 936.08 338.04 935.11 338.04 933.92C338.04 932.73 337.07 931.76 335.88 931.76ZM335.88 935.14C335.21 935.14 334.66 934.59 334.66 933.92C334.66 933.25 335.21 932.7 335.88 932.7C336.55 932.7 337.1 933.25 337.1 933.92C337.1 934.59 336.56 935.14 335.88 935.14ZM335.88 735.96C334.69 735.96 333.72 736.93 333.72 738.12C333.72 739.31 334.69 740.28 335.88 740.28C337.07 740.28 338.04 739.31 338.04 738.12C338.04 736.92 337.07 735.96 335.88 735.96ZM335.88 739.33C335.21 739.33 334.66 738.78 334.66 738.11C334.66 737.44 335.21 736.89 335.88 736.89C336.55 736.89 337.1 737.44 337.1 738.11C337.1 738.78 336.56 739.33 335.88 739.33ZM433.8 442C432.61 442 431.64 442.97 431.64 444.16C431.64 445.35 432.61 446.32 433.8 446.32C434.99 446.32 435.96 445.35 435.96 444.16C435.96 442.97 434.99 442 433.8 442ZM433.8 445.38C433.13 445.38 432.58 444.83 432.58 444.16C432.58 443.49 433.13 442.94 433.8 442.94C434.47 442.94 435.02 443.49 435.02 444.16C435.02 444.83 434.48 445.38 433.8 445.38ZM433.8 637.84C432.61 637.84 431.64 638.81 431.64 640C431.64 641.19 432.61 642.16 433.8 642.16C434.99 642.16 435.96 641.19 435.96 640C435.96 638.81 434.99 637.84 433.8 637.84ZM433.8 641.22C433.13 641.22 432.58 640.67 432.58 640C432.58 639.33 433.13 638.78 433.8 638.78C434.47 638.78 435.02 639.33 435.02 640C435.02 640.67 434.48 641.22 433.8 641.22ZM433.8 834.07C432.61 834.07 431.64 835.04 431.64 836.23C431.64 837.42 432.61 838.39 433.8 838.39C434.99 838.39 435.96 837.42 435.96 836.23C435.96 835.04 434.99 834.07 433.8 834.07ZM433.8 837.45C433.13 837.45 432.58 836.9 432.58 836.23C432.58 835.56 433.13 835.01 433.8 835.01C434.47 835.01 435.02 835.56 435.02 836.23C435.02 836.9 434.48 837.45 433.8 837.45ZM433.8 931.76C432.61 931.76 431.64 932.73 431.64 933.92C431.64 935.11 432.61 936.08 433.8 936.08C434.99 936.08 435.96 935.11 435.96 933.92C435.96 932.73 434.99 931.76 433.8 931.76ZM433.8 935.14C433.13 935.14 432.58 934.59 432.58 933.92C432.58 933.25 433.13 932.7 433.8 932.7C434.47 932.7 435.02 933.25 435.02 933.92C435.02 934.59 434.48 935.14 433.8 935.14ZM433.8 735.96C432.61 735.96 431.64 736.93 431.64 738.12C431.64 739.31 432.61 740.28 433.8 740.28C434.99 740.28 435.96 739.31 435.96 738.12C435.96 736.92 434.99 735.96 433.8 735.96ZM433.8 739.33C433.13 739.33 432.58 738.78 432.58 738.11C432.58 737.44 433.13 736.89 433.8 736.89C434.47 736.89 435.02 737.44 435.02 738.11C435.02 738.78 434.48 739.33 433.8 739.33ZM189 442.08C187.81 442.08 186.84 443.05 186.84 444.24C186.84 445.43 187.81 446.4 189 446.4C190.19 446.4 191.16 445.43 191.16 444.24C191.16 443.05 190.19 442.08 189 442.08ZM189 445.46C188.33 445.46 187.78 444.91 187.78 444.24C187.78 443.57 188.33 443.02 189 443.02C189.67 443.02 190.22 443.57 190.22 444.24C190.22 444.91 189.67 445.46 189 445.46ZM189 637.93C187.81 637.93 186.84 638.9 186.84 640.09C186.84 641.28 187.81 642.25 189 642.25C190.19 642.25 191.16 641.28 191.16 640.09C191.16 638.9 190.19 637.93 189 637.93ZM189 641.31C188.33 641.31 187.78 640.76 187.78 640.09C187.78 639.42 188.33 638.87 189 638.87C189.67 638.87 190.22 639.42 190.22 640.09C190.22 640.76 189.67 641.31 189 641.31ZM189 834.15C187.81 834.15 186.84 835.12 186.84 836.31C186.84 837.5 187.81 838.47 189 838.47C190.19 838.47 191.16 837.5 191.16 836.31C191.16 835.12 190.19 834.15 189 834.15ZM189 837.53C188.33 837.53 187.78 836.98 187.78 836.31C187.78 835.64 188.33 835.09 189 835.09C189.67 835.09 190.22 835.64 190.22 836.31C190.22 836.98 189.67 837.53 189 837.53ZM189 931.84C187.81 931.84 186.84 932.81 186.84 934C186.84 935.19 187.81 936.16 189 936.16C190.19 936.16 191.16 935.19 191.16 934C191.16 932.81 190.19 931.84 189 931.84ZM189 935.22C188.33 935.22 187.78 934.67 187.78 934C187.78 933.33 188.33 932.78 189 932.78C189.67 932.78 190.22 933.33 190.22 934C190.22 934.67 189.67 935.22 189 935.22ZM189 736.04C187.81 736.04 186.84 737.01 186.84 738.2C186.84 739.39 187.81 740.36 189 740.36C190.19 740.36 191.16 739.39 191.16 738.2C191.16 737.01 190.19 736.04 189 736.04ZM189 739.42C188.33 739.42 187.78 738.87 187.78 738.2C187.78 737.53 188.33 736.98 189 736.98C189.67 736.98 190.22 737.53 190.22 738.2C190.22 738.87 189.67 739.42 189 739.42ZM42.12 442.08C40.93 442.08 39.96 443.05 39.96 444.24C39.96 445.43 40.93 446.4 42.12 446.4C43.31 446.4 44.28 445.43 44.28 444.24C44.27 443.05 43.31 442.08 42.12 442.08ZM42.12 445.46C41.45 445.46 40.9 444.91 40.9 444.24C40.9 443.57 41.45 443.02 42.12 443.02C42.79 443.02 43.34 443.57 43.34 444.24C43.34 444.91 42.79 445.46 42.12 445.46ZM42.12 637.93C40.93 637.93 39.96 638.9 39.96 640.09C39.96 641.28 40.93 642.25 42.12 642.25C43.31 642.25 44.28 641.28 44.28 640.09C44.27 638.9 43.31 637.93 42.12 637.93ZM42.12 641.31C41.45 641.31 40.9 640.76 40.9 640.09C40.9 639.42 41.45 638.87 42.12 638.87C42.79 638.87 43.34 639.42 43.34 640.09C43.34 640.76 42.79 641.31 42.12 641.31ZM42.12 834.15C40.93 834.15 39.96 835.12 39.96 836.31C39.96 837.5 40.93 838.47 42.12 838.47C43.31 838.47 44.28 837.5 44.28 836.31C44.27 835.12 43.31 834.15 42.12 834.15ZM42.12 837.53C41.45 837.53 40.9 836.98 40.9 836.31C40.9 835.64 41.45 835.09 42.12 835.09C42.79 835.09 43.34 835.64 43.34 836.31C43.34 836.98 42.79 837.53 42.12 837.53ZM42.12 931.84C40.93 931.84 39.96 932.81 39.96 934C39.96 935.19 40.93 936.16 42.12 936.16C43.31 936.16 44.28 935.19 44.28 934C44.28 932.81 43.31 931.84 42.12 931.84ZM42.12 935.22C41.45 935.22 40.9 934.67 40.9 934C40.9 933.33 41.45 932.78 42.12 932.78C42.79 932.78 43.34 933.33 43.34 934C43.34 934.67 42.79 935.22 42.12 935.22ZM42.12 736.04C40.93 736.04 39.96 737.01 39.96 738.2C39.96 739.39 40.93 740.36 42.12 740.36C43.31 740.36 44.28 739.39 44.28 738.2C44.28 737.01 43.31 736.04 42.12 736.04ZM42.12 739.42C41.45 739.42 40.9 738.87 40.9 738.2C40.9 737.53 41.45 736.98 42.12 736.98C42.79 736.98 43.34 737.53 43.34 738.2C43.34 738.87 42.79 739.42 42.12 739.42ZM286.92 442.08C285.73 442.08 284.76 443.05 284.76 444.24C284.76 445.43 285.73 446.4 286.92 446.4C288.11 446.4 289.08 445.43 289.08 444.24C289.08 443.05 288.11 442.08 286.92 442.08ZM286.92 445.46C286.25 445.46 285.7 444.91 285.7 444.24C285.7 443.57 286.25 443.02 286.92 443.02C287.59 443.02 288.14 443.57 288.14 444.24C288.14 444.91 287.59 445.46 286.92 445.46ZM286.92 637.93C285.73 637.93 284.76 638.9 284.76 640.09C284.76 641.28 285.73 642.25 286.92 642.25C288.11 642.25 289.08 641.28 289.08 640.09C289.08 638.9 288.11 637.93 286.92 637.93ZM286.92 641.31C286.25 641.31 285.7 640.76 285.7 640.09C285.7 639.42 286.25 638.87 286.92 638.87C287.59 638.87 288.14 639.42 288.14 640.09C288.14 640.76 287.59 641.31 286.92 641.31ZM286.92 834.15C285.73 834.15 284.76 835.12 284.76 836.31C284.76 837.5 285.73 838.47 286.92 838.47C288.11 838.47 289.08 837.5 289.08 836.31C289.08 835.12 288.11 834.15 286.92 834.15ZM286.92 837.53C286.25 837.53 285.7 836.98 285.7 836.31C285.7 835.64 286.25 835.09 286.92 835.09C287.59 835.09 288.14 835.64 288.14 836.31C288.14 836.98 287.59 837.53 286.92 837.53ZM286.92 931.84C285.73 931.84 284.76 932.81 284.76 934C284.76 935.19 285.73 936.16 286.92 936.16C288.11 936.16 289.08 935.19 289.08 934C289.08 932.81 288.11 931.84 286.92 931.84ZM286.92 935.22C286.25 935.22 285.7 934.67 285.7 934C285.7 933.33 286.25 932.78 286.92 932.78C287.59 932.78 288.14 933.33 288.14 934C288.14 934.67 287.59 935.22 286.92 935.22ZM286.92 736.04C285.73 736.04 284.76 737.01 284.76 738.2C284.76 739.39 285.73 740.36 286.92 740.36C288.11 740.36 289.08 739.39 289.08 738.2C289.08 737.01 288.11 736.04 286.92 736.04ZM286.92 739.42C286.25 739.42 285.7 738.87 285.7 738.2C285.7 737.53 286.25 736.98 286.92 736.98C287.59 736.98 288.14 737.53 288.14 738.2C288.14 738.87 287.59 739.42 286.92 739.42ZM384.84 442.08C383.65 442.08 382.68 443.05 382.68 444.24C382.68 445.43 383.65 446.4 384.84 446.4C386.03 446.4 387 445.43 387 444.24C387 443.05 386.03 442.08 384.84 442.08ZM384.84 445.46C384.17 445.46 383.62 444.91 383.62 444.24C383.62 443.57 384.17 443.02 384.84 443.02C385.51 443.02 386.06 443.57 386.06 444.24C386.06 444.91 385.52 445.46 384.84 445.46ZM384.84 637.93C383.65 637.93 382.68 638.9 382.68 640.09C382.68 641.28 383.65 642.25 384.84 642.25C386.03 642.25 387 641.28 387 640.09C387 638.9 386.03 637.93 384.84 637.93ZM384.84 641.31C384.17 641.31 383.62 640.76 383.62 640.09C383.62 639.42 384.17 638.87 384.84 638.87C385.51 638.87 386.06 639.42 386.06 640.09C386.06 640.76 385.52 641.31 384.84 641.31ZM384.84 834.15C383.65 834.15 382.68 835.12 382.68 836.31C382.68 837.5 383.65 838.47 384.84 838.47C386.03 838.47 387 837.5 387 836.31C387 835.12 386.03 834.15 384.84 834.15ZM384.84 837.53C384.17 837.53 383.62 836.98 383.62 836.31C383.62 835.64 384.17 835.09 384.84 835.09C385.51 835.09 386.06 835.64 386.06 836.31C386.06 836.98 385.52 837.53 384.84 837.53ZM384.84 931.84C383.65 931.84 382.68 932.81 382.68 934C382.68 935.19 383.65 936.16 384.84 936.16C386.03 936.16 387 935.19 387 934C387 932.81 386.03 931.84 384.84 931.84ZM384.84 935.22C384.17 935.22 383.62 934.67 383.62 934C383.62 933.33 384.17 932.78 384.84 932.78C385.51 932.78 386.06 933.33 386.06 934C386.06 934.67 385.52 935.22 384.84 935.22ZM384.84 736.04C383.65 736.04 382.68 737.01 382.68 738.2C382.68 739.39 383.65 740.36 384.84 740.36C386.03 740.36 387 739.39 387 738.2C387 737.01 386.03 736.04 384.84 736.04ZM384.84 739.42C384.17 739.42 383.62 738.87 383.62 738.2C383.62 737.53 384.17 736.98 384.84 736.98C385.51 736.98 386.06 737.53 386.06 738.2C386.06 738.87 385.52 739.42 384.84 739.42ZM482.77 446.31C483.96 446.31 484.93 445.34 484.93 444.15C484.93 442.96 483.96 441.99 482.77 441.99C481.58 441.99 480.61 442.96 480.61 444.15C480.61 445.34 481.58 446.31 482.77 446.31ZM482.77 442.94C483.44 442.94 483.99 443.49 483.99 444.16C483.99 444.83 483.44 445.38 482.77 445.38C482.1 445.38 481.55 444.83 481.55 444.16C481.55 443.49 482.09 442.94 482.77 442.94ZM-6.84 539.88C-8.03 539.88 -9 540.85 -9 542.04C-9 543.23 -8.03 544.2 -6.84 544.2C-5.65 544.2 -4.68 543.23 -4.68 542.04C-4.69 540.85 -5.66 539.88 -6.84 539.88ZM-6.84 543.26C-7.51 543.26 -8.06 542.71 -8.06 542.04C-8.06 541.37 -7.51 540.82 -6.84 540.82C-6.17 540.82 -5.62 541.37 -5.62 542.04C-5.62 542.71 -6.17 543.26 -6.84 543.26ZM91.08 539.88C89.89 539.88 88.92 540.85 88.92 542.04C88.92 543.23 89.89 544.2 91.08 544.2C92.27 544.2 93.24 543.23 93.24 542.04C93.23 540.85 92.27 539.88 91.08 539.88ZM91.08 543.26C90.41 543.26 89.86 542.71 89.86 542.04C89.86 541.37 90.41 540.82 91.08 540.82C91.75 540.82 92.3 541.37 92.3 542.04C92.3 542.71 91.75 543.26 91.08 543.26ZM140.04 539.88C138.85 539.88 137.88 540.85 137.88 542.04C137.88 543.23 138.85 544.2 140.04 544.2C141.23 544.2 142.2 543.23 142.2 542.04C142.19 540.85 141.23 539.88 140.04 539.88ZM140.04 543.26C139.37 543.26 138.82 542.71 138.82 542.04C138.82 541.37 139.37 540.82 140.04 540.82C140.71 540.82 141.26 541.37 141.26 542.04C141.26 542.71 140.71 543.26 140.04 543.26ZM237.96 539.88C236.77 539.88 235.8 540.85 235.8 542.04C235.8 543.23 236.77 544.2 237.96 544.2C239.15 544.2 240.12 543.23 240.12 542.04C240.12 540.85 239.15 539.88 237.96 539.88ZM237.96 543.26C237.29 543.26 236.74 542.71 236.74 542.04C236.74 541.37 237.29 540.82 237.96 540.82C238.63 540.82 239.18 541.37 239.18 542.04C239.18 542.71 238.63 543.26 237.96 543.26ZM335.88 539.88C334.69 539.88 333.72 540.85 333.72 542.04C333.72 543.23 334.69 544.2 335.88 544.2C337.07 544.2 338.04 543.23 338.04 542.04C338.04 540.85 337.07 539.88 335.88 539.88ZM335.88 543.26C335.21 543.26 334.66 542.71 334.66 542.04C334.66 541.37 335.21 540.82 335.88 540.82C336.55 540.82 337.1 541.37 337.1 542.04C337.1 542.71 336.56 543.26 335.88 543.26ZM433.8 539.88C432.61 539.88 431.64 540.85 431.64 542.04C431.64 543.23 432.61 544.2 433.8 544.2C434.99 544.2 435.96 543.23 435.96 542.04C435.96 540.85 434.99 539.88 433.8 539.88ZM433.8 543.26C433.13 543.26 432.58 542.71 432.58 542.04C432.58 541.37 433.13 540.82 433.8 540.82C434.47 540.82 435.02 541.37 435.02 542.04C435.02 542.71 434.48 543.26 433.8 543.26ZM189 539.96C187.81 539.96 186.84 540.93 186.84 542.12C186.84 543.31 187.81 544.28 189 544.28C190.19 544.28 191.16 543.31 191.16 542.12C191.16 540.93 190.19 539.96 189 539.96ZM189 543.34C188.33 543.34 187.78 542.79 187.78 542.12C187.78 541.45 188.33 540.9 189 540.9C189.67 540.9 190.22 541.45 190.22 542.12C190.22 542.79 189.67 543.34 189 543.34ZM42.12 539.96C40.93 539.96 39.96 540.93 39.96 542.12C39.96 543.31 40.93 544.28 42.12 544.28C43.31 544.28 44.28 543.31 44.28 542.12C44.28 540.93 43.31 539.96 42.12 539.96ZM42.12 543.34C41.45 543.34 40.9 542.79 40.9 542.12C40.9 541.45 41.45 540.9 42.12 540.9C42.79 540.9 43.34 541.45 43.34 542.12C43.34 542.79 42.79 543.34 42.12 543.34ZM286.92 539.96C285.73 539.96 284.76 540.93 284.76 542.12C284.76 543.31 285.73 544.28 286.92 544.28C288.11 544.28 289.08 543.31 289.08 542.12C289.08 540.93 288.11 539.96 286.92 539.96ZM286.92 543.34C286.25 543.34 285.7 542.79 285.7 542.12C285.7 541.45 286.25 540.9 286.92 540.9C287.59 540.9 288.14 541.45 288.14 542.12C288.14 542.79 287.59 543.34 286.92 543.34ZM384.84 539.96C383.65 539.96 382.68 540.93 382.68 542.12C382.68 543.31 383.65 544.28 384.84 544.28C386.03 544.28 387 543.31 387 542.12C387 540.93 386.03 539.96 384.84 539.96ZM384.84 543.34C384.17 543.34 383.62 542.79 383.62 542.12C383.62 541.45 384.17 540.9 384.84 540.9C385.51 540.9 386.06 541.45 386.06 542.12C386.06 542.79 385.52 543.34 384.84 543.34ZM482.77 539.88C481.58 539.88 480.61 540.85 480.61 542.04C480.61 543.23 481.58 544.2 482.77 544.2C483.96 544.2 484.93 543.23 484.93 542.04C484.92 540.85 483.95 539.88 482.77 539.88ZM482.77 543.26C482.1 543.26 481.55 542.71 481.55 542.04C481.55 541.37 482.1 540.82 482.77 540.82C483.44 540.82 483.99 541.37 483.99 542.04C483.99 542.71 483.44 543.26 482.77 543.26ZM-6.84 491.11C-8.03 491.11 -9 492.08 -9 493.27C-9 494.46 -8.03 495.43 -6.84 495.43C-5.65 495.43 -4.68 494.46 -4.68 493.27C-4.68 492.08 -5.66 491.11 -6.84 491.11ZM-6.84 494.49C-7.51 494.49 -8.06 493.94 -8.06 493.27C-8.06 492.6 -7.51 492.05 -6.84 492.05C-6.17 492.05 -5.62 492.6 -5.62 493.27C-5.62 493.94 -6.17 494.49 -6.84 494.49ZM91.08 491.11C89.89 491.11 88.92 492.08 88.92 493.27C88.92 494.46 89.89 495.43 91.08 495.43C92.27 495.43 93.24 494.46 93.24 493.27C93.24 492.08 92.27 491.11 91.08 491.11ZM91.08 494.49C90.41 494.49 89.86 493.94 89.86 493.27C89.86 492.6 90.41 492.05 91.08 492.05C91.75 492.05 92.3 492.6 92.3 493.27C92.3 493.94 91.75 494.49 91.08 494.49ZM140.04 491.11C138.85 491.11 137.88 492.08 137.88 493.27C137.88 494.46 138.85 495.43 140.04 495.43C141.23 495.43 142.2 494.46 142.2 493.27C142.2 492.08 141.23 491.11 140.04 491.11ZM140.04 494.49C139.37 494.49 138.82 493.94 138.82 493.27C138.82 492.6 139.37 492.05 140.04 492.05C140.71 492.05 141.26 492.6 141.26 493.27C141.26 493.94 140.71 494.49 140.04 494.49ZM237.96 491.11C236.77 491.11 235.8 492.08 235.8 493.27C235.8 494.46 236.77 495.43 237.96 495.43C239.15 495.43 240.12 494.46 240.12 493.27C240.12 492.08 239.15 491.11 237.96 491.11ZM237.96 494.49C237.29 494.49 236.74 493.94 236.74 493.27C236.74 492.6 237.29 492.05 237.96 492.05C238.63 492.05 239.18 492.6 239.18 493.27C239.18 493.94 238.63 494.49 237.96 494.49ZM335.88 491.11C334.69 491.11 333.72 492.08 333.72 493.27C333.72 494.46 334.69 495.43 335.88 495.43C337.07 495.43 338.04 494.46 338.04 493.27C338.04 492.08 337.07 491.11 335.88 491.11ZM335.88 494.49C335.21 494.49 334.66 493.94 334.66 493.27C334.66 492.6 335.21 492.05 335.88 492.05C336.55 492.05 337.1 492.6 337.1 493.27C337.1 493.94 336.56 494.49 335.88 494.49ZM433.8 491.11C432.61 491.11 431.64 492.08 431.64 493.27C431.64 494.46 432.61 495.43 433.8 495.43C434.99 495.43 435.96 494.46 435.96 493.27C435.96 492.08 434.99 491.11 433.8 491.11ZM433.8 494.49C433.13 494.49 432.58 493.94 432.58 493.27C432.58 492.6 433.13 492.05 433.8 492.05C434.47 492.05 435.02 492.6 435.02 493.27C435.02 493.94 434.48 494.49 433.8 494.49ZM189 491.19C187.81 491.19 186.84 492.16 186.84 493.35C186.84 494.54 187.81 495.51 189 495.51C190.19 495.51 191.16 494.54 191.16 493.35C191.16 492.16 190.19 491.19 189 491.19ZM189 494.57C188.33 494.57 187.78 494.02 187.78 493.35C187.78 492.68 188.33 492.13 189 492.13C189.67 492.13 190.22 492.68 190.22 493.35C190.22 494.02 189.67 494.57 189 494.57ZM42.12 491.19C40.93 491.19 39.96 492.16 39.96 493.35C39.96 494.54 40.93 495.51 42.12 495.51C43.31 495.51 44.28 494.54 44.28 493.35C44.28 492.16 43.31 491.19 42.12 491.19ZM42.12 494.57C41.45 494.57 40.9 494.02 40.9 493.35C40.9 492.68 41.45 492.13 42.12 492.13C42.79 492.13 43.34 492.68 43.34 493.35C43.34 494.02 42.79 494.57 42.12 494.57ZM286.92 491.19C285.73 491.19 284.76 492.16 284.76 493.35C284.76 494.54 285.73 495.51 286.92 495.51C288.11 495.51 289.08 494.54 289.08 493.35C289.08 492.16 288.11 491.19 286.92 491.19ZM286.92 494.57C286.25 494.57 285.7 494.02 285.7 493.35C285.7 492.68 286.25 492.13 286.92 492.13C287.59 492.13 288.14 492.68 288.14 493.35C288.14 494.02 287.59 494.57 286.92 494.57ZM384.84 491.19C383.65 491.19 382.68 492.16 382.68 493.35C382.68 494.54 383.65 495.51 384.84 495.51C386.03 495.51 387 494.54 387 493.35C387 492.16 386.03 491.19 384.84 491.19ZM384.84 494.57C384.17 494.57 383.62 494.02 383.62 493.35C383.62 492.68 384.17 492.13 384.84 492.13C385.51 492.13 386.06 492.68 386.06 493.35C386.06 494.02 385.52 494.57 384.84 494.57ZM482.77 491.11C481.58 491.11 480.61 492.08 480.61 493.27C480.61 494.46 481.58 495.43 482.77 495.43C483.96 495.43 484.93 494.46 484.93 493.27C484.93 492.08 483.95 491.11 482.77 491.11ZM482.77 494.49C482.1 494.49 481.55 493.94 481.55 493.27C481.55 492.6 482.1 492.05 482.77 492.05C483.44 492.05 483.99 492.6 483.99 493.27C483.99 493.94 483.44 494.49 482.77 494.49ZM482.77 637.84C481.58 637.84 480.61 638.81 480.61 640C480.61 641.19 481.58 642.16 482.77 642.16C483.96 642.16 484.93 641.19 484.93 640C484.92 638.81 483.95 637.84 482.77 637.84ZM482.77 641.22C482.1 641.22 481.55 640.67 481.55 640C481.55 639.33 482.1 638.78 482.77 638.78C483.44 638.78 483.99 639.33 483.99 640C483.99 640.67 483.44 641.22 482.77 641.22ZM482.77 834.07C481.58 834.07 480.61 835.04 480.61 836.23C480.61 837.42 481.58 838.39 482.77 838.39C483.96 838.39 484.93 837.42 484.93 836.23C484.93 835.04 483.95 834.07 482.77 834.07ZM482.77 837.45C482.1 837.45 481.55 836.9 481.55 836.23C481.55 835.56 482.1 835.01 482.77 835.01C483.44 835.01 483.99 835.56 483.99 836.23C483.99 836.9 483.44 837.45 482.77 837.45ZM482.77 931.76C481.58 931.76 480.61 932.73 480.61 933.92C480.61 935.11 481.58 936.08 482.77 936.08C483.96 936.08 484.93 935.11 484.93 933.92C484.92 932.73 483.95 931.76 482.77 931.76ZM482.77 935.14C482.1 935.14 481.55 934.59 481.55 933.92C481.55 933.25 482.1 932.7 482.77 932.7C483.44 932.7 483.99 933.25 483.99 933.92C483.99 934.59 483.44 935.14 482.77 935.14ZM482.77 735.96C481.58 735.96 480.61 736.93 480.61 738.12C480.61 739.31 481.58 740.28 482.77 740.28C483.96 740.28 484.93 739.31 484.93 738.12C484.92 736.92 483.95 735.96 482.77 735.96ZM482.77 739.33C482.1 739.33 481.55 738.78 481.55 738.11C481.55 737.44 482.1 736.89 482.77 736.89C483.44 736.89 483.99 737.44 483.99 738.11C483.99 738.78 483.44 739.33 482.77 739.33ZM-6.84 588.84C-8.03 588.84 -9 589.81 -9 591C-9 592.19 -8.03 593.16 -6.84 593.16C-5.65 593.16 -4.68 592.19 -4.68 591C-4.69 589.81 -5.66 588.84 -6.84 588.84ZM-6.84 592.22C-7.51 592.22 -8.06 591.67 -8.06 591C-8.06 590.33 -7.51 589.78 -6.84 589.78C-6.17 589.78 -5.62 590.33 -5.62 591C-5.62 591.67 -6.17 592.22 -6.84 592.22ZM91.08 588.84C89.89 588.84 88.92 589.81 88.92 591C88.92 592.19 89.89 593.16 91.08 593.16C92.27 593.16 93.24 592.19 93.24 591C93.23 589.81 92.27 588.84 91.08 588.84ZM91.08 592.22C90.41 592.22 89.86 591.67 89.86 591C89.86 590.33 90.41 589.78 91.08 589.78C91.75 589.78 92.3 590.33 92.3 591C92.3 591.67 91.75 592.22 91.08 592.22ZM140.04 588.84C138.85 588.84 137.88 589.81 137.88 591C137.88 592.19 138.85 593.16 140.04 593.16C141.23 593.16 142.2 592.19 142.2 591C142.19 589.81 141.23 588.84 140.04 588.84ZM140.04 592.22C139.37 592.22 138.82 591.67 138.82 591C138.82 590.33 139.37 589.78 140.04 589.78C140.71 589.78 141.26 590.33 141.26 591C141.26 591.67 140.71 592.22 140.04 592.22ZM237.96 588.84C236.77 588.84 235.8 589.81 235.8 591C235.8 592.19 236.77 593.16 237.96 593.16C239.15 593.16 240.12 592.19 240.12 591C240.12 589.81 239.15 588.84 237.96 588.84ZM237.96 592.22C237.29 592.22 236.74 591.67 236.74 591C236.74 590.33 237.29 589.78 237.96 589.78C238.63 589.78 239.18 590.33 239.18 591C239.18 591.67 238.63 592.22 237.96 592.22ZM335.88 588.84C334.69 588.84 333.72 589.81 333.72 591C333.72 592.19 334.69 593.16 335.88 593.16C337.07 593.16 338.04 592.19 338.04 591C338.04 589.81 337.07 588.84 335.88 588.84ZM335.88 592.22C335.21 592.22 334.66 591.67 334.66 591C334.66 590.33 335.21 589.78 335.88 589.78C336.55 589.78 337.1 590.33 337.1 591C337.1 591.67 336.56 592.22 335.88 592.22ZM433.8 588.84C432.61 588.84 431.64 589.81 431.64 591C431.64 592.19 432.61 593.16 433.8 593.16C434.99 593.16 435.96 592.19 435.96 591C435.96 589.81 434.99 588.84 433.8 588.84ZM433.8 592.22C433.13 592.22 432.58 591.67 432.58 591C432.58 590.33 433.13 589.78 433.8 589.78C434.47 589.78 435.02 590.33 435.02 591C435.02 591.67 434.48 592.22 433.8 592.22ZM189 588.92C187.81 588.92 186.84 589.89 186.84 591.08C186.84 592.27 187.81 593.24 189 593.24C190.19 593.24 191.16 592.27 191.16 591.08C191.16 589.89 190.19 588.92 189 588.92ZM189 592.3C188.33 592.3 187.78 591.75 187.78 591.08C187.78 590.41 188.33 589.86 189 589.86C189.67 589.86 190.22 590.41 190.22 591.08C190.22 591.75 189.67 592.3 189 592.3ZM42.12 588.92C40.93 588.92 39.96 589.89 39.96 591.08C39.96 592.27 40.93 593.24 42.12 593.24C43.31 593.24 44.28 592.27 44.28 591.08C44.28 589.89 43.31 588.92 42.12 588.92ZM42.12 592.3C41.45 592.3 40.9 591.75 40.9 591.08C40.9 590.41 41.45 589.86 42.12 589.86C42.79 589.86 43.34 590.41 43.34 591.08C43.34 591.75 42.79 592.3 42.12 592.3ZM286.92 588.92C285.73 588.92 284.76 589.89 284.76 591.08C284.76 592.27 285.73 593.24 286.92 593.24C288.11 593.24 289.08 592.27 289.08 591.08C289.08 589.89 288.11 588.92 286.92 588.92ZM286.92 592.3C286.25 592.3 285.7 591.75 285.7 591.08C285.7 590.41 286.25 589.86 286.92 589.86C287.59 589.86 288.14 590.41 288.14 591.08C288.14 591.75 287.59 592.3 286.92 592.3ZM384.84 588.92C383.65 588.92 382.68 589.89 382.68 591.08C382.68 592.27 383.65 593.24 384.84 593.24C386.03 593.24 387 592.27 387 591.08C387 589.89 386.03 588.92 384.84 588.92ZM384.84 592.3C384.17 592.3 383.62 591.75 383.62 591.08C383.62 590.41 384.17 589.86 384.84 589.86C385.51 589.86 386.06 590.41 386.06 591.08C386.06 591.75 385.52 592.3 384.84 592.3ZM482.77 588.84C481.58 588.84 480.61 589.81 480.61 591C480.61 592.19 481.58 593.16 482.77 593.16C483.96 593.16 484.93 592.19 484.93 591C484.92 589.81 483.95 588.84 482.77 588.84ZM482.77 592.22C482.1 592.22 481.55 591.67 481.55 591C481.55 590.33 482.1 589.78 482.77 589.78C483.44 589.78 483.99 590.33 483.99 591C483.99 591.67 483.44 592.22 482.77 592.22ZM-6.84 686.57C-8.03 686.57 -9 687.54 -9 688.73C-9 689.92 -8.03 690.89 -6.84 690.89C-5.65 690.89 -4.68 689.92 -4.68 688.73C-4.69 687.54 -5.66 686.57 -6.84 686.57ZM-6.84 689.95C-7.51 689.95 -8.06 689.4 -8.06 688.73C-8.06 688.06 -7.51 687.51 -6.84 687.51C-6.17 687.51 -5.62 688.06 -5.62 688.73C-5.62 689.4 -6.17 689.95 -6.84 689.95ZM91.08 686.57C89.89 686.57 88.92 687.54 88.92 688.73C88.92 689.92 89.89 690.89 91.08 690.89C92.27 690.89 93.24 689.92 93.24 688.73C93.23 687.54 92.27 686.57 91.08 686.57ZM91.08 689.95C90.41 689.95 89.86 689.4 89.86 688.73C89.86 688.06 90.41 687.51 91.08 687.51C91.75 687.51 92.3 688.06 92.3 688.73C92.3 689.4 91.75 689.95 91.08 689.95ZM140.04 686.57C138.85 686.57 137.88 687.54 137.88 688.73C137.88 689.92 138.85 690.89 140.04 690.89C141.23 690.89 142.2 689.92 142.2 688.73C142.19 687.54 141.23 686.57 140.04 686.57ZM140.04 689.95C139.37 689.95 138.82 689.4 138.82 688.73C138.82 688.06 139.37 687.51 140.04 687.51C140.71 687.51 141.26 688.06 141.26 688.73C141.26 689.4 140.71 689.95 140.04 689.95ZM237.96 686.57C236.77 686.57 235.8 687.54 235.8 688.73C235.8 689.92 236.77 690.89 237.96 690.89C239.15 690.89 240.12 689.92 240.12 688.73C240.12 687.54 239.15 686.57 237.96 686.57ZM237.96 689.95C237.29 689.95 236.74 689.4 236.74 688.73C236.74 688.06 237.29 687.51 237.96 687.51C238.63 687.51 239.18 688.06 239.18 688.73C239.18 689.4 238.63 689.95 237.96 689.95ZM335.88 686.57C334.69 686.57 333.72 687.54 333.72 688.73C333.72 689.92 334.69 690.89 335.88 690.89C337.07 690.89 338.04 689.92 338.04 688.73C338.04 687.54 337.07 686.57 335.88 686.57ZM335.88 689.95C335.21 689.95 334.66 689.4 334.66 688.73C334.66 688.06 335.21 687.51 335.88 687.51C336.55 687.51 337.1 688.06 337.1 688.73C337.1 689.4 336.56 689.95 335.88 689.95ZM433.8 686.57C432.61 686.57 431.64 687.54 431.64 688.73C431.64 689.92 432.61 690.89 433.8 690.89C434.99 690.89 435.96 689.92 435.96 688.73C435.96 687.54 434.99 686.57 433.8 686.57ZM433.8 689.95C433.13 689.95 432.58 689.4 432.58 688.73C432.58 688.06 433.13 687.51 433.8 687.51C434.47 687.51 435.02 688.06 435.02 688.73C435.02 689.4 434.48 689.95 433.8 689.95ZM189 686.66C187.81 686.66 186.84 687.63 186.84 688.82C186.84 690.01 187.81 690.98 189 690.98C190.19 690.98 191.16 690.01 191.16 688.82C191.16 687.63 190.19 686.66 189 686.66ZM189 690.03C188.33 690.03 187.78 689.48 187.78 688.81C187.78 688.14 188.33 687.59 189 687.59C189.67 687.59 190.22 688.14 190.22 688.81C190.22 689.48 189.67 690.03 189 690.03ZM42.12 686.66C40.93 686.66 39.96 687.63 39.96 688.82C39.96 690.01 40.93 690.98 42.12 690.98C43.31 690.98 44.28 690.01 44.28 688.82C44.28 687.63 43.31 686.66 42.12 686.66ZM42.12 690.03C41.45 690.03 40.9 689.48 40.9 688.81C40.9 688.14 41.45 687.59 42.12 687.59C42.79 687.59 43.34 688.14 43.34 688.81C43.34 689.48 42.79 690.03 42.12 690.03ZM286.92 686.66C285.73 686.66 284.76 687.63 284.76 688.82C284.76 690.01 285.73 690.98 286.92 690.98C288.11 690.98 289.08 690.01 289.08 688.82C289.08 687.63 288.11 686.66 286.92 686.66ZM286.92 690.03C286.25 690.03 285.7 689.48 285.7 688.81C285.7 688.14 286.25 687.59 286.92 687.59C287.59 687.59 288.14 688.14 288.14 688.81C288.14 689.48 287.59 690.03 286.92 690.03ZM384.84 686.66C383.65 686.66 382.68 687.63 382.68 688.82C382.68 690.01 383.65 690.98 384.84 690.98C386.03 690.98 387 690.01 387 688.82C387 687.63 386.03 686.66 384.84 686.66ZM384.84 690.03C384.17 690.03 383.62 689.48 383.62 688.81C383.62 688.14 384.17 687.59 384.84 687.59C385.51 687.59 386.06 688.14 386.06 688.81C386.06 689.48 385.52 690.03 384.84 690.03ZM482.77 686.57C481.58 686.57 480.61 687.54 480.61 688.73C480.61 689.92 481.58 690.89 482.77 690.89C483.96 690.89 484.93 689.92 484.93 688.73C484.92 687.54 483.95 686.57 482.77 686.57ZM482.77 689.95C482.1 689.95 481.55 689.4 481.55 688.73C481.55 688.06 482.1 687.51 482.77 687.51C483.44 687.51 483.99 688.06 483.99 688.73C483.99 689.4 483.44 689.95 482.77 689.95ZM-6.84 784.92C-8.03 784.92 -9 785.89 -9 787.08C-9 788.27 -8.03 789.24 -6.84 789.24C-5.65 789.24 -4.68 788.27 -4.68 787.08C-4.69 785.88 -5.66 784.92 -6.84 784.92ZM-6.84 788.3C-7.51 788.3 -8.06 787.75 -8.06 787.08C-8.06 786.41 -7.51 785.86 -6.84 785.86C-6.17 785.86 -5.62 786.41 -5.62 787.08C-5.62 787.75 -6.17 788.3 -6.84 788.3ZM91.08 784.92C89.89 784.92 88.92 785.89 88.92 787.08C88.92 788.27 89.89 789.24 91.08 789.24C92.27 789.24 93.24 788.27 93.24 787.08C93.23 785.88 92.27 784.92 91.08 784.92ZM91.08 788.3C90.41 788.3 89.86 787.75 89.86 787.08C89.86 786.41 90.41 785.86 91.08 785.86C91.75 785.86 92.3 786.41 92.3 787.08C92.3 787.75 91.75 788.3 91.08 788.3ZM140.04 784.92C138.85 784.92 137.88 785.89 137.88 787.08C137.88 788.27 138.85 789.24 140.04 789.24C141.23 789.24 142.2 788.27 142.2 787.08C142.19 785.88 141.23 784.92 140.04 784.92ZM140.04 788.3C139.37 788.3 138.82 787.75 138.82 787.08C138.82 786.41 139.37 785.86 140.04 785.86C140.71 785.86 141.26 786.41 141.26 787.08C141.26 787.75 140.71 788.3 140.04 788.3ZM237.96 784.92C236.77 784.92 235.8 785.89 235.8 787.08C235.8 788.27 236.77 789.24 237.96 789.24C239.15 789.24 240.12 788.27 240.12 787.08C240.12 785.88 239.15 784.92 237.96 784.92ZM237.96 788.3C237.29 788.3 236.74 787.75 236.74 787.08C236.74 786.41 237.29 785.86 237.96 785.86C238.63 785.86 239.18 786.41 239.18 787.08C239.18 787.75 238.63 788.3 237.96 788.3ZM335.88 784.92C334.69 784.92 333.72 785.89 333.72 787.08C333.72 788.27 334.69 789.24 335.88 789.24C337.07 789.24 338.04 788.27 338.04 787.08C338.04 785.88 337.07 784.92 335.88 784.92ZM335.88 788.3C335.21 788.3 334.66 787.75 334.66 787.08C334.66 786.41 335.21 785.86 335.88 785.86C336.55 785.86 337.1 786.41 337.1 787.08C337.1 787.75 336.56 788.3 335.88 788.3ZM433.8 784.92C432.61 784.92 431.64 785.89 431.64 787.08C431.64 788.27 432.61 789.24 433.8 789.24C434.99 789.24 435.96 788.27 435.96 787.08C435.96 785.88 434.99 784.92 433.8 784.92ZM433.8 788.3C433.13 788.3 432.58 787.75 432.58 787.08C432.58 786.41 433.13 785.86 433.8 785.86C434.47 785.86 435.02 786.41 435.02 787.08C435.02 787.75 434.48 788.3 433.8 788.3ZM189 785C187.81 785 186.84 785.97 186.84 787.16C186.84 788.35 187.81 789.32 189 789.32C190.19 789.32 191.16 788.35 191.16 787.16C191.16 785.97 190.19 785 189 785ZM189 788.38C188.33 788.38 187.78 787.83 187.78 787.16C187.78 786.49 188.33 785.94 189 785.94C189.67 785.94 190.22 786.49 190.22 787.16C190.22 787.83 189.67 788.38 189 788.38ZM42.12 785C40.93 785 39.96 785.97 39.96 787.16C39.96 788.35 40.93 789.32 42.12 789.32C43.31 789.32 44.28 788.35 44.28 787.16C44.27 785.97 43.31 785 42.12 785ZM42.12 788.38C41.45 788.38 40.9 787.83 40.9 787.16C40.9 786.49 41.45 785.94 42.12 785.94C42.79 785.94 43.34 786.49 43.34 787.16C43.34 787.83 42.79 788.38 42.12 788.38ZM286.92 785C285.73 785 284.76 785.97 284.76 787.16C284.76 788.35 285.73 789.32 286.92 789.32C288.11 789.32 289.08 788.35 289.08 787.16C289.08 785.97 288.11 785 286.92 785ZM286.92 788.38C286.25 788.38 285.7 787.83 285.7 787.16C285.7 786.49 286.25 785.94 286.92 785.94C287.59 785.94 288.14 786.49 288.14 787.16C288.14 787.83 287.59 788.38 286.92 788.38ZM384.84 785C383.65 785 382.68 785.97 382.68 787.16C382.68 788.35 383.65 789.32 384.84 789.32C386.03 789.32 387 788.35 387 787.16C387 785.97 386.03 785 384.84 785ZM384.84 788.38C384.17 788.38 383.62 787.83 383.62 787.16C383.62 786.49 384.17 785.94 384.84 785.94C385.51 785.94 386.06 786.49 386.06 787.16C386.06 787.83 385.52 788.38 384.84 788.38ZM482.77 784.92C481.58 784.92 480.61 785.89 480.61 787.08C480.61 788.27 481.58 789.24 482.77 789.24C483.96 789.24 484.93 788.27 484.93 787.08C484.92 785.88 483.95 784.92 482.77 784.92ZM482.77 788.3C482.1 788.3 481.55 787.75 481.55 787.08C481.55 786.41 482.1 785.86 482.77 785.86C483.44 785.86 483.99 786.41 483.99 787.08C483.99 787.75 483.44 788.3 482.77 788.3ZM-6.84 883.26C-8.03 883.26 -9 884.23 -9 885.42C-9 886.61 -8.03 887.58 -6.84 887.58C-5.65 887.58 -4.68 886.61 -4.68 885.42C-4.69 884.23 -5.66 883.26 -6.84 883.26ZM-6.84 886.64C-7.51 886.64 -8.06 886.09 -8.06 885.42C-8.06 884.75 -7.51 884.2 -6.84 884.2C-6.17 884.2 -5.62 884.75 -5.62 885.42C-5.62 886.09 -6.17 886.64 -6.84 886.64ZM91.08 883.26C89.89 883.26 88.92 884.23 88.92 885.42C88.92 886.61 89.89 887.58 91.08 887.58C92.27 887.58 93.24 886.61 93.24 885.42C93.23 884.23 92.27 883.26 91.08 883.26ZM91.08 886.64C90.41 886.64 89.86 886.09 89.86 885.42C89.86 884.75 90.41 884.2 91.08 884.2C91.75 884.2 92.3 884.75 92.3 885.42C92.3 886.09 91.75 886.64 91.08 886.64ZM140.04 883.26C138.85 883.26 137.88 884.23 137.88 885.42C137.88 886.61 138.85 887.58 140.04 887.58C141.23 887.58 142.2 886.61 142.2 885.42C142.19 884.23 141.23 883.26 140.04 883.26ZM140.04 886.64C139.37 886.64 138.82 886.09 138.82 885.42C138.82 884.75 139.37 884.2 140.04 884.2C140.71 884.2 141.26 884.75 141.26 885.42C141.26 886.09 140.71 886.64 140.04 886.64ZM237.96 883.26C236.77 883.26 235.8 884.23 235.8 885.42C235.8 886.61 236.77 887.58 237.96 887.58C239.15 887.58 240.12 886.61 240.12 885.42C240.12 884.23 239.15 883.26 237.96 883.26ZM237.96 886.64C237.29 886.64 236.74 886.09 236.74 885.42C236.74 884.75 237.29 884.2 237.96 884.2C238.63 884.2 239.18 884.75 239.18 885.42C239.18 886.09 238.63 886.64 237.96 886.64ZM335.88 883.26C334.69 883.26 333.72 884.23 333.72 885.42C333.72 886.61 334.69 887.58 335.88 887.58C337.07 887.58 338.04 886.61 338.04 885.42C338.04 884.23 337.07 883.26 335.88 883.26ZM335.88 886.64C335.21 886.64 334.66 886.09 334.66 885.42C334.66 884.75 335.21 884.2 335.88 884.2C336.55 884.2 337.1 884.75 337.1 885.42C337.1 886.09 336.56 886.64 335.88 886.64ZM433.8 883.26C432.61 883.26 431.64 884.23 431.64 885.42C431.64 886.61 432.61 887.58 433.8 887.58C434.99 887.58 435.96 886.61 435.96 885.42C435.96 884.23 434.99 883.26 433.8 883.26ZM433.8 886.64C433.13 886.64 432.58 886.09 432.58 885.42C432.58 884.75 433.13 884.2 433.8 884.2C434.47 884.2 435.02 884.75 435.02 885.42C435.02 886.09 434.48 886.64 433.8 886.64ZM189 883.35C187.81 883.35 186.84 884.32 186.84 885.51C186.84 886.7 187.81 887.67 189 887.67C190.19 887.67 191.16 886.7 191.16 885.51C191.16 884.32 190.19 883.35 189 883.35ZM189 886.73C188.33 886.73 187.78 886.18 187.78 885.51C187.78 884.84 188.33 884.29 189 884.29C189.67 884.29 190.22 884.84 190.22 885.51C190.22 886.18 189.67 886.73 189 886.73ZM42.12 883.35C40.93 883.35 39.96 884.32 39.96 885.51C39.96 886.7 40.93 887.67 42.12 887.67C43.31 887.67 44.28 886.7 44.28 885.51C44.28 884.32 43.31 883.35 42.12 883.35ZM42.12 886.73C41.45 886.73 40.9 886.18 40.9 885.51C40.9 884.84 41.45 884.29 42.12 884.29C42.79 884.29 43.34 884.84 43.34 885.51C43.34 886.18 42.79 886.73 42.12 886.73ZM286.92 883.35C285.73 883.35 284.76 884.32 284.76 885.51C284.76 886.7 285.73 887.67 286.92 887.67C288.11 887.67 289.08 886.7 289.08 885.51C289.08 884.32 288.11 883.35 286.92 883.35ZM286.92 886.73C286.25 886.73 285.7 886.18 285.7 885.51C285.7 884.84 286.25 884.29 286.92 884.29C287.59 884.29 288.14 884.84 288.14 885.51C288.14 886.18 287.59 886.73 286.92 886.73ZM384.84 883.35C383.65 883.35 382.68 884.32 382.68 885.51C382.68 886.7 383.65 887.67 384.84 887.67C386.03 887.67 387 886.7 387 885.51C387 884.32 386.03 883.35 384.84 883.35ZM384.84 886.73C384.17 886.73 383.62 886.18 383.62 885.51C383.62 884.84 384.17 884.29 384.84 884.29C385.51 884.29 386.06 884.84 386.06 885.51C386.06 886.18 385.52 886.73 384.84 886.73ZM482.77 883.26C481.58 883.26 480.61 884.23 480.61 885.42C480.61 886.61 481.58 887.58 482.77 887.58C483.96 887.58 484.93 886.61 484.93 885.42C484.92 884.23 483.95 883.26 482.77 883.26ZM482.77 886.64C482.1 886.64 481.55 886.09 481.55 885.42C481.55 884.75 482.1 884.2 482.77 884.2C483.44 884.2 483.99 884.75 483.99 885.42C483.99 886.09 483.44 886.64 482.77 886.64Z" fill="url(#paint0_linear)"/>
<path d="M-6.84 0.99999C-8.03 0.99999 -9 1.96999 -9 3.15999C-9 4.34999 -8.03 5.31999 -6.84 5.31999C-5.65 5.31999 -4.68 4.34999 -4.68 3.15999C-4.69 1.96999 -5.66 0.99999 -6.84 0.99999ZM-6.84 4.37999C-7.51 4.37999 -8.06 3.82999 -8.06 3.15999C-8.06 2.48999 -7.51 1.93999 -6.84 1.93999C-6.17 1.93999 -5.62 2.48999 -5.62 3.15999C-5.62 3.82999 -6.17 4.37999 -6.84 4.37999ZM-6.84 196.84C-8.03 196.84 -9 197.81 -9 199C-9 200.19 -8.03 201.16 -6.84 201.16C-5.65 201.16 -4.68 200.19 -4.68 199C-4.69 197.81 -5.66 196.84 -6.84 196.84ZM-6.84 200.22C-7.51 200.22 -8.06 199.67 -8.06 199C-8.06 198.33 -7.51 197.78 -6.84 197.78C-6.17 197.78 -5.62 198.33 -5.62 199C-5.62 199.67 -6.17 200.22 -6.84 200.22ZM-6.84 393.07C-8.03 393.07 -9 394.04 -9 395.23C-9 396.42 -8.03 397.39 -6.84 397.39C-5.65 397.39 -4.68 396.42 -4.68 395.23C-4.68 394.04 -5.66 393.07 -6.84 393.07ZM-6.84 396.45C-7.51 396.45 -8.06 395.9 -8.06 395.23C-8.06 394.56 -7.52 394 -6.84 394C-6.16 394 -5.62 394.55 -5.62 395.22C-5.62 395.89 -6.17 396.45 -6.84 396.45ZM-6.84 490.76C-8.03 490.76 -9 491.73 -9 492.92C-9 494.11 -8.03 495.08 -6.84 495.08C-5.65 495.08 -4.68 494.11 -4.68 492.92C-4.69 491.73 -5.66 490.76 -6.84 490.76ZM-6.84 494.14C-7.51 494.14 -8.06 493.59 -8.06 492.92C-8.06 492.25 -7.51 491.7 -6.84 491.7C-6.17 491.7 -5.62 492.25 -5.62 492.92C-5.62 493.59 -6.17 494.14 -6.84 494.14ZM-6.84 294.96C-8.03 294.96 -9 295.93 -9 297.12C-9 298.31 -8.03 299.28 -6.84 299.28C-5.65 299.28 -4.68 298.31 -4.68 297.12C-4.69 295.92 -5.66 294.96 -6.84 294.96ZM-6.84 298.33C-7.51 298.33 -8.06 297.78 -8.06 297.11C-8.06 296.44 -7.51 295.89 -6.84 295.89C-6.17 295.89 -5.62 296.44 -5.62 297.11C-5.62 297.78 -6.17 298.33 -6.84 298.33ZM91.08 0.99999C89.89 0.99999 88.92 1.96999 88.92 3.15999C88.92 4.34999 89.89 5.31999 91.08 5.31999C92.27 5.31999 93.24 4.34999 93.24 3.15999C93.23 1.96999 92.27 0.99999 91.08 0.99999ZM91.08 4.37999C90.41 4.37999 89.86 3.82999 89.86 3.15999C89.86 2.48999 90.41 1.93999 91.08 1.93999C91.75 1.93999 92.3 2.48999 92.3 3.15999C92.3 3.82999 91.75 4.37999 91.08 4.37999ZM91.08 196.84C89.89 196.84 88.92 197.81 88.92 199C88.92 200.19 89.89 201.16 91.08 201.16C92.27 201.16 93.24 200.19 93.24 199C93.23 197.81 92.27 196.84 91.08 196.84ZM91.08 200.22C90.41 200.22 89.86 199.67 89.86 199C89.86 198.33 90.41 197.78 91.08 197.78C91.75 197.78 92.3 198.33 92.3 199C92.3 199.67 91.75 200.22 91.08 200.22ZM91.08 393.07C89.89 393.07 88.92 394.04 88.92 395.23C88.92 396.42 89.89 397.39 91.08 397.39C92.27 397.39 93.24 396.42 93.24 395.23C93.24 394.04 92.27 393.07 91.08 393.07ZM91.08 396.45C90.41 396.45 89.86 395.9 89.86 395.23C89.86 394.56 90.41 394.01 91.08 394.01C91.75 394.01 92.3 394.56 92.3 395.23C92.3 395.9 91.75 396.45 91.08 396.45ZM91.08 490.76C89.89 490.76 88.92 491.73 88.92 492.92C88.92 494.11 89.89 495.08 91.08 495.08C92.27 495.08 93.24 494.11 93.24 492.92C93.23 491.73 92.27 490.76 91.08 490.76ZM91.08 494.14C90.41 494.14 89.86 493.59 89.86 492.92C89.86 492.25 90.41 491.7 91.08 491.7C91.75 491.7 92.3 492.25 92.3 492.92C92.3 493.59 91.75 494.14 91.08 494.14ZM91.08 294.96C89.89 294.96 88.92 295.93 88.92 297.12C88.92 298.31 89.89 299.28 91.08 299.28C92.27 299.28 93.24 298.31 93.24 297.12C93.23 295.92 92.27 294.96 91.08 294.96ZM91.08 298.33C90.41 298.33 89.86 297.78 89.86 297.11C89.86 296.44 90.41 295.89 91.08 295.89C91.75 295.89 92.3 296.44 92.3 297.11C92.3 297.78 91.75 298.33 91.08 298.33ZM140.04 0.99999C138.85 0.99999 137.88 1.96999 137.88 3.15999C137.88 4.34999 138.85 5.31999 140.04 5.31999C141.23 5.31999 142.2 4.34999 142.2 3.15999C142.19 1.96999 141.23 0.99999 140.04 0.99999ZM140.04 4.37999C139.37 4.37999 138.82 3.82999 138.82 3.15999C138.82 2.48999 139.37 1.93999 140.04 1.93999C140.71 1.93999 141.26 2.48999 141.26 3.15999C141.26 3.82999 140.71 4.37999 140.04 4.37999ZM140.04 196.84C138.85 196.84 137.88 197.81 137.88 199C137.88 200.19 138.85 201.16 140.04 201.16C141.23 201.16 142.2 200.19 142.2 199C142.19 197.81 141.23 196.84 140.04 196.84ZM140.04 200.22C139.37 200.22 138.82 199.67 138.82 199C138.82 198.33 139.37 197.78 140.04 197.78C140.71 197.78 141.26 198.33 141.26 199C141.26 199.67 140.71 200.22 140.04 200.22ZM140.04 393.07C138.85 393.07 137.88 394.04 137.88 395.23C137.88 396.42 138.85 397.39 140.04 397.39C141.23 397.39 142.2 396.42 142.2 395.23C142.2 394.04 141.23 393.07 140.04 393.07ZM140.04 396.45C139.37 396.45 138.82 395.9 138.82 395.23C138.82 394.56 139.37 394.01 140.04 394.01C140.71 394.01 141.26 394.56 141.26 395.23C141.26 395.9 140.71 396.45 140.04 396.45ZM140.04 490.76C138.85 490.76 137.88 491.73 137.88 492.92C137.88 494.11 138.85 495.08 140.04 495.08C141.23 495.08 142.2 494.11 142.2 492.92C142.19 491.73 141.23 490.76 140.04 490.76ZM140.04 494.14C139.37 494.14 138.82 493.59 138.82 492.92C138.82 492.25 139.37 491.7 140.04 491.7C140.71 491.7 141.26 492.25 141.26 492.92C141.26 493.59 140.71 494.14 140.04 494.14ZM140.04 294.96C138.85 294.96 137.88 295.93 137.88 297.12C137.88 298.31 138.85 299.28 140.04 299.28C141.23 299.28 142.2 298.31 142.2 297.12C142.19 295.92 141.23 294.96 140.04 294.96ZM140.04 298.33C139.37 298.33 138.82 297.78 138.82 297.11C138.82 296.44 139.37 295.89 140.04 295.89C140.71 295.89 141.26 296.44 141.26 297.11C141.26 297.78 140.71 298.33 140.04 298.33ZM237.96 0.99999C236.77 0.99999 235.8 1.96999 235.8 3.15999C235.8 4.34999 236.77 5.31999 237.96 5.31999C239.15 5.31999 240.12 4.34999 240.12 3.15999C240.12 1.96999 239.15 0.99999 237.96 0.99999ZM237.96 4.37999C237.29 4.37999 236.74 3.82999 236.74 3.15999C236.74 2.48999 237.29 1.93999 237.96 1.93999C238.63 1.93999 239.18 2.48999 239.18 3.15999C239.18 3.82999 238.63 4.37999 237.96 4.37999ZM237.96 196.84C236.77 196.84 235.8 197.81 235.8 199C235.8 200.19 236.77 201.16 237.96 201.16C239.15 201.16 240.12 200.19 240.12 199C240.12 197.81 239.15 196.84 237.96 196.84ZM237.96 200.22C237.29 200.22 236.74 199.67 236.74 199C236.74 198.33 237.29 197.78 237.96 197.78C238.63 197.78 239.18 198.33 239.18 199C239.18 199.67 238.63 200.22 237.96 200.22ZM237.96 393.07C236.77 393.07 235.8 394.04 235.8 395.23C235.8 396.42 236.77 397.39 237.96 397.39C239.15 397.39 240.12 396.42 240.12 395.23C240.12 394.04 239.15 393.07 237.96 393.07ZM237.96 396.45C237.29 396.45 236.74 395.9 236.74 395.23C236.74 394.56 237.29 394.01 237.96 394.01C238.63 394.01 239.18 394.56 239.18 395.23C239.18 395.9 238.63 396.45 237.96 396.45ZM237.96 490.76C236.77 490.76 235.8 491.73 235.8 492.92C235.8 494.11 236.77 495.08 237.96 495.08C239.15 495.08 240.12 494.11 240.12 492.92C240.12 491.73 239.15 490.76 237.96 490.76ZM237.96 494.14C237.29 494.14 236.74 493.59 236.74 492.92C236.74 492.25 237.29 491.7 237.96 491.7C238.63 491.7 239.18 492.25 239.18 492.92C239.18 493.59 238.63 494.14 237.96 494.14ZM237.96 294.96C236.77 294.96 235.8 295.93 235.8 297.12C235.8 298.31 236.77 299.28 237.96 299.28C239.15 299.28 240.12 298.31 240.12 297.12C240.12 295.92 239.15 294.96 237.96 294.96ZM237.96 298.33C237.29 298.33 236.74 297.78 236.74 297.11C236.74 296.44 237.29 295.89 237.96 295.89C238.63 295.89 239.18 296.44 239.18 297.11C239.18 297.78 238.63 298.33 237.96 298.33ZM335.88 0.99999C334.69 0.99999 333.72 1.96999 333.72 3.15999C333.72 4.34999 334.69 5.31999 335.88 5.31999C337.07 5.31999 338.04 4.34999 338.04 3.15999C338.04 1.96999 337.07 0.99999 335.88 0.99999ZM335.88 4.37999C335.21 4.37999 334.66 3.82999 334.66 3.15999C334.66 2.48999 335.21 1.93999 335.88 1.93999C336.55 1.93999 337.1 2.48999 337.1 3.15999C337.1 3.82999 336.56 4.37999 335.88 4.37999ZM335.88 196.84C334.69 196.84 333.72 197.81 333.72 199C333.72 200.19 334.69 201.16 335.88 201.16C337.07 201.16 338.04 200.19 338.04 199C338.04 197.81 337.07 196.84 335.88 196.84ZM335.88 200.22C335.21 200.22 334.66 199.67 334.66 199C334.66 198.33 335.21 197.78 335.88 197.78C336.55 197.78 337.1 198.33 337.1 199C337.1 199.67 336.56 200.22 335.88 200.22ZM335.88 393.07C334.69 393.07 333.72 394.04 333.72 395.23C333.72 396.42 334.69 397.39 335.88 397.39C337.07 397.39 338.04 396.42 338.04 395.23C338.04 394.04 337.07 393.07 335.88 393.07ZM335.88 396.45C335.21 396.45 334.66 395.9 334.66 395.23C334.66 394.56 335.21 394.01 335.88 394.01C336.55 394.01 337.1 394.56 337.1 395.23C337.1 395.9 336.56 396.45 335.88 396.45ZM335.88 490.76C334.69 490.76 333.72 491.73 333.72 492.92C333.72 494.11 334.69 495.08 335.88 495.08C337.07 495.08 338.04 494.11 338.04 492.92C338.04 491.73 337.07 490.76 335.88 490.76ZM335.88 494.14C335.21 494.14 334.66 493.59 334.66 492.92C334.66 492.25 335.21 491.7 335.88 491.7C336.55 491.7 337.1 492.25 337.1 492.92C337.1 493.59 336.56 494.14 335.88 494.14ZM335.88 294.96C334.69 294.96 333.72 295.93 333.72 297.12C333.72 298.31 334.69 299.28 335.88 299.28C337.07 299.28 338.04 298.31 338.04 297.12C338.04 295.92 337.07 294.96 335.88 294.96ZM335.88 298.33C335.21 298.33 334.66 297.78 334.66 297.11C334.66 296.44 335.21 295.89 335.88 295.89C336.55 295.89 337.1 296.44 337.1 297.11C337.1 297.78 336.56 298.33 335.88 298.33ZM433.8 0.99999C432.61 0.99999 431.64 1.96999 431.64 3.15999C431.64 4.34999 432.61 5.31999 433.8 5.31999C434.99 5.31999 435.96 4.34999 435.96 3.15999C435.96 1.96999 434.99 0.99999 433.8 0.99999ZM433.8 4.37999C433.13 4.37999 432.58 3.82999 432.58 3.15999C432.58 2.48999 433.13 1.93999 433.8 1.93999C434.47 1.93999 435.02 2.48999 435.02 3.15999C435.02 3.82999 434.48 4.37999 433.8 4.37999ZM433.8 196.84C432.61 196.84 431.64 197.81 431.64 199C431.64 200.19 432.61 201.16 433.8 201.16C434.99 201.16 435.96 200.19 435.96 199C435.96 197.81 434.99 196.84 433.8 196.84ZM433.8 200.22C433.13 200.22 432.58 199.67 432.58 199C432.58 198.33 433.13 197.78 433.8 197.78C434.47 197.78 435.02 198.33 435.02 199C435.02 199.67 434.48 200.22 433.8 200.22ZM433.8 393.07C432.61 393.07 431.64 394.04 431.64 395.23C431.64 396.42 432.61 397.39 433.8 397.39C434.99 397.39 435.96 396.42 435.96 395.23C435.96 394.04 434.99 393.07 433.8 393.07ZM433.8 396.45C433.13 396.45 432.58 395.9 432.58 395.23C432.58 394.56 433.13 394.01 433.8 394.01C434.47 394.01 435.02 394.56 435.02 395.23C435.02 395.9 434.48 396.45 433.8 396.45ZM433.8 490.76C432.61 490.76 431.64 491.73 431.64 492.92C431.64 494.11 432.61 495.08 433.8 495.08C434.99 495.08 435.96 494.11 435.96 492.92C435.96 491.73 434.99 490.76 433.8 490.76ZM433.8 494.14C433.13 494.14 432.58 493.59 432.58 492.92C432.58 492.25 433.13 491.7 433.8 491.7C434.47 491.7 435.02 492.25 435.02 492.92C435.02 493.59 434.48 494.14 433.8 494.14ZM433.8 294.96C432.61 294.96 431.64 295.93 431.64 297.12C431.64 298.31 432.61 299.28 433.8 299.28C434.99 299.28 435.96 298.31 435.96 297.12C435.96 295.92 434.99 294.96 433.8 294.96ZM433.8 298.33C433.13 298.33 432.58 297.78 432.58 297.11C432.58 296.44 433.13 295.89 433.8 295.89C434.47 295.89 435.02 296.44 435.02 297.11C435.02 297.78 434.48 298.33 433.8 298.33ZM189 1.07999C187.81 1.07999 186.84 2.04999 186.84 3.23999C186.84 4.42999 187.81 5.39999 189 5.39999C190.19 5.39999 191.16 4.42999 191.16 3.23999C191.16 2.04999 190.19 1.07999 189 1.07999ZM189 4.45999C188.33 4.45999 187.78 3.90999 187.78 3.23999C187.78 2.56999 188.33 2.01999 189 2.01999C189.67 2.01999 190.22 2.56999 190.22 3.23999C190.22 3.90999 189.67 4.45999 189 4.45999ZM189 196.93C187.81 196.93 186.84 197.9 186.84 199.09C186.84 200.28 187.81 201.25 189 201.25C190.19 201.25 191.16 200.28 191.16 199.09C191.16 197.9 190.19 196.93 189 196.93ZM189 200.31C188.33 200.31 187.78 199.76 187.78 199.09C187.78 198.42 188.33 197.87 189 197.87C189.67 197.87 190.22 198.42 190.22 199.09C190.22 199.76 189.67 200.31 189 200.31ZM189 393.15C187.81 393.15 186.84 394.12 186.84 395.31C186.84 396.5 187.81 397.47 189 397.47C190.19 397.47 191.16 396.5 191.16 395.31C191.16 394.12 190.19 393.15 189 393.15ZM189 396.53C188.33 396.53 187.78 395.98 187.78 395.31C187.78 394.64 188.33 394.09 189 394.09C189.67 394.09 190.22 394.64 190.22 395.31C190.22 395.98 189.67 396.53 189 396.53ZM189 490.84C187.81 490.84 186.84 491.81 186.84 493C186.84 494.19 187.81 495.16 189 495.16C190.19 495.16 191.16 494.19 191.16 493C191.16 491.81 190.19 490.84 189 490.84ZM189 494.22C188.33 494.22 187.78 493.67 187.78 493C187.78 492.33 188.33 491.78 189 491.78C189.67 491.78 190.22 492.33 190.22 493C190.22 493.67 189.67 494.22 189 494.22ZM189 295.04C187.81 295.04 186.84 296.01 186.84 297.2C186.84 298.39 187.81 299.36 189 299.36C190.19 299.36 191.16 298.39 191.16 297.2C191.16 296.01 190.19 295.04 189 295.04ZM189 298.42C188.33 298.42 187.78 297.87 187.78 297.2C187.78 296.53 188.33 295.98 189 295.98C189.67 295.98 190.22 296.53 190.22 297.2C190.22 297.87 189.67 298.42 189 298.42ZM42.12 1.07999C40.93 1.07999 39.96 2.04999 39.96 3.23999C39.96 4.42999 40.93 5.39999 42.12 5.39999C43.31 5.39999 44.28 4.42999 44.28 3.23999C44.27 2.04999 43.31 1.07999 42.12 1.07999ZM42.12 4.45999C41.45 4.45999 40.9 3.90999 40.9 3.23999C40.9 2.56999 41.45 2.01999 42.12 2.01999C42.79 2.01999 43.34 2.56999 43.34 3.23999C43.34 3.90999 42.79 4.45999 42.12 4.45999ZM42.12 196.93C40.93 196.93 39.96 197.9 39.96 199.09C39.96 200.28 40.93 201.25 42.12 201.25C43.31 201.25 44.28 200.28 44.28 199.09C44.27 197.9 43.31 196.93 42.12 196.93ZM42.12 200.31C41.45 200.31 40.9 199.76 40.9 199.09C40.9 198.42 41.45 197.87 42.12 197.87C42.79 197.87 43.34 198.42 43.34 199.09C43.34 199.76 42.79 200.31 42.12 200.31ZM42.12 393.15C40.93 393.15 39.96 394.12 39.96 395.31C39.96 396.5 40.93 397.47 42.12 397.47C43.31 397.47 44.28 396.5 44.28 395.31C44.27 394.12 43.31 393.15 42.12 393.15ZM42.12 396.53C41.45 396.53 40.9 395.98 40.9 395.31C40.9 394.64 41.45 394.09 42.12 394.09C42.79 394.09 43.34 394.64 43.34 395.31C43.34 395.98 42.79 396.53 42.12 396.53ZM42.12 490.84C40.93 490.84 39.96 491.81 39.96 493C39.96 494.19 40.93 495.16 42.12 495.16C43.31 495.16 44.28 494.19 44.28 493C44.28 491.81 43.31 490.84 42.12 490.84ZM42.12 494.22C41.45 494.22 40.9 493.67 40.9 493C40.9 492.33 41.45 491.78 42.12 491.78C42.79 491.78 43.34 492.33 43.34 493C43.34 493.67 42.79 494.22 42.12 494.22ZM42.12 295.04C40.93 295.04 39.96 296.01 39.96 297.2C39.96 298.39 40.93 299.36 42.12 299.36C43.31 299.36 44.28 298.39 44.28 297.2C44.28 296.01 43.31 295.04 42.12 295.04ZM42.12 298.42C41.45 298.42 40.9 297.87 40.9 297.2C40.9 296.53 41.45 295.98 42.12 295.98C42.79 295.98 43.34 296.53 43.34 297.2C43.34 297.87 42.79 298.42 42.12 298.42ZM286.92 1.07999C285.73 1.07999 284.76 2.04999 284.76 3.23999C284.76 4.42999 285.73 5.39999 286.92 5.39999C288.11 5.39999 289.08 4.42999 289.08 3.23999C289.08 2.04999 288.11 1.07999 286.92 1.07999ZM286.92 4.45999C286.25 4.45999 285.7 3.90999 285.7 3.23999C285.7 2.56999 286.25 2.01999 286.92 2.01999C287.59 2.01999 288.14 2.56999 288.14 3.23999C288.14 3.90999 287.59 4.45999 286.92 4.45999ZM286.92 196.93C285.73 196.93 284.76 197.9 284.76 199.09C284.76 200.28 285.73 201.25 286.92 201.25C288.11 201.25 289.08 200.28 289.08 199.09C289.08 197.9 288.11 196.93 286.92 196.93ZM286.92 200.31C286.25 200.31 285.7 199.76 285.7 199.09C285.7 198.42 286.25 197.87 286.92 197.87C287.59 197.87 288.14 198.42 288.14 199.09C288.14 199.76 287.59 200.31 286.92 200.31ZM286.92 393.15C285.73 393.15 284.76 394.12 284.76 395.31C284.76 396.5 285.73 397.47 286.92 397.47C288.11 397.47 289.08 396.5 289.08 395.31C289.08 394.12 288.11 393.15 286.92 393.15ZM286.92 396.53C286.25 396.53 285.7 395.98 285.7 395.31C285.7 394.64 286.25 394.09 286.92 394.09C287.59 394.09 288.14 394.64 288.14 395.31C288.14 395.98 287.59 396.53 286.92 396.53ZM286.92 490.84C285.73 490.84 284.76 491.81 284.76 493C284.76 494.19 285.73 495.16 286.92 495.16C288.11 495.16 289.08 494.19 289.08 493C289.08 491.81 288.11 490.84 286.92 490.84ZM286.92 494.22C286.25 494.22 285.7 493.67 285.7 493C285.7 492.33 286.25 491.78 286.92 491.78C287.59 491.78 288.14 492.33 288.14 493C288.14 493.67 287.59 494.22 286.92 494.22ZM286.92 295.04C285.73 295.04 284.76 296.01 284.76 297.2C284.76 298.39 285.73 299.36 286.92 299.36C288.11 299.36 289.08 298.39 289.08 297.2C289.08 296.01 288.11 295.04 286.92 295.04ZM286.92 298.42C286.25 298.42 285.7 297.87 285.7 297.2C285.7 296.53 286.25 295.98 286.92 295.98C287.59 295.98 288.14 296.53 288.14 297.2C288.14 297.87 287.59 298.42 286.92 298.42ZM384.84 1.07999C383.65 1.07999 382.68 2.04999 382.68 3.23999C382.68 4.42999 383.65 5.39999 384.84 5.39999C386.03 5.39999 387 4.42999 387 3.23999C387 2.04999 386.03 1.07999 384.84 1.07999ZM384.84 4.45999C384.17 4.45999 383.62 3.90999 383.62 3.23999C383.62 2.56999 384.17 2.01999 384.84 2.01999C385.51 2.01999 386.06 2.56999 386.06 3.23999C386.06 3.90999 385.52 4.45999 384.84 4.45999ZM384.84 196.93C383.65 196.93 382.68 197.9 382.68 199.09C382.68 200.28 383.65 201.25 384.84 201.25C386.03 201.25 387 200.28 387 199.09C387 197.9 386.03 196.93 384.84 196.93ZM384.84 200.31C384.17 200.31 383.62 199.76 383.62 199.09C383.62 198.42 384.17 197.87 384.84 197.87C385.51 197.87 386.06 198.42 386.06 199.09C386.06 199.76 385.52 200.31 384.84 200.31ZM384.84 393.15C383.65 393.15 382.68 394.12 382.68 395.31C382.68 396.5 383.65 397.47 384.84 397.47C386.03 397.47 387 396.5 387 395.31C387 394.12 386.03 393.15 384.84 393.15ZM384.84 396.53C384.17 396.53 383.62 395.98 383.62 395.31C383.62 394.64 384.17 394.09 384.84 394.09C385.51 394.09 386.06 394.64 386.06 395.31C386.06 395.98 385.52 396.53 384.84 396.53ZM384.84 490.84C383.65 490.84 382.68 491.81 382.68 493C382.68 494.19 383.65 495.16 384.84 495.16C386.03 495.16 387 494.19 387 493C387 491.81 386.03 490.84 384.84 490.84ZM384.84 494.22C384.17 494.22 383.62 493.67 383.62 493C383.62 492.33 384.17 491.78 384.84 491.78C385.51 491.78 386.06 492.33 386.06 493C386.06 493.67 385.52 494.22 384.84 494.22ZM384.84 295.04C383.65 295.04 382.68 296.01 382.68 297.2C382.68 298.39 383.65 299.36 384.84 299.36C386.03 299.36 387 298.39 387 297.2C387 296.01 386.03 295.04 384.84 295.04ZM384.84 298.42C384.17 298.42 383.62 297.87 383.62 297.2C383.62 296.53 384.17 295.98 384.84 295.98C385.51 295.98 386.06 296.53 386.06 297.2C386.06 297.87 385.52 298.42 384.84 298.42ZM482.77 5.30999C483.96 5.30999 484.93 4.33999 484.93 3.14999C484.93 1.95999 483.96 0.98999 482.77 0.98999C481.58 0.98999 480.61 1.95999 480.61 3.14999C480.61 4.33999 481.58 5.30999 482.77 5.30999ZM482.77 1.93999C483.44 1.93999 483.99 2.48999 483.99 3.15999C483.99 3.82999 483.44 4.37999 482.77 4.37999C482.1 4.37999 481.55 3.82999 481.55 3.15999C481.55 2.48999 482.09 1.93999 482.77 1.93999ZM-6.84 98.88C-8.03 98.88 -9 99.85 -9 101.04C-9 102.23 -8.03 103.2 -6.84 103.2C-5.65 103.2 -4.68 102.23 -4.68 101.04C-4.69 99.85 -5.66 98.88 -6.84 98.88ZM-6.84 102.26C-7.51 102.26 -8.06 101.71 -8.06 101.04C-8.06 100.37 -7.51 99.82 -6.84 99.82C-6.17 99.82 -5.62 100.37 -5.62 101.04C-5.62 101.71 -6.17 102.26 -6.84 102.26ZM91.08 98.88C89.89 98.88 88.92 99.85 88.92 101.04C88.92 102.23 89.89 103.2 91.08 103.2C92.27 103.2 93.24 102.23 93.24 101.04C93.23 99.85 92.27 98.88 91.08 98.88ZM91.08 102.26C90.41 102.26 89.86 101.71 89.86 101.04C89.86 100.37 90.41 99.82 91.08 99.82C91.75 99.82 92.3 100.37 92.3 101.04C92.3 101.71 91.75 102.26 91.08 102.26ZM140.04 98.88C138.85 98.88 137.88 99.85 137.88 101.04C137.88 102.23 138.85 103.2 140.04 103.2C141.23 103.2 142.2 102.23 142.2 101.04C142.19 99.85 141.23 98.88 140.04 98.88ZM140.04 102.26C139.37 102.26 138.82 101.71 138.82 101.04C138.82 100.37 139.37 99.82 140.04 99.82C140.71 99.82 141.26 100.37 141.26 101.04C141.26 101.71 140.71 102.26 140.04 102.26ZM237.96 98.88C236.77 98.88 235.8 99.85 235.8 101.04C235.8 102.23 236.77 103.2 237.96 103.2C239.15 103.2 240.12 102.23 240.12 101.04C240.12 99.85 239.15 98.88 237.96 98.88ZM237.96 102.26C237.29 102.26 236.74 101.71 236.74 101.04C236.74 100.37 237.29 99.82 237.96 99.82C238.63 99.82 239.18 100.37 239.18 101.04C239.18 101.71 238.63 102.26 237.96 102.26ZM335.88 98.88C334.69 98.88 333.72 99.85 333.72 101.04C333.72 102.23 334.69 103.2 335.88 103.2C337.07 103.2 338.04 102.23 338.04 101.04C338.04 99.85 337.07 98.88 335.88 98.88ZM335.88 102.26C335.21 102.26 334.66 101.71 334.66 101.04C334.66 100.37 335.21 99.82 335.88 99.82C336.55 99.82 337.1 100.37 337.1 101.04C337.1 101.71 336.56 102.26 335.88 102.26ZM433.8 98.88C432.61 98.88 431.64 99.85 431.64 101.04C431.64 102.23 432.61 103.2 433.8 103.2C434.99 103.2 435.96 102.23 435.96 101.04C435.96 99.85 434.99 98.88 433.8 98.88ZM433.8 102.26C433.13 102.26 432.58 101.71 432.58 101.04C432.58 100.37 433.13 99.82 433.8 99.82C434.47 99.82 435.02 100.37 435.02 101.04C435.02 101.71 434.48 102.26 433.8 102.26ZM189 98.96C187.81 98.96 186.84 99.93 186.84 101.12C186.84 102.31 187.81 103.28 189 103.28C190.19 103.28 191.16 102.31 191.16 101.12C191.16 99.93 190.19 98.96 189 98.96ZM189 102.34C188.33 102.34 187.78 101.79 187.78 101.12C187.78 100.45 188.33 99.9 189 99.9C189.67 99.9 190.22 100.45 190.22 101.12C190.22 101.79 189.67 102.34 189 102.34ZM42.12 98.96C40.93 98.96 39.96 99.93 39.96 101.12C39.96 102.31 40.93 103.28 42.12 103.28C43.31 103.28 44.28 102.31 44.28 101.12C44.28 99.93 43.31 98.96 42.12 98.96ZM42.12 102.34C41.45 102.34 40.9 101.79 40.9 101.12C40.9 100.45 41.45 99.9 42.12 99.9C42.79 99.9 43.34 100.45 43.34 101.12C43.34 101.79 42.79 102.34 42.12 102.34ZM286.92 98.96C285.73 98.96 284.76 99.93 284.76 101.12C284.76 102.31 285.73 103.28 286.92 103.28C288.11 103.28 289.08 102.31 289.08 101.12C289.08 99.93 288.11 98.96 286.92 98.96ZM286.92 102.34C286.25 102.34 285.7 101.79 285.7 101.12C285.7 100.45 286.25 99.9 286.92 99.9C287.59 99.9 288.14 100.45 288.14 101.12C288.14 101.79 287.59 102.34 286.92 102.34ZM384.84 98.96C383.65 98.96 382.68 99.93 382.68 101.12C382.68 102.31 383.65 103.28 384.84 103.28C386.03 103.28 387 102.31 387 101.12C387 99.93 386.03 98.96 384.84 98.96ZM384.84 102.34C384.17 102.34 383.62 101.79 383.62 101.12C383.62 100.45 384.17 99.9 384.84 99.9C385.51 99.9 386.06 100.45 386.06 101.12C386.06 101.79 385.52 102.34 384.84 102.34ZM482.77 98.88C481.58 98.88 480.61 99.85 480.61 101.04C480.61 102.23 481.58 103.2 482.77 103.2C483.96 103.2 484.93 102.23 484.93 101.04C484.92 99.85 483.95 98.88 482.77 98.88ZM482.77 102.26C482.1 102.26 481.55 101.71 481.55 101.04C481.55 100.37 482.1 99.82 482.77 99.82C483.44 99.82 483.99 100.37 483.99 101.04C483.99 101.71 483.44 102.26 482.77 102.26ZM-6.84 50.11C-8.03 50.11 -9 51.08 -9 52.27C-9 53.46 -8.03 54.43 -6.84 54.43C-5.65 54.43 -4.68 53.46 -4.68 52.27C-4.68 51.08 -5.66 50.11 -6.84 50.11ZM-6.84 53.49C-7.51 53.49 -8.06 52.94 -8.06 52.27C-8.06 51.6 -7.51 51.05 -6.84 51.05C-6.17 51.05 -5.62 51.6 -5.62 52.27C-5.62 52.94 -6.17 53.49 -6.84 53.49ZM91.08 50.11C89.89 50.11 88.92 51.08 88.92 52.27C88.92 53.46 89.89 54.43 91.08 54.43C92.27 54.43 93.24 53.46 93.24 52.27C93.24 51.08 92.27 50.11 91.08 50.11ZM91.08 53.49C90.41 53.49 89.86 52.94 89.86 52.27C89.86 51.6 90.41 51.05 91.08 51.05C91.75 51.05 92.3 51.6 92.3 52.27C92.3 52.94 91.75 53.49 91.08 53.49ZM140.04 50.11C138.85 50.11 137.88 51.08 137.88 52.27C137.88 53.46 138.85 54.43 140.04 54.43C141.23 54.43 142.2 53.46 142.2 52.27C142.2 51.08 141.23 50.11 140.04 50.11ZM140.04 53.49C139.37 53.49 138.82 52.94 138.82 52.27C138.82 51.6 139.37 51.05 140.04 51.05C140.71 51.05 141.26 51.6 141.26 52.27C141.26 52.94 140.71 53.49 140.04 53.49ZM237.96 50.11C236.77 50.11 235.8 51.08 235.8 52.27C235.8 53.46 236.77 54.43 237.96 54.43C239.15 54.43 240.12 53.46 240.12 52.27C240.12 51.08 239.15 50.11 237.96 50.11ZM237.96 53.49C237.29 53.49 236.74 52.94 236.74 52.27C236.74 51.6 237.29 51.05 237.96 51.05C238.63 51.05 239.18 51.6 239.18 52.27C239.18 52.94 238.63 53.49 237.96 53.49ZM335.88 50.11C334.69 50.11 333.72 51.08 333.72 52.27C333.72 53.46 334.69 54.43 335.88 54.43C337.07 54.43 338.04 53.46 338.04 52.27C338.04 51.08 337.07 50.11 335.88 50.11ZM335.88 53.49C335.21 53.49 334.66 52.94 334.66 52.27C334.66 51.6 335.21 51.05 335.88 51.05C336.55 51.05 337.1 51.6 337.1 52.27C337.1 52.94 336.56 53.49 335.88 53.49ZM433.8 50.11C432.61 50.11 431.64 51.08 431.64 52.27C431.64 53.46 432.61 54.43 433.8 54.43C434.99 54.43 435.96 53.46 435.96 52.27C435.96 51.08 434.99 50.11 433.8 50.11ZM433.8 53.49C433.13 53.49 432.58 52.94 432.58 52.27C432.58 51.6 433.13 51.05 433.8 51.05C434.47 51.05 435.02 51.6 435.02 52.27C435.02 52.94 434.48 53.49 433.8 53.49ZM189 50.19C187.81 50.19 186.84 51.16 186.84 52.35C186.84 53.54 187.81 54.51 189 54.51C190.19 54.51 191.16 53.54 191.16 52.35C191.16 51.16 190.19 50.19 189 50.19ZM189 53.57C188.33 53.57 187.78 53.02 187.78 52.35C187.78 51.68 188.33 51.13 189 51.13C189.67 51.13 190.22 51.68 190.22 52.35C190.22 53.02 189.67 53.57 189 53.57ZM42.12 50.19C40.93 50.19 39.96 51.16 39.96 52.35C39.96 53.54 40.93 54.51 42.12 54.51C43.31 54.51 44.28 53.54 44.28 52.35C44.28 51.16 43.31 50.19 42.12 50.19ZM42.12 53.57C41.45 53.57 40.9 53.02 40.9 52.35C40.9 51.68 41.45 51.13 42.12 51.13C42.79 51.13 43.34 51.68 43.34 52.35C43.34 53.02 42.79 53.57 42.12 53.57ZM286.92 50.19C285.73 50.19 284.76 51.16 284.76 52.35C284.76 53.54 285.73 54.51 286.92 54.51C288.11 54.51 289.08 53.54 289.08 52.35C289.08 51.16 288.11 50.19 286.92 50.19ZM286.92 53.57C286.25 53.57 285.7 53.02 285.7 52.35C285.7 51.68 286.25 51.13 286.92 51.13C287.59 51.13 288.14 51.68 288.14 52.35C288.14 53.02 287.59 53.57 286.92 53.57ZM384.84 50.19C383.65 50.19 382.68 51.16 382.68 52.35C382.68 53.54 383.65 54.51 384.84 54.51C386.03 54.51 387 53.54 387 52.35C387 51.16 386.03 50.19 384.84 50.19ZM384.84 53.57C384.17 53.57 383.62 53.02 383.62 52.35C383.62 51.68 384.17 51.13 384.84 51.13C385.51 51.13 386.06 51.68 386.06 52.35C386.06 53.02 385.52 53.57 384.84 53.57ZM482.77 50.11C481.58 50.11 480.61 51.08 480.61 52.27C480.61 53.46 481.58 54.43 482.77 54.43C483.96 54.43 484.93 53.46 484.93 52.27C484.93 51.08 483.95 50.11 482.77 50.11ZM482.77 53.49C482.1 53.49 481.55 52.94 481.55 52.27C481.55 51.6 482.1 51.05 482.77 51.05C483.44 51.05 483.99 51.6 483.99 52.27C483.99 52.94 483.44 53.49 482.77 53.49ZM482.77 196.84C481.58 196.84 480.61 197.81 480.61 199C480.61 200.19 481.58 201.16 482.77 201.16C483.96 201.16 484.93 200.19 484.93 199C484.92 197.81 483.95 196.84 482.77 196.84ZM482.77 200.22C482.1 200.22 481.55 199.67 481.55 199C481.55 198.33 482.1 197.78 482.77 197.78C483.44 197.78 483.99 198.33 483.99 199C483.99 199.67 483.44 200.22 482.77 200.22ZM482.77 393.07C481.58 393.07 480.61 394.04 480.61 395.23C480.61 396.42 481.58 397.39 482.77 397.39C483.96 397.39 484.93 396.42 484.93 395.23C484.93 394.04 483.95 393.07 482.77 393.07ZM482.77 396.45C482.1 396.45 481.55 395.9 481.55 395.23C481.55 394.56 482.1 394.01 482.77 394.01C483.44 394.01 483.99 394.56 483.99 395.23C483.99 395.9 483.44 396.45 482.77 396.45ZM482.77 490.76C481.58 490.76 480.61 491.73 480.61 492.92C480.61 494.11 481.58 495.08 482.77 495.08C483.96 495.08 484.93 494.11 484.93 492.92C484.92 491.73 483.95 490.76 482.77 490.76ZM482.77 494.14C482.1 494.14 481.55 493.59 481.55 492.92C481.55 492.25 482.1 491.7 482.77 491.7C483.44 491.7 483.99 492.25 483.99 492.92C483.99 493.59 483.44 494.14 482.77 494.14ZM482.77 294.96C481.58 294.96 480.61 295.93 480.61 297.12C480.61 298.31 481.58 299.28 482.77 299.28C483.96 299.28 484.93 298.31 484.93 297.12C484.92 295.92 483.95 294.96 482.77 294.96ZM482.77 298.33C482.1 298.33 481.55 297.78 481.55 297.11C481.55 296.44 482.1 295.89 482.77 295.89C483.44 295.89 483.99 296.44 483.99 297.11C483.99 297.78 483.44 298.33 482.77 298.33ZM-6.84 147.84C-8.03 147.84 -9 148.81 -9 150C-9 151.19 -8.03 152.16 -6.84 152.16C-5.65 152.16 -4.68 151.19 -4.68 150C-4.69 148.81 -5.66 147.84 -6.84 147.84ZM-6.84 151.22C-7.51 151.22 -8.06 150.67 -8.06 150C-8.06 149.33 -7.51 148.78 -6.84 148.78C-6.17 148.78 -5.62 149.33 -5.62 150C-5.62 150.67 -6.17 151.22 -6.84 151.22ZM91.08 147.84C89.89 147.84 88.92 148.81 88.92 150C88.92 151.19 89.89 152.16 91.08 152.16C92.27 152.16 93.24 151.19 93.24 150C93.23 148.81 92.27 147.84 91.08 147.84ZM91.08 151.22C90.41 151.22 89.86 150.67 89.86 150C89.86 149.33 90.41 148.78 91.08 148.78C91.75 148.78 92.3 149.33 92.3 150C92.3 150.67 91.75 151.22 91.08 151.22ZM140.04 147.84C138.85 147.84 137.88 148.81 137.88 150C137.88 151.19 138.85 152.16 140.04 152.16C141.23 152.16 142.2 151.19 142.2 150C142.19 148.81 141.23 147.84 140.04 147.84ZM140.04 151.22C139.37 151.22 138.82 150.67 138.82 150C138.82 149.33 139.37 148.78 140.04 148.78C140.71 148.78 141.26 149.33 141.26 150C141.26 150.67 140.71 151.22 140.04 151.22ZM237.96 147.84C236.77 147.84 235.8 148.81 235.8 150C235.8 151.19 236.77 152.16 237.96 152.16C239.15 152.16 240.12 151.19 240.12 150C240.12 148.81 239.15 147.84 237.96 147.84ZM237.96 151.22C237.29 151.22 236.74 150.67 236.74 150C236.74 149.33 237.29 148.78 237.96 148.78C238.63 148.78 239.18 149.33 239.18 150C239.18 150.67 238.63 151.22 237.96 151.22ZM335.88 147.84C334.69 147.84 333.72 148.81 333.72 150C333.72 151.19 334.69 152.16 335.88 152.16C337.07 152.16 338.04 151.19 338.04 150C338.04 148.81 337.07 147.84 335.88 147.84ZM335.88 151.22C335.21 151.22 334.66 150.67 334.66 150C334.66 149.33 335.21 148.78 335.88 148.78C336.55 148.78 337.1 149.33 337.1 150C337.1 150.67 336.56 151.22 335.88 151.22ZM433.8 147.84C432.61 147.84 431.64 148.81 431.64 150C431.64 151.19 432.61 152.16 433.8 152.16C434.99 152.16 435.96 151.19 435.96 150C435.96 148.81 434.99 147.84 433.8 147.84ZM433.8 151.22C433.13 151.22 432.58 150.67 432.58 150C432.58 149.33 433.13 148.78 433.8 148.78C434.47 148.78 435.02 149.33 435.02 150C435.02 150.67 434.48 151.22 433.8 151.22ZM189 147.92C187.81 147.92 186.84 148.89 186.84 150.08C186.84 151.27 187.81 152.24 189 152.24C190.19 152.24 191.16 151.27 191.16 150.08C191.16 148.89 190.19 147.92 189 147.92ZM189 151.3C188.33 151.3 187.78 150.75 187.78 150.08C187.78 149.41 188.33 148.86 189 148.86C189.67 148.86 190.22 149.41 190.22 150.08C190.22 150.75 189.67 151.3 189 151.3ZM42.12 147.92C40.93 147.92 39.96 148.89 39.96 150.08C39.96 151.27 40.93 152.24 42.12 152.24C43.31 152.24 44.28 151.27 44.28 150.08C44.28 148.89 43.31 147.92 42.12 147.92ZM42.12 151.3C41.45 151.3 40.9 150.75 40.9 150.08C40.9 149.41 41.45 148.86 42.12 148.86C42.79 148.86 43.34 149.41 43.34 150.08C43.34 150.75 42.79 151.3 42.12 151.3ZM286.92 147.92C285.73 147.92 284.76 148.89 284.76 150.08C284.76 151.27 285.73 152.24 286.92 152.24C288.11 152.24 289.08 151.27 289.08 150.08C289.08 148.89 288.11 147.92 286.92 147.92ZM286.92 151.3C286.25 151.3 285.7 150.75 285.7 150.08C285.7 149.41 286.25 148.86 286.92 148.86C287.59 148.86 288.14 149.41 288.14 150.08C288.14 150.75 287.59 151.3 286.92 151.3ZM384.84 147.92C383.65 147.92 382.68 148.89 382.68 150.08C382.68 151.27 383.65 152.24 384.84 152.24C386.03 152.24 387 151.27 387 150.08C387 148.89 386.03 147.92 384.84 147.92ZM384.84 151.3C384.17 151.3 383.62 150.75 383.62 150.08C383.62 149.41 384.17 148.86 384.84 148.86C385.51 148.86 386.06 149.41 386.06 150.08C386.06 150.75 385.52 151.3 384.84 151.3ZM482.77 147.84C481.58 147.84 480.61 148.81 480.61 150C480.61 151.19 481.58 152.16 482.77 152.16C483.96 152.16 484.93 151.19 484.93 150C484.92 148.81 483.95 147.84 482.77 147.84ZM482.77 151.22C482.1 151.22 481.55 150.67 481.55 150C481.55 149.33 482.1 148.78 482.77 148.78C483.44 148.78 483.99 149.33 483.99 150C483.99 150.67 483.44 151.22 482.77 151.22ZM-6.84 245.57C-8.03 245.57 -9 246.54 -9 247.73C-9 248.92 -8.03 249.89 -6.84 249.89C-5.65 249.89 -4.68 248.92 -4.68 247.73C-4.69 246.54 -5.66 245.57 -6.84 245.57ZM-6.84 248.95C-7.51 248.95 -8.06 248.4 -8.06 247.73C-8.06 247.06 -7.51 246.51 -6.84 246.51C-6.17 246.51 -5.62 247.06 -5.62 247.73C-5.62 248.4 -6.17 248.95 -6.84 248.95ZM91.08 245.57C89.89 245.57 88.92 246.54 88.92 247.73C88.92 248.92 89.89 249.89 91.08 249.89C92.27 249.89 93.24 248.92 93.24 247.73C93.23 246.54 92.27 245.57 91.08 245.57ZM91.08 248.95C90.41 248.95 89.86 248.4 89.86 247.73C89.86 247.06 90.41 246.51 91.08 246.51C91.75 246.51 92.3 247.06 92.3 247.73C92.3 248.4 91.75 248.95 91.08 248.95ZM140.04 245.57C138.85 245.57 137.88 246.54 137.88 247.73C137.88 248.92 138.85 249.89 140.04 249.89C141.23 249.89 142.2 248.92 142.2 247.73C142.19 246.54 141.23 245.57 140.04 245.57ZM140.04 248.95C139.37 248.95 138.82 248.4 138.82 247.73C138.82 247.06 139.37 246.51 140.04 246.51C140.71 246.51 141.26 247.06 141.26 247.73C141.26 248.4 140.71 248.95 140.04 248.95ZM237.96 245.57C236.77 245.57 235.8 246.54 235.8 247.73C235.8 248.92 236.77 249.89 237.96 249.89C239.15 249.89 240.12 248.92 240.12 247.73C240.12 246.54 239.15 245.57 237.96 245.57ZM237.96 248.95C237.29 248.95 236.74 248.4 236.74 247.73C236.74 247.06 237.29 246.51 237.96 246.51C238.63 246.51 239.18 247.06 239.18 247.73C239.18 248.4 238.63 248.95 237.96 248.95ZM335.88 245.57C334.69 245.57 333.72 246.54 333.72 247.73C333.72 248.92 334.69 249.89 335.88 249.89C337.07 249.89 338.04 248.92 338.04 247.73C338.04 246.54 337.07 245.57 335.88 245.57ZM335.88 248.95C335.21 248.95 334.66 248.4 334.66 247.73C334.66 247.06 335.21 246.51 335.88 246.51C336.55 246.51 337.1 247.06 337.1 247.73C337.1 248.4 336.56 248.95 335.88 248.95ZM433.8 245.57C432.61 245.57 431.64 246.54 431.64 247.73C431.64 248.92 432.61 249.89 433.8 249.89C434.99 249.89 435.96 248.92 435.96 247.73C435.96 246.54 434.99 245.57 433.8 245.57ZM433.8 248.95C433.13 248.95 432.58 248.4 432.58 247.73C432.58 247.06 433.13 246.51 433.8 246.51C434.47 246.51 435.02 247.06 435.02 247.73C435.02 248.4 434.48 248.95 433.8 248.95ZM189 245.66C187.81 245.66 186.84 246.63 186.84 247.82C186.84 249.01 187.81 249.98 189 249.98C190.19 249.98 191.16 249.01 191.16 247.82C191.16 246.63 190.19 245.66 189 245.66ZM189 249.03C188.33 249.03 187.78 248.48 187.78 247.81C187.78 247.14 188.33 246.59 189 246.59C189.67 246.59 190.22 247.14 190.22 247.81C190.22 248.48 189.67 249.03 189 249.03ZM42.12 245.66C40.93 245.66 39.96 246.63 39.96 247.82C39.96 249.01 40.93 249.98 42.12 249.98C43.31 249.98 44.28 249.01 44.28 247.82C44.28 246.63 43.31 245.66 42.12 245.66ZM42.12 249.03C41.45 249.03 40.9 248.48 40.9 247.81C40.9 247.14 41.45 246.59 42.12 246.59C42.79 246.59 43.34 247.14 43.34 247.81C43.34 248.48 42.79 249.03 42.12 249.03ZM286.92 245.66C285.73 245.66 284.76 246.63 284.76 247.82C284.76 249.01 285.73 249.98 286.92 249.98C288.11 249.98 289.08 249.01 289.08 247.82C289.08 246.63 288.11 245.66 286.92 245.66ZM286.92 249.03C286.25 249.03 285.7 248.48 285.7 247.81C285.7 247.14 286.25 246.59 286.92 246.59C287.59 246.59 288.14 247.14 288.14 247.81C288.14 248.48 287.59 249.03 286.92 249.03ZM384.84 245.66C383.65 245.66 382.68 246.63 382.68 247.82C382.68 249.01 383.65 249.98 384.84 249.98C386.03 249.98 387 249.01 387 247.82C387 246.63 386.03 245.66 384.84 245.66ZM384.84 249.03C384.17 249.03 383.62 248.48 383.62 247.81C383.62 247.14 384.17 246.59 384.84 246.59C385.51 246.59 386.06 247.14 386.06 247.81C386.06 248.48 385.52 249.03 384.84 249.03ZM482.77 245.57C481.58 245.57 480.61 246.54 480.61 247.73C480.61 248.92 481.58 249.89 482.77 249.89C483.96 249.89 484.93 248.92 484.93 247.73C484.92 246.54 483.95 245.57 482.77 245.57ZM482.77 248.95C482.1 248.95 481.55 248.4 481.55 247.73C481.55 247.06 482.1 246.51 482.77 246.51C483.44 246.51 483.99 247.06 483.99 247.73C483.99 248.4 483.44 248.95 482.77 248.95ZM-6.84 343.92C-8.03 343.92 -9 344.89 -9 346.08C-9 347.27 -8.03 348.24 -6.84 348.24C-5.65 348.24 -4.68 347.27 -4.68 346.08C-4.69 344.88 -5.66 343.92 -6.84 343.92ZM-6.84 347.3C-7.51 347.3 -8.06 346.75 -8.06 346.08C-8.06 345.41 -7.51 344.86 -6.84 344.86C-6.17 344.86 -5.62 345.41 -5.62 346.08C-5.62 346.75 -6.17 347.3 -6.84 347.3ZM91.08 343.92C89.89 343.92 88.92 344.89 88.92 346.08C88.92 347.27 89.89 348.24 91.08 348.24C92.27 348.24 93.24 347.27 93.24 346.08C93.23 344.88 92.27 343.92 91.08 343.92ZM91.08 347.3C90.41 347.3 89.86 346.75 89.86 346.08C89.86 345.41 90.41 344.86 91.08 344.86C91.75 344.86 92.3 345.41 92.3 346.08C92.3 346.75 91.75 347.3 91.08 347.3ZM140.04 343.92C138.85 343.92 137.88 344.89 137.88 346.08C137.88 347.27 138.85 348.24 140.04 348.24C141.23 348.24 142.2 347.27 142.2 346.08C142.19 344.88 141.23 343.92 140.04 343.92ZM140.04 347.3C139.37 347.3 138.82 346.75 138.82 346.08C138.82 345.41 139.37 344.86 140.04 344.86C140.71 344.86 141.26 345.41 141.26 346.08C141.26 346.75 140.71 347.3 140.04 347.3ZM237.96 343.92C236.77 343.92 235.8 344.89 235.8 346.08C235.8 347.27 236.77 348.24 237.96 348.24C239.15 348.24 240.12 347.27 240.12 346.08C240.12 344.88 239.15 343.92 237.96 343.92ZM237.96 347.3C237.29 347.3 236.74 346.75 236.74 346.08C236.74 345.41 237.29 344.86 237.96 344.86C238.63 344.86 239.18 345.41 239.18 346.08C239.18 346.75 238.63 347.3 237.96 347.3ZM335.88 343.92C334.69 343.92 333.72 344.89 333.72 346.08C333.72 347.27 334.69 348.24 335.88 348.24C337.07 348.24 338.04 347.27 338.04 346.08C338.04 344.88 337.07 343.92 335.88 343.92ZM335.88 347.3C335.21 347.3 334.66 346.75 334.66 346.08C334.66 345.41 335.21 344.86 335.88 344.86C336.55 344.86 337.1 345.41 337.1 346.08C337.1 346.75 336.56 347.3 335.88 347.3ZM433.8 343.92C432.61 343.92 431.64 344.89 431.64 346.08C431.64 347.27 432.61 348.24 433.8 348.24C434.99 348.24 435.96 347.27 435.96 346.08C435.96 344.88 434.99 343.92 433.8 343.92ZM433.8 347.3C433.13 347.3 432.58 346.75 432.58 346.08C432.58 345.41 433.13 344.86 433.8 344.86C434.47 344.86 435.02 345.41 435.02 346.08C435.02 346.75 434.48 347.3 433.8 347.3ZM189 344C187.81 344 186.84 344.97 186.84 346.16C186.84 347.35 187.81 348.32 189 348.32C190.19 348.32 191.16 347.35 191.16 346.16C191.16 344.97 190.19 344 189 344ZM189 347.38C188.33 347.38 187.78 346.83 187.78 346.16C187.78 345.49 188.33 344.94 189 344.94C189.67 344.94 190.22 345.49 190.22 346.16C190.22 346.83 189.67 347.38 189 347.38ZM42.12 344C40.93 344 39.96 344.97 39.96 346.16C39.96 347.35 40.93 348.32 42.12 348.32C43.31 348.32 44.28 347.35 44.28 346.16C44.27 344.97 43.31 344 42.12 344ZM42.12 347.38C41.45 347.38 40.9 346.83 40.9 346.16C40.9 345.49 41.45 344.94 42.12 344.94C42.79 344.94 43.34 345.49 43.34 346.16C43.34 346.83 42.79 347.38 42.12 347.38ZM286.92 344C285.73 344 284.76 344.97 284.76 346.16C284.76 347.35 285.73 348.32 286.92 348.32C288.11 348.32 289.08 347.35 289.08 346.16C289.08 344.97 288.11 344 286.92 344ZM286.92 347.38C286.25 347.38 285.7 346.83 285.7 346.16C285.7 345.49 286.25 344.94 286.92 344.94C287.59 344.94 288.14 345.49 288.14 346.16C288.14 346.83 287.59 347.38 286.92 347.38ZM384.84 344C383.65 344 382.68 344.97 382.68 346.16C382.68 347.35 383.65 348.32 384.84 348.32C386.03 348.32 387 347.35 387 346.16C387 344.97 386.03 344 384.84 344ZM384.84 347.38C384.17 347.38 383.62 346.83 383.62 346.16C383.62 345.49 384.17 344.94 384.84 344.94C385.51 344.94 386.06 345.49 386.06 346.16C386.06 346.83 385.52 347.38 384.84 347.38ZM482.77 343.92C481.58 343.92 480.61 344.89 480.61 346.08C480.61 347.27 481.58 348.24 482.77 348.24C483.96 348.24 484.93 347.27 484.93 346.08C484.92 344.88 483.95 343.92 482.77 343.92ZM482.77 347.3C482.1 347.3 481.55 346.75 481.55 346.08C481.55 345.41 482.1 344.86 482.77 344.86C483.44 344.86 483.99 345.41 483.99 346.08C483.99 346.75 483.44 347.3 482.77 347.3ZM-6.84 442.26C-8.03 442.26 -9 443.23 -9 444.42C-9 445.61 -8.03 446.58 -6.84 446.58C-5.65 446.58 -4.68 445.61 -4.68 444.42C-4.69 443.23 -5.66 442.26 -6.84 442.26ZM-6.84 445.64C-7.51 445.64 -8.06 445.09 -8.06 444.42C-8.06 443.75 -7.51 443.2 -6.84 443.2C-6.17 443.2 -5.62 443.75 -5.62 444.42C-5.62 445.09 -6.17 445.64 -6.84 445.64ZM91.08 442.26C89.89 442.26 88.92 443.23 88.92 444.42C88.92 445.61 89.89 446.58 91.08 446.58C92.27 446.58 93.24 445.61 93.24 444.42C93.23 443.23 92.27 442.26 91.08 442.26ZM91.08 445.64C90.41 445.64 89.86 445.09 89.86 444.42C89.86 443.75 90.41 443.2 91.08 443.2C91.75 443.2 92.3 443.75 92.3 444.42C92.3 445.09 91.75 445.64 91.08 445.64ZM140.04 442.26C138.85 442.26 137.88 443.23 137.88 444.42C137.88 445.61 138.85 446.58 140.04 446.58C141.23 446.58 142.2 445.61 142.2 444.42C142.19 443.23 141.23 442.26 140.04 442.26ZM140.04 445.64C139.37 445.64 138.82 445.09 138.82 444.42C138.82 443.75 139.37 443.2 140.04 443.2C140.71 443.2 141.26 443.75 141.26 444.42C141.26 445.09 140.71 445.64 140.04 445.64ZM237.96 442.26C236.77 442.26 235.8 443.23 235.8 444.42C235.8 445.61 236.77 446.58 237.96 446.58C239.15 446.58 240.12 445.61 240.12 444.42C240.12 443.23 239.15 442.26 237.96 442.26ZM237.96 445.64C237.29 445.64 236.74 445.09 236.74 444.42C236.74 443.75 237.29 443.2 237.96 443.2C238.63 443.2 239.18 443.75 239.18 444.42C239.18 445.09 238.63 445.64 237.96 445.64ZM335.88 442.26C334.69 442.26 333.72 443.23 333.72 444.42C333.72 445.61 334.69 446.58 335.88 446.58C337.07 446.58 338.04 445.61 338.04 444.42C338.04 443.23 337.07 442.26 335.88 442.26ZM335.88 445.64C335.21 445.64 334.66 445.09 334.66 444.42C334.66 443.75 335.21 443.2 335.88 443.2C336.55 443.2 337.1 443.75 337.1 444.42C337.1 445.09 336.56 445.64 335.88 445.64ZM433.8 442.26C432.61 442.26 431.64 443.23 431.64 444.42C431.64 445.61 432.61 446.58 433.8 446.58C434.99 446.58 435.96 445.61 435.96 444.42C435.96 443.23 434.99 442.26 433.8 442.26ZM433.8 445.64C433.13 445.64 432.58 445.09 432.58 444.42C432.58 443.75 433.13 443.2 433.8 443.2C434.47 443.2 435.02 443.75 435.02 444.42C435.02 445.09 434.48 445.64 433.8 445.64ZM189 442.35C187.81 442.35 186.84 443.32 186.84 444.51C186.84 445.7 187.81 446.67 189 446.67C190.19 446.67 191.16 445.7 191.16 444.51C191.16 443.32 190.19 442.35 189 442.35ZM189 445.73C188.33 445.73 187.78 445.18 187.78 444.51C187.78 443.84 188.33 443.29 189 443.29C189.67 443.29 190.22 443.84 190.22 444.51C190.22 445.18 189.67 445.73 189 445.73ZM42.12 442.35C40.93 442.35 39.96 443.32 39.96 444.51C39.96 445.7 40.93 446.67 42.12 446.67C43.31 446.67 44.28 445.7 44.28 444.51C44.28 443.32 43.31 442.35 42.12 442.35ZM42.12 445.73C41.45 445.73 40.9 445.18 40.9 444.51C40.9 443.84 41.45 443.29 42.12 443.29C42.79 443.29 43.34 443.84 43.34 444.51C43.34 445.18 42.79 445.73 42.12 445.73ZM286.92 442.35C285.73 442.35 284.76 443.32 284.76 444.51C284.76 445.7 285.73 446.67 286.92 446.67C288.11 446.67 289.08 445.7 289.08 444.51C289.08 443.32 288.11 442.35 286.92 442.35ZM286.92 445.73C286.25 445.73 285.7 445.18 285.7 444.51C285.7 443.84 286.25 443.29 286.92 443.29C287.59 443.29 288.14 443.84 288.14 444.51C288.14 445.18 287.59 445.73 286.92 445.73ZM384.84 442.35C383.65 442.35 382.68 443.32 382.68 444.51C382.68 445.7 383.65 446.67 384.84 446.67C386.03 446.67 387 445.7 387 444.51C387 443.32 386.03 442.35 384.84 442.35ZM384.84 445.73C384.17 445.73 383.62 445.18 383.62 444.51C383.62 443.84 384.17 443.29 384.84 443.29C385.51 443.29 386.06 443.84 386.06 444.51C386.06 445.18 385.52 445.73 384.84 445.73ZM482.77 442.26C481.58 442.26 480.61 443.23 480.61 444.42C480.61 445.61 481.58 446.58 482.77 446.58C483.96 446.58 484.93 445.61 484.93 444.42C484.92 443.23 483.95 442.26 482.77 442.26ZM482.77 445.64C482.1 445.64 481.55 445.09 481.55 444.42C481.55 443.75 482.1 443.2 482.77 443.2C483.44 443.2 483.99 443.75 483.99 444.42C483.99 445.09 483.44 445.64 482.77 445.64Z" fill="url(#paint1_linear)"/>
<defs>
<linearGradient id="paint0_linear" x1="398" y1="679.5" x2="99.5" y2="18.5" gradientUnits="userSpaceOnUse">
<stop stop-color="white" stop-opacity="0.7"/>
<stop offset="1" stop-color="white" stop-opacity="0.22"/>
</linearGradient>
<linearGradient id="paint1_linear" x1="398" y1="679.5" x2="99.5" y2="18.5" gradientUnits="userSpaceOnUse">
<stop stop-color="white" stop-opacity="0.7"/>
<stop offset="1" stop-color="white" stop-opacity="0.22"/>
</linearGradient>
</defs>
</svg>
